SplineFontDB: 1.0
FontName: DBThaiText
FullName: DBThaiText
FamilyName: DBThaiText
Weight: Medium
Copyright: Typeface (c) The Monotype Corporation plc. Data (c) The Monotype Corporation plc/Type Solutions Inc. 1990-1992. All Rights Reserved\n\nModified by TLWG
Version: 2.0 : Dec 10, 2003
ItalicAngle: 0
UnderlinePosition: -50
UnderlineWidth: 40
Ascent: 800
Descent: 200
NeedsXUIDChange: 1
FSType: 0
PfmFamily: 33
TTFWeight: 500
TTFWidth: 5
Panose: 2 0 6 3 0 0 0 0 0 0
LineGap: 184
VLineGap: 0
ScriptLang: 3
 1 DFLT 1 dflt 
 1 thai 1 dflt 
 1 latn 1 dflt 
LangName: 1033 "" "" "" "PfaEdit : DBThaiText : 13-0-2003" 
Encoding: compacted
OldEncoding: iso8859_1
UnicodeInterp: none
DisplaySize: -72
AntiAlias: 1
FitToEm: 1
WinInfo: 224 8 2
BeginPrivate: 10
BlueValues 25 [ -35 0 315 346 437 445 ]
OtherBlues 13 [ -133 -131 ]
BlueScale 7 0.02857
BlueShift 1 7
BlueFuzz 1 1
StdHW 6 [ 31 ]
StdVW 6 [ 38 ]
ForceBold 5 false
StemSnapH 9 [ 31 36 ]
StemSnapV 9 [ 38 42 ]
EndPrivate
TeXData: 1 10485760 0 295936 147968 98645 381440 -1048576 98645 783286 444596 497025 792723 393216 433062 380633 303038 157286 324010 404750 52429 2506097 1059062 262144
BeginChars: 290 257
StartChar: .notdef
Encoding: 0 -1 0
OldEncoding: 0
Width: 798
VWidth: 2048
Flags: W
HStem: -39 105<164 693> 1280 104<57 586>
VStem: 57 107<-39 1280> 586 107<66 1384>
Fore
57 -39 m 1
 57 1384 l 1
 693 1384 l 1
 693 -39 l 1
 57 -39 l 1
164 66 m 1
 586 66 l 1
 586 1280 l 1
 164 1280 l 1
 164 66 l 1
EndSplineSet
EndChar
StartChar: exclam
Encoding: 33 33 3
OldEncoding: 33
Width: 282
Flags: W
HStem: 0 21G<126 212>
VStem: 126 86<0 105 375 741>
Fore
190 170 m 1
 147 170 l 1
 126 376 l 1
 126 741 l 1
 212 741 l 1
 212 376 l 1
 190 170 l 1
126 105 m 1
 212 105 l 1
 212 0 l 1
 126 0 l 1
 126 105 l 1
EndSplineSet
EndChar
StartChar: quotedbl
Encoding: 34 34 4
OldEncoding: 34
Width: 339
VWidth: 2048
Flags: W
VStem: 45 85<625 741> 204 86<625 741>
Fore
66 492 m 1
 45 626 l 1
 45 741 l 1
 130 741 l 1
 130 626 l 1
 108 492 l 1
 66 492 l 1
225 492 m 1
 204 626 l 1
 204 741 l 1
 290 741 l 5
 290 626 l 1
 267 492 l 1
 225 492 l 1
EndSplineSet
EndChar
StartChar: numbersign
Encoding: 35 35 5
OldEncoding: 35
Width: 565
Flags: W
HStem: -21 21G<78 154 284 360> 194 80<14 116 210 321 416 518> 430 82<52 159 250 363 458 550> 430 280<210 363 414 550>
DStem: 116 194 195 194 78 -21 154 -21 159 430 237 430 130 274 210 274 210 710 288 710 172 512 250 512 321 194 399 194 284 -21 360 -21 363 430 442 430 336 274 416 274 414 710 494 710 378 512 458 512
Fore
210 710 m 1
 288 710 l 1
 250 512 l 1
 378 512 l 1
 414 710 l 1
 494 710 l 1
 458 512 l 1
 550 512 l 1
 550 430 l 1
 442 430 l 1
 416 274 l 1
 518 274 l 1
 518 194 l 1
 399 194 l 1
 360 -21 l 1
 284 -21 l 1
 321 194 l 1
 195 194 l 1
 154 -21 l 1
 78 -21 l 1
 116 194 l 1
 14 194 l 1
 14 274 l 1
 130 274 l 1
 159 430 l 1
 52 430 l 1
 52 512 l 1
 172 512 l 1
 210 710 l 1
237 430 m 1
 210 274 l 1
 336 274 l 1
 363 430 l 1
 237 430 l 1
EndSplineSet
EndChar
StartChar: dollar
Encoding: 36 36 6
OldEncoding: 36
Width: 565
Flags: W
VStem: 248 61<-128 -22 48 314 414 654 728 783> 441 85<175 209>
Fore
506 530 m 1
 423 530 l 1
 422 566 414 596 394 615 c 1
 376 640 348 654 309 654 c 1
 309 405 l 1
 362 390 402 376 428 364 c 0
 453 354 474 336 496 308 c 0
 518 278 526 240 526 192 c 0
 526 140 510 93 477 56 c 0
 441 16 404 -4 364 -12 c 2
 309 -22 l 1
 309 -128 l 1
 248 -128 l 1
 248 -24 l 1
 207 -15 172 -8 147 2 c 0
 120 12 94 34 70 66 c 0
 46 99 34 147 34 212 c 1
 112 212 l 1
 116 182 120 156 126 138 c 0
 130 118 142 100 160 82 c 0
 180 68 208 56 248 48 c 1
 248 324 l 1
 231 328 212 336 190 342 c 0
 168 350 148 357 132 368 c 0
 114 376 100 388 88 400 c 1
 63 432 50 480 50 546 c 1
 56 604 78 650 114 678 c 0
 148 706 195 724 248 729 c 1
 248 783 l 1
 309 783 l 1
 309 729 l 1
 364 724 412 705 447 675 c 0
 470 656 484 634 494 608 c 0
 501 578 506 552 506 530 c 1
248 414 m 1
 248 656 l 1
 218 654 190 644 166 624 c 0
 142 602 128 576 128 548 c 0
 126 512 138 483 159 459 c 0
 182 435 210 420 248 414 c 1
309 314 m 1
 309 50 l 1
 326 51 344 56 363 64 c 0
 381 70 400 84 417 106 c 0
 432 128 441 154 441 190 c 0
 441 230 429 258 405 273 c 0
 380 290 348 302 309 314 c 1
EndSplineSet
EndChar
StartChar: percent
Encoding: 37 37 7
OldEncoding: 37
Width: 903
Flags: W
HStem: -21 72<700 702> 256 71<700 702> 350 70<188.401 220> 626 70<188.282 218>
VStem: 28 72<507.064 525> 308 70<507.64 525> 525 72<139.472 157> 801 72<154 156>
DStem: 618 720 688 720 218 -21 286 -21
Fore
618 720 m 1
 688 720 l 1
 286 -21 l 1
 218 -21 l 1
 618 720 l 1
28 522 m 0
 28 572 46 612 80 646 c 0
 116 680 156 696 204 696 c 0
 252 696 292 680 327 646 c 0
 362 612 378 572 378 522 c 0
 378 474 362 434 326 400 c 0
 291 366 250 350 204 350 c 0
 158 350 117 366 81 400 c 0
 46 434 28 474 28 522 c 0
525 154 m 0
 525 201 543 243 576 276 c 0
 610 310 651 327 700 327 c 0
 732 327 760 318 786 303 c 0
 813 288 834 268 849 240 c 0
 864 216 873 186 873 154 c 0
 873 105 856 64 822 30 c 0
 788 -3 747 -21 700 -21 c 0
 652 -21 612 -3 576 30 c 0
 543 64 525 105 525 154 c 0
100 522 m 0
 100 494 110 470 130 452 c 0
 152 430 174 420 204 420 c 0
 232 420 258 430 278 452 c 0
 297 470 308 494 308 522 c 0
 308 540 302 560 292 574 c 0
 285 590 272 603 256 612 c 0
 240 621 222 626 204 626 c 0
 174 626 152 616 130 597 c 0
 108 574 100 550 100 522 c 0
597 154 m 0
 597 126 608 100 627 81 c 0
 648 62 670 51 700 51 c 0
 729 51 753 62 772 81 c 0
 792 100 801 126 801 154 c 0
 801 183 792 207 771 225 c 0
 752 246 728 256 700 256 c 0
 670 256 648 246 627 225 c 0
 608 207 597 183 597 154 c 0
EndSplineSet
EndChar
StartChar: ampersand
Encoding: 38 38 8
OldEncoding: 38
Width: 678
Flags: W
HStem: -24 81<254 277> 0 21G<536 648> 319 20G<501 584> 651 71<289 312>
VStem: 52 88<166 186.043> 135 87<560 585> 393 85<564 569>
DStem: 262 340 336 386 426 138 470 220 472 75 522 154 536 0 648 0
Fore
648 0 m 1
 536 0 l 1
 472 75 l 1
 468 70 460 64 448 54 c 0
 438 42 426 34 414 26 c 0
 400 15 387 8 370 -2 c 1
 330 -16 291 -24 256 -24 c 0
 216 -24 180 -15 148 3 c 0
 88 39 54 92 52 165 c 0
 51 212 62 250 80 282 c 0
 99 312 126 340 160 364 c 2
 213 400 l 1
 180 448 l 2
 154 486 135 522 135 562 c 0
 135 615 159 662 208 693 c 0
 238 714 273 722 310 722 c 0
 356 722 394 706 426 678 c 0
 460 644 478 608 478 564 c 0
 478 536 470 508 453 483 c 0
 435 456 416 434 390 418 c 2
 336 386 l 1
 470 220 l 1
 492 264 501 303 501 339 c 1
 584 339 l 1
 584 312 576 282 564 246 c 0
 552 210 538 180 522 154 c 1
 648 0 l 1
382 609 m 0
 378 622 368 632 354 639 c 0
 340 648 324 651 304 651 c 0
 285 651 266 646 250 634 c 0
 236 622 226 608 222 585 c 1
 222 552 225 530 234 516 c 0
 243 501 261 480 288 447 c 1
 310 456 334 470 357 490 c 0
 381 510 393 536 393 564 c 0
 393 579 390 594 382 609 c 0
426 138 m 1
 262 340 l 1
 252 336 240 327 225 316 c 0
 210 308 196 296 184 284 c 0
 172 270 160 252 153 232 c 0
 144 212 140 190 140 166 c 1
 142 144 156 120 178 94 c 0
 200 69 232 57 272 57 c 0
 297 57 321 63 342 74 c 0
 364 81 392 104 426 138 c 1
EndSplineSet
EndChar
StartChar: quotesingle
Encoding: 39 39 9
OldEncoding: 39
Width: 181
VWidth: 2048
Flags: W
VStem: 45 85<625 741>
Fore
66 492 m 1
 45 626 l 1
 45 741 l 1
 130 741 l 5
 130 626 l 1
 108 492 l 1
 66 492 l 1
EndSplineSet
EndChar
StartChar: parenleft
Encoding: 40 40 10
OldEncoding: 40
Width: 339
Flags: W
VStem: 75 84<262 295>
Fore
238 741 m 1
 297 741 l 1
 248 657 212 576 192 494 c 0
 170 410 159 332 159 262 c 0
 159 194 170 117 192 34 c 0
 212 -50 248 -134 297 -218 c 1
 238 -218 l 1
 218 -186 195 -152 174 -112 c 0
 154 -75 135 -34 120 10 c 0
 105 54 94 99 87 141 c 0
 78 184 75 225 75 262 c 0
 75 318 82 375 96 432 c 0
 112 492 130 548 156 600 c 0
 182 654 208 702 238 741 c 1
EndSplineSet
EndChar
StartChar: parenright
Encoding: 41 41 11
OldEncoding: 41
Width: 339
Flags: W
VStem: 177 84<262 295>
Fore
39 741 m 1
 94 741 l 1
 128 699 154 652 180 600 c 0
 206 548 224 490 238 430 c 0
 255 370 261 315 261 262 c 0
 261 208 255 153 238 94 c 0
 224 36 206 -21 180 -74 c 0
 154 -126 128 -174 94 -218 c 1
 39 -218 l 1
 74 -160 100 -104 120 -44 c 0
 141 12 156 66 165 118 c 0
 172 171 177 219 177 262 c 0
 177 298 174 332 170 368 c 0
 165 404 158 441 147 482 c 0
 138 520 123 564 105 612 c 0
 84 660 63 702 39 741 c 1
EndSplineSet
EndChar
StartChar: asterisk
Encoding: 42 42 12
OldEncoding: 42
Width: 394
Flags: W
DStem: 148 586 195 555 80 496 129 460 162 753 225 753 166 639 222 639
Fore
40 618 m 1
 60 678 l 1
 166 639 l 1
 162 753 l 1
 225 753 l 1
 222 639 l 1
 327 676 l 1
 350 614 l 1
 238 586 l 1
 308 495 l 1
 258 459 l 1
 195 555 l 1
 129 460 l 1
 80 496 l 1
 148 586 l 1
 40 618 l 1
EndSplineSet
EndChar
StartChar: plus
Encoding: 43 43 13
OldEncoding: 43
Width: 592
Flags: W
HStem: 328 72<51 261 332 543>
VStem: 261 71<118 328 400 610>
Fore
261 610 m 5
 332 610 l 5
 332 400 l 5
 543 400 l 5
 543 328 l 5
 332 328 l 5
 332 118 l 5
 261 118 l 5
 261 328 l 5
 51 328 l 5
 51 400 l 5
 261 400 l 5
 261 610 l 5
EndSplineSet
EndChar
StartChar: comma
Encoding: 44 44 14
OldEncoding: 44
Width: 282
Flags: W
Fore
216 51 m 0
 216 4 201 -32 174 -57 c 0
 146 -82 117 -96 84 -102 c 0
 69 -102 62 -99 62 -93 c 0
 62 -92 63 -88 66 -84 c 1
 81 -80 99 -69 120 -56 c 0
 142 -42 154 -26 158 -3 c 1
 154 -4 148 -4 144 -8 c 0
 140 -9 132 -10 126 -10 c 0
 80 -4 57 18 57 62 c 0
 57 81 64 99 76 112 c 0
 88 126 105 132 128 132 c 0
 183 132 213 105 216 51 c 0
EndSplineSet
EndChar
StartChar: hyphen
Encoding: 45 45 15
OldEncoding: 45
Width: 339
Flags: W
HStem: 244 74<48 288>
Fore
288 318 m 1
 288 244 l 1
 48 244 l 1
 48 318 l 1
 288 318 l 1
EndSplineSet
EndChar
StartChar: period
Encoding: 46 46 16
OldEncoding: 46
Width: 282
Flags: W
Fore
54 78 m 0
 54 96 62 114 76 129 c 0
 92 144 108 152 128 152 c 0
 140 152 152 147 162 141 c 0
 174 134 183 126 190 114 c 0
 196 102 200 90 200 78 c 0
 200 60 194 42 178 27 c 0
 165 12 147 4 128 4 c 0
 108 4 92 12 76 27 c 0
 62 42 54 60 54 78 c 0
EndSplineSet
EndChar
StartChar: slash
Encoding: 47 47 17
OldEncoding: 47
Width: 282
Flags: W
HStem: -22 21G<-9 48>
DStem: 232 720 288 720 -9 -22 48 -22
Fore
-9 -22 m 1
 232 720 l 1
 288 720 l 1
 48 -22 l 1
 -9 -22 l 1
EndSplineSet
EndChar
StartChar: zero
Encoding: 48 48 18
OldEncoding: 48
Width: 580
Flags: W
HStem: -26 88<271.492 302> 651 90<270.222 302>
VStem: 45 87<341 375> 441 89<325 391>
Fore
286 -26 m 0
 250 -26 216 -16 183 2 c 0
 147 20 122 50 98 86 c 0
 80 120 66 162 58 214 c 0
 50 266 45 312 45 360 c 0
 45 405 50 453 58 504 c 0
 66 555 80 598 98 633 c 1
 122 668 147 694 183 714 c 0
 216 732 250 741 286 741 c 0
 327 741 362 732 396 714 c 0
 429 694 456 668 476 633 c 0
 510 573 530 483 530 360 c 0
 530 236 510 146 476 86 c 0
 456 50 429 20 394 2 c 0
 360 -16 326 -26 286 -26 c 0
286 62 m 0
 338 62 380 86 406 138 c 0
 412 147 420 164 424 188 c 0
 429 208 432 236 435 267 c 0
 440 297 441 328 441 357 c 0
 441 382 440 414 435 447 c 0
 432 477 429 504 424 526 c 0
 420 550 412 567 406 578 c 0
 380 628 338 651 286 651 c 0
 266 651 242 646 222 633 c 0
 201 621 183 603 170 578 c 0
 159 560 153 530 144 484 c 0
 138 440 132 396 132 357 c 0
 132 318 138 274 144 231 c 0
 148 188 158 156 170 138 c 0
 183 112 200 94 222 81 c 0
 243 68 266 62 286 62 c 0
EndSplineSet
EndChar
StartChar: one
Encoding: 49 49 19
OldEncoding: 49
Width: 580
Flags: W
HStem: 0 21G<274 363>
VStem: 274 89<0 741>
Fore
363 0 m 1
 274 0 l 1
 274 522 l 1
 106 522 l 1
 106 596 l 1
 158 602 194 610 218 616 c 0
 240 626 254 638 266 654 c 0
 274 672 286 699 302 741 c 1
 363 741 l 5
 363 0 l 1
EndSplineSet
EndChar
StartChar: two
Encoding: 50 50 20
OldEncoding: 50
Width: 580
Flags: W
HStem: 0 86<132 530> 660 81<294 312>
VStem: 441 95<510 519>
Fore
388 303 m 2
 266 240 l 2
 242 226 214 207 183 176 c 0
 148 146 132 116 132 86 c 1
 530 86 l 1
 530 0 l 1
 34 0 l 1
 42 60 50 102 57 130 c 0
 63 158 80 188 106 218 c 0
 130 249 172 282 226 312 c 2
 340 375 l 2
 405 410 440 458 441 512 c 0
 442 543 432 572 420 596 c 0
 405 616 386 633 363 645 c 0
 340 654 316 660 294 660 c 0
 240 658 201 642 178 612 c 0
 156 580 144 538 141 484 c 1
 51 484 l 1
 52 532 62 572 72 606 c 0
 81 640 102 668 138 692 c 1
 162 711 188 724 214 729 c 0
 240 736 273 741 312 741 c 0
 372 738 422 723 459 690 c 0
 495 657 519 615 530 567 c 0
 534 548 536 532 536 519 c 0
 536 474 520 432 490 394 c 0
 459 354 424 321 388 303 c 2
EndSplineSet
EndChar
StartChar: three
Encoding: 51 51 21
OldEncoding: 51
Width: 580
Flags: W
HStem: -26 86<254 284> 320 20G<265 300.5> 501 240<138 274> 658 83<266 290>
VStem: 51 87<501 527.618> 412 95<530 551> 435 95<206 219>
Fore
33 216 m 1
 122 216 l 1
 123 207 124 194 128 176 c 0
 129 159 132 144 141 124 c 0
 148 106 162 93 180 81 c 1
 200 68 224 60 254 60 c 0
 375 58 438 111 435 216 c 0
 435 262 420 294 392 312 c 0
 364 330 327 340 274 340 c 0
 256 340 242 340 232 338 c 1
 232 420 l 1
 297 422 345 429 372 442 c 0
 398 458 414 490 412 542 c 0
 412 588 396 621 369 636 c 0
 344 650 309 658 266 658 c 1
 234 651 208 645 190 632 c 0
 172 620 159 604 154 590 c 0
 146 573 141 556 140 538 c 0
 138 520 138 508 138 501 c 1
 51 502 l 1
 51 579 69 636 110 680 c 0
 147 720 204 741 274 741 c 0
 318 741 357 732 392 718 c 0
 426 704 456 680 476 648 c 0
 495 615 507 578 507 530 c 0
 507 492 500 464 484 444 c 0
 468 424 444 405 420 382 c 1
 460 364 490 340 504 314 c 0
 519 286 530 250 530 206 c 0
 532 158 516 116 492 80 c 0
 468 42 432 12 382 -3 c 0
 346 -16 314 -22 284 -26 c 0
 252 -26 231 -20 216 -18 c 0
 153 -3 110 20 81 62 c 0
 57 102 38 154 33 216 c 1
EndSplineSet
EndChar
StartChar: four
Encoding: 52 52 22
OldEncoding: 52
Width: 580
Flags: W
HStem: 0 21G<348 435> 174 87<111 348 435 543>
VStem: 348 87<0 174 261 741>
DStem: 366 741 348 594 28 273 111 261
Fore
348 174 m 1
 28 174 l 1
 28 273 l 1
 366 741 l 1
 435 741 l 1
 435 261 l 1
 543 261 l 1
 543 174 l 1
 435 174 l 1
 435 0 l 1
 348 0 l 1
 348 174 l 1
348 261 m 1
 348 594 l 1
 111 261 l 1
 348 261 l 1
EndSplineSet
EndChar
StartChar: five
Encoding: 53 53 23
OldEncoding: 53
Width: 580
Flags: W
HStem: -26 89<275 300> 336 21G<60 144> 400 88<275 302> 650 91<116 501>
VStem: 435 102<204 234>
DStem: 116 741 190 650 60 336 159 444
Fore
144 336 m 1
 60 336 l 1
 116 741 l 1
 501 741 l 1
 501 650 l 1
 190 650 l 1
 159 444 l 1
 194 474 238 488 291 488 c 0
 328 488 362 483 390 472 c 0
 488 435 538 354 537 232 c 0
 536 178 519 132 495 94 c 0
 474 58 442 28 406 9 c 0
 378 -6 344 -16 300 -26 c 1
 262 -26 226 -20 196 -12 c 0
 162 -2 132 15 111 34 c 0
 88 52 75 69 66 88 c 0
 57 106 50 124 45 144 c 0
 42 162 38 174 36 180 c 1
 130 180 l 1
 141 148 158 123 180 98 c 0
 204 76 240 63 296 63 c 1
 380 75 426 120 435 204 c 1
 435 270 423 321 392 354 c 0
 363 386 327 400 284 400 c 0
 231 400 183 380 144 336 c 1
EndSplineSet
EndChar
StartChar: six
Encoding: 54 54 24
OldEncoding: 54
Width: 580
Flags: W
HStem: -26 83<284 296> 380 80<284 318> 657 84<307 330>
VStem: 45 84<378 414> 444 93<197 231>
Fore
520 548 m 1
 430 548 l 1
 430 573 423 598 405 616 c 0
 386 636 362 650 330 657 c 1
 252 657 200 624 170 560 c 0
 141 502 129 448 129 400 c 0
 129 392 130 382 132 375 c 1
 148 390 162 400 172 412 c 0
 183 423 192 430 207 438 c 0
 222 444 236 452 250 456 c 0
 266 459 284 460 309 460 c 0
 348 460 386 453 416 438 c 0
 447 422 474 398 492 372 c 0
 510 345 525 316 530 285 c 1
 536 268 537 249 537 225 c 0
 537 204 536 183 530 170 c 1
 522 129 508 96 486 69 c 0
 459 36 432 12 406 -2 c 0
 378 -16 338 -26 291 -26 c 0
 254 -26 219 -16 188 0 c 0
 154 15 129 36 112 63 c 1
 81 105 63 147 57 194 c 0
 50 240 45 302 45 378 c 0
 45 438 52 494 69 546 c 0
 93 614 124 663 171 693 c 0
 214 724 261 741 312 741 c 0
 366 741 414 723 453 688 c 0
 474 668 490 648 501 628 c 0
 510 610 518 582 520 548 c 1
420 122 m 0
 438 146 444 176 444 214 c 0
 444 252 435 291 412 330 c 0
 392 363 352 380 296 380 c 0
 273 380 252 375 232 364 c 0
 208 354 192 344 180 328 c 0
 154 302 141 268 141 225 c 0
 141 188 154 148 176 116 c 0
 206 78 243 57 296 57 c 0
 348 52 390 78 420 122 c 0
EndSplineSet
EndChar
StartChar: seven
Encoding: 55 55 25
OldEncoding: 55
Width: 580
Flags: W
HStem: 0 21G<144 242> 654 87<50 447>
Fore
50 654 m 1
 50 741 l 1
 543 741 l 1
 543 663 l 1
 460 546 l 2
 430 502 399 447 364 380 c 0
 309 268 266 141 242 0 c 1
 144 0 l 1
 166 94 188 164 204 208 c 0
 218 252 243 304 279 372 c 0
 303 414 336 470 375 537 c 0
 414 603 440 642 447 654 c 1
 50 654 l 1
EndSplineSet
EndChar
StartChar: eight
Encoding: 56 56 26
OldEncoding: 56
Width: 580
Flags: W
HStem: 348 78<265 282> 660 81<272 299>
VStem: 66 92<543 551> 420 90<543 551> 441 96<188 203>
Fore
144 698 m 0
 183 726 226 741 279 741 c 0
 338 741 394 728 441 698 c 0
 464 682 478 658 492 630 c 0
 504 602 510 572 510 543 c 0
 510 502 501 472 483 452 c 1
 468 430 444 410 416 390 c 1
 440 386 466 364 494 328 c 0
 522 291 537 243 537 188 c 1
 530 122 500 68 444 26 c 1
 396 -9 340 -27 278 -26 c 0
 248 -26 216 -16 184 -6 c 0
 154 3 129 20 106 42 c 0
 63 78 44 128 42 188 c 0
 38 248 52 291 76 318 c 1
 84 336 111 362 158 390 c 1
 140 405 128 412 122 420 c 0
 114 424 106 430 100 440 c 0
 94 447 88 456 81 466 c 0
 72 488 66 516 66 543 c 0
 66 606 93 658 144 698 c 0
375 633 m 0
 354 651 327 660 288 660 c 0
 249 660 218 650 194 630 c 0
 171 610 158 580 158 543 c 0
 158 532 158 516 166 495 c 0
 183 453 219 426 274 426 c 0
 332 424 372 441 394 472 c 0
 410 494 420 519 420 543 c 0
 420 580 405 612 375 633 c 0
410 296 m 0
 380 330 336 351 282 348 c 0
 226 348 188 328 159 294 c 0
 141 268 132 236 132 196 c 0
 138 154 148 124 171 106 c 1
 189 86 224 72 274 62 c 1
 312 63 346 72 378 86 c 1
 422 114 441 154 441 201 c 0
 441 224 440 242 432 256 c 0
 426 273 422 285 410 296 c 0
EndSplineSet
EndChar
StartChar: nine
Encoding: 57 57 27
OldEncoding: 57
Width: 580
Flags: W
HStem: -26 89<250 279> 252 78<282 304> 657 84<265 299>
VStem: 42 88<484 502> 447 85<309 366>
Fore
52 164 m 1
 146 164 l 1
 146 140 156 116 176 98 c 0
 196 80 222 68 250 63 c 1
 327 63 380 93 408 153 c 0
 420 176 426 204 435 234 c 0
 441 262 447 288 447 312 c 0
 447 318 444 328 442 338 c 1
 422 310 394 286 363 270 c 0
 348 262 328 256 304 252 c 1
 273 252 248 254 225 256 c 0
 176 262 138 284 106 316 c 0
 76 346 57 382 45 426 c 0
 44 441 42 460 42 488 c 0
 42 502 44 522 45 550 c 1
 52 588 68 620 90 646 c 0
 120 681 146 706 172 720 c 0
 200 732 236 741 285 741 c 0
 366 742 426 710 466 650 c 0
 500 603 519 532 530 435 c 0
 532 422 532 398 532 366 c 0
 532 336 532 314 530 300 c 0
 526 258 519 216 507 170 c 0
 488 100 452 46 399 16 c 0
 363 -6 321 -18 279 -26 c 1
 240 -26 208 -20 184 -15 c 0
 159 -6 138 6 116 26 c 0
 78 63 58 111 52 164 c 1
158 596 m 0
 140 570 130 537 130 500 c 0
 130 459 141 422 164 382 c 0
 188 348 225 328 282 330 c 0
 304 330 328 338 348 348 c 0
 369 360 386 372 396 386 c 1
 423 412 435 444 435 486 c 0
 435 526 423 564 399 598 c 0
 390 615 374 630 351 640 c 0
 330 650 309 657 284 657 c 0
 226 657 188 636 158 596 c 0
EndSplineSet
EndChar
StartChar: colon
Encoding: 58 58 28
OldEncoding: 58
Width: 282
Flags: W
HStem: 12 146<147 156> 440 145<147 156>
Fore
75 84 m 0
 75 104 81 120 96 135 c 0
 112 152 129 158 147 158 c 0
 160 158 172 154 183 147 c 0
 195 142 204 132 210 120 c 0
 218 108 220 96 220 84 c 0
 220 66 213 50 198 34 c 0
 183 18 166 12 147 12 c 0
 129 12 112 18 96 34 c 0
 81 50 75 66 75 84 c 0
75 512 m 0
 75 531 81 549 96 564 c 0
 112 578 129 585 147 585 c 0
 168 585 184 578 200 564 c 1
 213 549 220 531 220 512 c 0
 220 494 213 477 198 460 c 0
 183 446 166 440 147 440 c 0
 129 440 112 446 96 460 c 0
 81 477 75 494 75 512 c 0
EndSplineSet
EndChar
StartChar: semicolon
Encoding: 59 59 29
OldEncoding: 59
Width: 282
Flags: W
HStem: -10 142<132 145> 432 146<120 130>
Fore
222 51 m 0
 222 4 208 -32 180 -57 c 0
 153 -82 123 -96 92 -102 c 0
 76 -102 68 -99 68 -93 c 0
 68 -92 69 -88 74 -84 c 1
 88 -80 105 -69 128 -56 c 0
 148 -42 162 -26 165 -3 c 1
 160 -4 156 -4 152 -8 c 0
 144 -9 138 -10 132 -10 c 0
 87 -4 64 18 64 62 c 0
 64 81 70 99 82 112 c 0
 94 126 112 132 134 132 c 0
 190 132 220 105 222 51 c 0
48 506 m 0
 48 524 54 540 69 556 c 0
 84 572 102 578 120 578 c 0
 132 578 144 574 156 568 c 0
 168 561 178 552 183 540 c 0
 190 531 194 519 194 506 c 0
 194 486 186 470 171 454 c 0
 156 440 140 432 120 432 c 0
 102 432 84 440 69 454 c 0
 54 470 48 486 48 506 c 0
EndSplineSet
EndChar
StartChar: less
Encoding: 60 60 30
OldEncoding: 60
Width: 592
Flags: W
DStem: 46 330 141 366 543 120 543 201 543 612 543 531 46 402 141 366
Fore
543 612 m 5
 543 531 l 5
 141 366 l 5
 543 201 l 5
 543 120 l 5
 46 330 l 5
 46 402 l 5
 543 612 l 5
EndSplineSet
EndChar
StartChar: equal
Encoding: 61 61 31
OldEncoding: 61
Width: 592
Flags: W
HStem: 243 71<51 543> 416 70<51 543>
Fore
51 486 m 5
 543 486 l 5
 543 416 l 5
 51 416 l 5
 51 486 l 5
51 314 m 5
 543 314 l 5
 543 243 l 5
 51 243 l 5
 51 314 l 5
EndSplineSet
EndChar
StartChar: greater
Encoding: 62 62 32
OldEncoding: 62
Width: 592
Flags: W
DStem: 51 531 51 612 448 366 548 402 448 366 548 330 51 201 51 120
Fore
548 402 m 5
 548 330 l 5
 51 120 l 5
 51 201 l 5
 448 366 l 5
 51 531 l 5
 51 612 l 5
 548 402 l 5
EndSplineSet
EndChar
StartChar: question
Encoding: 63 63 33
OldEncoding: 63
Width: 565
Flags: W
HStem: 0 21G<244 338> 674 78<285 319>
VStem: 78 92<512 550> 244 94<0 105 198 262> 426 92<548 563>
Fore
338 198 m 1
 244 198 l 1
 244 260 l 2
 244 288 252 315 272 339 c 0
 290 364 310 387 334 408 c 0
 346 418 354 428 363 435 c 0
 388 460 l 0
 396 471 402 482 406 490 c 0
 418 518 426 540 426 561 c 0
 426 584 420 602 410 618 c 0
 399 636 386 650 366 660 c 0
 348 668 326 674 302 674 c 0
 270 674 243 666 224 654 c 0
 204 642 190 626 182 608 c 0
 172 588 170 570 170 550 c 0
 168 532 168 520 166 512 c 1
 78 512 l 1
 78 556 84 597 100 632 c 0
 114 668 138 694 172 717 c 0
 207 740 250 752 308 752 c 0
 322 752 334 752 342 748 c 0
 387 744 422 730 447 708 c 0
 472 688 492 664 501 638 c 0
 512 610 518 584 518 556 c 0
 518 532 513 510 507 488 c 0
 498 456 460 410 394 351 c 0
 378 336 364 322 354 308 c 0
 342 291 338 272 338 246 c 2
 338 198 l 1
244 0 m 1
 244 105 l 1
 338 105 l 1
 338 0 l 1
 244 0 l 1
EndSplineSet
EndChar
StartChar: at
Encoding: 64 64 34
OldEncoding: 64
Width: 1032
Flags: W
HStem: -148 74<481 528> 54 72<692 718> 60 63<429 459> 456 75<513 534> 674 74<522 560>
VStem: 34 88<266 288> 266 94<244 253>
Fore
760 507 m 1
 663 201 l 2
 657 186 656 177 656 171 c 0
 656 162 660 153 664 144 c 0
 674 132 692 126 718 126 c 1
 747 132 772 144 795 162 c 0
 818 182 834 200 846 220 c 0
 873 268 886 326 886 393 c 1
 882 420 872 448 856 482 c 0
 840 513 824 538 806 558 c 0
 786 578 754 600 712 622 c 0
 669 644 627 660 584 668 c 0
 562 670 543 674 522 674 c 0
 477 674 432 664 390 648 c 0
 348 630 312 609 279 584 c 0
 243 552 212 518 186 478 c 0
 160 440 144 405 135 376 c 0
 128 344 122 312 122 282 c 0
 122 225 134 171 158 120 c 0
 172 88 200 57 236 28 c 0
 272 -2 312 -28 362 -50 c 0
 404 -66 447 -74 496 -74 c 0
 558 -74 624 -62 696 -38 c 1
 726 -105 l 1
 646 -134 570 -148 495 -148 c 0
 441 -148 387 -141 334 -123 c 0
 296 -110 248 -84 194 -48 c 0
 140 -10 100 32 76 80 c 0
 48 135 34 198 34 268 c 0
 34 308 39 340 48 369 c 0
 63 418 84 470 114 519 c 0
 144 568 184 612 236 650 c 0
 261 668 291 687 326 702 c 0
 362 717 399 729 438 738 c 0
 477 746 518 752 560 748 c 0
 610 747 666 732 729 706 c 0
 790 681 837 646 876 603 c 0
 900 576 924 546 939 508 c 0
 956 470 966 434 966 399 c 0
 968 351 963 314 954 286 c 0
 946 261 934 232 918 204 c 0
 904 178 886 152 862 123 c 0
 838 99 807 76 768 64 c 0
 742 56 717 54 692 54 c 0
 669 54 652 56 642 60 c 0
 624 64 609 75 597 90 c 0
 585 104 578 117 576 130 c 1
 556 110 l 0
 549 102 540 94 530 88 c 0
 518 80 501 74 483 68 c 0
 468 63 448 60 429 60 c 0
 408 60 390 63 374 69 c 0
 344 81 324 96 312 114 c 0
 300 129 288 148 278 172 c 0
 270 195 266 219 266 244 c 0
 266 266 268 285 273 303 c 0
 291 376 328 440 390 483 c 0
 435 518 483 531 530 531 c 0
 543 531 555 530 566 525 c 0
 588 519 608 507 624 490 c 0
 639 471 650 454 654 440 c 1
 676 507 l 1
 760 507 l 1
616 382 m 0
 615 402 610 417 602 428 c 0
 594 438 578 446 556 452 c 0
 548 454 537 456 525 456 c 0
 501 456 478 448 456 435 c 0
 435 422 418 406 405 388 c 0
 392 369 381 346 374 318 c 0
 364 292 360 268 360 244 c 0
 360 213 368 186 387 162 c 0
 405 138 430 123 459 123 c 0
 468 123 477 126 484 128 c 0
 513 135 540 156 562 192 c 1
 578 212 588 240 600 279 c 0
 610 316 616 351 616 382 c 0
EndSplineSet
EndChar
StartChar: A
Encoding: 65 65 35
OldEncoding: 65
Width: 678
Flags: W
HStem: 0 21G<16 118 558 664> 222 80<224 482>
DStem: 286 741 344 626 16 0 224 302 286 741 198 222 16 0 118 0 344 626 404 741 454 302 664 0 482 222 404 741 558 0 664 0
Fore
198 222 m 1
 118 0 l 1
 16 0 l 1
 286 741 l 1
 404 741 l 1
 664 0 l 1
 558 0 l 1
 482 222 l 1
 198 222 l 1
344 626 m 1
 224 302 l 1
 454 302 l 1
 344 626 l 1
EndSplineSet
EndChar
StartChar: B
Encoding: 66 66 36
OldEncoding: 66
Width: 678
Flags: W
HStem: 0 84<177 446> 339 84<177 385> 657 84<80 369>
VStem: 80 97<0 339 0 657> 504 96<559 578> 538 96<200 234>
Fore
446 0 m 2
 80 0 l 1
 80 741 l 1
 408 741 l 2
 434 741 460 735 486 724 c 0
 512 712 532 699 550 680 c 0
 578 654 596 621 600 578 c 1
 600 482 570 420 507 393 c 1
 519 388 531 382 543 376 c 0
 555 369 568 360 582 346 c 0
 596 332 609 314 618 290 c 0
 630 264 634 236 634 200 c 0
 632 156 621 118 598 90 c 0
 576 62 550 39 522 24 c 0
 494 9 468 0 446 0 c 2
177 657 m 1
 177 423 l 1
 374 423 l 2
 422 423 458 435 477 459 c 0
 495 484 504 519 504 561 c 1
 498 597 478 622 442 638 c 0
 406 651 375 657 350 657 c 2
 177 657 l 1
177 339 m 1
 177 84 l 1
 416 84 l 2
 458 84 490 99 508 128 c 0
 530 156 538 192 538 234 c 1
 534 276 518 303 488 318 c 0
 459 332 417 339 363 339 c 2
 177 339 l 1
EndSplineSet
EndChar
StartChar: C
Encoding: 67 67 37
OldEncoding: 67
Width: 733
Flags: W
HStem: -24 87<369 387> 668 86<369 387>
VStem: 50 96<364 393>
Fore
675 512 m 1
 576 512 l 1
 562 548 548 574 531 597 c 0
 519 612 504 626 486 636 c 0
 468 648 452 656 434 662 c 0
 417 666 399 668 378 668 c 0
 348 668 318 662 290 650 c 0
 261 638 237 621 218 597 c 0
 195 570 177 536 165 495 c 0
 153 453 146 408 146 364 c 0
 146 321 154 278 166 237 c 0
 180 195 195 160 218 134 c 0
 256 87 309 63 378 63 c 0
 442 63 494 87 531 134 c 0
 543 148 555 170 566 195 c 0
 578 220 586 246 591 272 c 1
 688 272 l 1
 674 182 638 108 578 52 c 0
 560 36 532 18 494 2 c 0
 454 -15 414 -24 374 -24 c 0
 330 -24 291 -15 252 2 c 0
 213 16 184 34 166 52 c 0
 126 92 94 140 76 195 c 0
 57 250 50 308 50 364 c 0
 50 423 57 480 76 536 c 0
 94 591 126 639 166 678 c 0
 184 696 213 714 252 729 c 0
 291 744 330 754 374 754 c 0
 414 754 454 744 494 729 c 0
 532 714 560 696 578 678 c 0
 621 639 652 584 675 512 c 1
EndSplineSet
EndChar
StartChar: D
Encoding: 68 68 38
OldEncoding: 68
Width: 733
Flags: W
HStem: 0 84<186 429> 657 84<90 378>
VStem: 90 96<0 657> 584 94<368 410.872>
Fore
429 0 m 2
 90 0 l 1
 90 741 l 1
 376 741 l 2
 456 741 524 714 579 662 c 0
 636 608 668 532 675 440 c 0
 678 405 678 381 678 368 c 0
 678 261 652 174 600 110 c 0
 572 74 540 46 508 28 c 0
 477 10 452 0 429 0 c 2
368 657 m 2
 186 657 l 1
 186 84 l 1
 393 84 l 2
 418 84 444 90 470 100 c 0
 484 106 504 123 524 148 c 0
 546 177 556 198 561 218 c 0
 573 268 582 318 584 368 c 0
 585 453 570 518 543 562 c 0
 504 626 446 657 368 657 c 2
EndSplineSet
EndChar
StartChar: E
Encoding: 69 69 39
OldEncoding: 69
Width: 678
Flags: W
HStem: 0 84<186 624> 339 84<186 590> 657 84<92 608>
VStem: 92 94<0 339 0 657>
Fore
92 0 m 1
 92 741 l 1
 608 741 l 1
 608 657 l 1
 186 657 l 1
 186 423 l 1
 590 423 l 1
 590 339 l 1
 186 339 l 1
 186 84 l 1
 624 84 l 1
 624 0 l 1
 92 0 l 1
EndSplineSet
EndChar
StartChar: F
Encoding: 70 70 40
OldEncoding: 70
Width: 621
Flags: W
HStem: 0 21G<92 186> 339 84<186 538> 657 84<92 588>
VStem: 92 94<0 339 0 657>
Fore
92 0 m 1
 92 741 l 1
 588 741 l 1
 588 657 l 1
 186 657 l 1
 186 423 l 1
 538 423 l 1
 538 339 l 1
 186 339 l 1
 186 0 l 1
 92 0 l 1
EndSplineSet
EndChar
StartChar: G
Encoding: 71 71 41
OldEncoding: 71
Width: 790
Flags: W
HStem: -24 84<376 412> -3 21G<660 720> 309 84<410 636>
VStem: 44 97<363 388.018> 636 84<248.766 309>
Fore
410 309 m 1
 410 393 l 1
 720 393 l 1
 720 -3 l 1
 660 -3 l 1
 638 88 l 1
 596 51 556 22 522 3 c 0
 488 -15 440 -24 376 -24 c 0
 342 -24 304 -15 266 0 c 0
 226 15 196 30 174 48 c 0
 129 87 96 135 75 192 c 0
 54 248 42 304 44 363 c 0
 44 400 51 438 60 474 c 0
 68 512 81 549 100 585 c 0
 118 621 144 651 174 678 c 0
 196 696 226 714 270 729 c 0
 312 744 356 754 404 754 c 0
 471 756 524 744 561 724 c 0
 616 694 654 663 675 627 c 0
 694 591 706 556 712 518 c 1
 618 518 l 1
 616 552 597 588 558 621 c 0
 519 652 466 668 404 668 c 0
 369 668 336 662 303 650 c 0
 272 638 244 621 222 597 c 0
 196 572 178 537 162 495 c 0
 147 453 141 408 141 363 c 0
 141 318 147 276 162 234 c 0
 178 192 196 158 222 130 c 0
 268 82 327 60 404 60 c 0
 456 60 498 70 532 94 c 0
 560 114 579 132 596 153 c 0
 610 171 621 192 626 212 c 0
 632 231 636 248 636 262 c 0
 636 276 636 291 636 309 c 1
 410 309 l 1
EndSplineSet
EndChar
StartChar: H
Encoding: 72 72 42
OldEncoding: 72
Width: 733
Flags: W
HStem: 339 84<180 560>
VStem: 84 96<0 339 0 741> 560 94<0 741>
Fore
560 0 m 1
 560 339 l 1
 180 339 l 1
 180 0 l 1
 84 0 l 1
 84 741 l 1
 180 741 l 1
 180 423 l 1
 560 423 l 1
 560 741 l 1
 654 741 l 1
 654 0 l 1
 560 0 l 1
EndSplineSet
EndChar
StartChar: I
Encoding: 73 73 43
OldEncoding: 73
Width: 282
Flags: W
HStem: 0 21G<102 196>
VStem: 102 94<0 741>
Fore
102 0 m 1
 102 741 l 1
 196 741 l 5
 196 0 l 1
 102 0 l 1
EndSplineSet
EndChar
StartChar: J
Encoding: 74 74 44
OldEncoding: 74
Width: 508
Flags: W
VStem: 16 98<151 236> 338 96<215 741>
Fore
16 236 m 1
 114 236 l 1
 114 160 l 2
 114 135 120 114 135 96 c 0
 148 80 168 68 190 63 c 0
 201 62 212 60 218 60 c 0
 256 60 288 75 312 104 c 0
 328 123 338 168 338 237 c 2
 338 741 l 1
 434 741 l 1
 434 154 l 1
 423 88 393 38 340 3 c 0
 312 -15 264 -26 196 -24 c 0
 134 -22 88 2 60 40 c 0
 30 81 16 120 16 158 c 2
 16 236 l 1
EndSplineSet
EndChar
StartChar: K
Encoding: 75 75 45
OldEncoding: 75
Width: 678
Flags: W
HStem: 0 21G<80 177 556 666>
VStem: 80 97<0 252 0 741>
DStem: 298 374 363 440 556 0 666 0 544 741 669 741 177 375 363 440
Fore
80 741 m 1
 177 741 l 1
 177 375 l 1
 544 741 l 1
 669 741 l 1
 363 440 l 1
 666 0 l 1
 556 0 l 1
 298 374 l 1
 177 252 l 1
 177 0 l 1
 80 0 l 1
 80 741 l 1
EndSplineSet
EndChar
StartChar: L
Encoding: 76 76 46
OldEncoding: 76
Width: 565
Flags: W
HStem: 0 84<176 543>
VStem: 81 96<0 741>
Fore
81 741 m 1
 177 741 l 1
 177 84 l 1
 543 84 l 1
 543 0 l 1
 81 0 l 1
 81 741 l 1
EndSplineSet
EndChar
StartChar: M
Encoding: 77 77 47
OldEncoding: 77
Width: 847
Flags: W
HStem: 0 21G<76 174 376 474 676 774>
VStem: 76 98<0 602> 676 98<0 741>
DStem: 174 602 212 741 376 0 426 110 639 741 676 602 426 110 474 0
Fore
474 0 m 1
 376 0 l 1
 174 602 l 1
 174 0 l 1
 76 0 l 1
 76 741 l 1
 212 741 l 1
 426 110 l 1
 639 741 l 1
 774 741 l 1
 774 0 l 1
 676 0 l 1
 676 602 l 1
 474 0 l 1
EndSplineSet
EndChar
StartChar: N
Encoding: 78 78 48
OldEncoding: 78
Width: 733
Flags: W
HStem: 0 21G<78 172 548 657>
VStem: 78 94<0 594> 561 96<141 741>
DStem: 172 594 190 741 548 0 561 141
Fore
657 0 m 1
 548 0 l 1
 172 594 l 1
 172 0 l 1
 78 0 l 1
 78 741 l 1
 190 741 l 1
 561 141 l 1
 561 741 l 1
 657 741 l 1
 657 0 l 1
EndSplineSet
EndChar
StartChar: O
Encoding: 79 79 49
OldEncoding: 79
Width: 790
Flags: W
HStem: -24 87<396 408> 668 86<396 408>
VStem: 39 96<364 377> 657 97<364 393>
Fore
396 754 m 0
 442 754 488 744 531 729 c 0
 573 714 604 696 624 678 c 0
 668 639 700 591 722 536 c 0
 744 480 754 423 754 364 c 0
 754 308 744 250 722 195 c 0
 702 140 669 92 624 52 c 0
 604 36 573 18 531 2 c 0
 488 -15 442 -24 396 -24 c 0
 351 -24 308 -15 264 2 c 0
 222 16 192 34 170 52 c 0
 123 92 92 140 70 195 c 0
 50 250 39 308 39 364 c 0
 39 400 44 438 52 477 c 0
 62 516 75 552 94 588 c 0
 114 622 141 652 170 678 c 0
 192 696 222 714 264 729 c 0
 308 744 351 754 396 754 c 0
396 668 m 0
 363 668 330 662 298 650 c 0
 266 638 238 621 218 597 c 0
 192 572 172 537 158 495 c 0
 144 454 135 410 135 364 c 0
 135 318 142 276 158 236 c 0
 171 195 192 160 218 134 c 0
 261 87 321 63 396 63 c 0
 472 63 532 87 576 134 c 0
 602 159 621 194 636 236 c 0
 650 276 657 318 657 364 c 0
 657 410 650 454 636 495 c 0
 621 537 602 572 576 597 c 0
 555 618 530 638 496 650 c 0
 465 662 432 668 396 668 c 0
EndSplineSet
EndChar
StartChar: P
Encoding: 80 80 50
OldEncoding: 80
Width: 678
Flags: W
HStem: 0 21G<93 188> 314 85<188 436> 657 84<93 414>
VStem: 93 95<0 314 0 657> 531 96<511 545>
Fore
93 0 m 1
 93 741 l 1
 404 741 l 2
 459 741 508 728 550 700 c 0
 594 674 616 627 626 561 c 0
 627 552 627 538 627 524 c 0
 627 456 608 404 564 368 c 0
 522 332 480 314 434 314 c 2
 188 314 l 1
 188 0 l 1
 93 0 l 1
188 657 m 1
 188 399 l 1
 430 399 l 2
 448 399 470 410 495 432 c 0
 519 454 532 488 531 536 c 0
 530 582 512 612 484 630 c 0
 459 650 430 657 402 657 c 2
 188 657 l 1
EndSplineSet
EndChar
StartChar: Q
Encoding: 81 81 51
OldEncoding: 81
Width: 790
Flags: W
HStem: 668 86<396 408>
VStem: 39 96<364 389> 657 97<364 389>
DStem: 441 152 486 208 516 90 579 134 591 27 650 78 696 -60 746 0
Fore
650 78 m 1
 746 0 l 1
 696 -60 l 1
 591 27 l 1
 530 -4 462 -22 396 -24 c 0
 351 -24 308 -15 264 2 c 0
 222 16 192 34 170 52 c 0
 123 92 92 140 70 195 c 0
 50 250 39 308 39 364 c 0
 39 400 44 438 52 477 c 0
 62 516 75 552 94 588 c 0
 114 622 141 652 170 678 c 0
 192 696 222 714 264 729 c 0
 308 744 351 754 396 754 c 0
 442 754 488 744 531 729 c 0
 573 714 604 696 624 678 c 0
 668 639 700 591 722 536 c 0
 744 480 754 423 754 364 c 0
 754 312 746 260 729 208 c 0
 712 158 686 114 650 78 c 1
516 90 m 1
 441 152 l 1
 486 208 l 1
 579 134 l 1
 596 152 609 171 621 196 c 0
 632 222 642 248 650 276 c 0
 654 304 657 334 657 364 c 0
 657 410 650 454 636 495 c 0
 621 537 602 572 576 597 c 0
 555 618 530 638 496 650 c 0
 465 662 432 668 396 668 c 0
 363 668 330 662 298 650 c 0
 266 638 238 621 218 597 c 0
 192 572 172 537 158 495 c 0
 144 454 135 410 135 364 c 0
 135 318 142 276 158 236 c 0
 171 195 192 160 218 134 c 0
 261 87 321 63 396 63 c 0
 440 63 480 70 516 90 c 1
EndSplineSet
EndChar
StartChar: R
Encoding: 82 82 52
OldEncoding: 82
Width: 733
Flags: W
HStem: 0 21G<94 190 576 690> 318 86<190 447> 657 84<94 447>
VStem: 94 96<0 318 0 657> 555 96<93 193> 566 97<516 552>
Fore
94 0 m 1
 94 741 l 1
 426 741 l 2
 495 741 552 730 596 705 c 0
 636 681 660 628 663 552 c 0
 664 506 657 470 642 444 c 0
 628 420 602 394 564 366 c 1
 603 342 627 321 636 300 c 0
 644 278 650 237 651 177 c 0
 652 128 654 93 660 74 c 0
 664 52 675 36 690 24 c 1
 690 0 l 1
 576 0 l 1
 566 22 560 54 555 93 c 1
 555 180 l 2
 555 224 546 258 531 284 c 0
 516 308 483 318 434 318 c 2
 190 318 l 1
 190 0 l 1
 94 0 l 1
429 657 m 2
 190 657 l 1
 190 404 l 1
 429 404 l 2
 512 404 558 441 566 516 c 1
 566 610 520 657 429 657 c 2
EndSplineSet
EndChar
StartChar: S
Encoding: 83 83 53
OldEncoding: 83
Width: 678
Flags: W
HStem: -24 87<339 368.794> 674 80<305 341>
VStem: 75 87<513 549> 516 92<525 543.849>
Fore
608 525 m 1
 516 525 l 1
 516 578 494 616 448 644 c 0
 429 656 408 664 390 668 c 0
 370 670 351 674 326 674 c 0
 273 674 234 662 207 636 c 0
 178 610 162 582 162 549 c 0
 162 534 166 519 174 506 c 0
 183 492 195 480 210 470 c 0
 238 453 276 444 322 432 c 0
 428 406 488 388 506 382 c 0
 537 370 568 350 594 316 c 0
 618 285 632 252 632 218 c 0
 634 168 621 123 596 88 c 0
 570 52 534 24 490 4 c 0
 444 -14 394 -24 339 -24 c 0
 284 -22 238 -15 204 -2 c 0
 168 10 132 34 104 69 c 0
 80 99 66 123 60 146 c 0
 54 168 51 198 50 236 c 1
 138 236 l 1
 138 200 147 166 168 132 c 0
 188 96 225 75 282 66 c 0
 297 64 328 63 378 63 c 1
 426 68 460 80 483 99 c 0
 516 126 532 158 532 196 c 0
 532 231 516 260 480 285 c 1
 442 303 390 316 324 332 c 0
 274 342 244 352 232 357 c 0
 219 363 198 369 172 378 c 0
 114 396 81 441 75 513 c 1
 75 560 84 600 104 638 c 0
 122 674 148 702 186 724 c 0
 224 744 270 754 324 754 c 0
 402 754 460 741 504 716 c 0
 573 670 608 609 608 525 c 1
EndSplineSet
EndChar
StartChar: T
Encoding: 84 84 54
OldEncoding: 84
Width: 621
Flags: W
HStem: 0 21G<266 362> 657 84<22 266 22 603>
VStem: 266 96<0 657>
Fore
266 0 m 1
 266 657 l 1
 22 657 l 1
 22 741 l 1
 603 741 l 1
 603 657 l 1
 362 657 l 1
 362 0 l 1
 266 0 l 1
EndSplineSet
EndChar
StartChar: U
Encoding: 85 85 55
OldEncoding: 85
Width: 733
Flags: W
HStem: -24 81<370 392>
VStem: 87 95<199 741> 561 95<199 741>
Fore
87 741 m 1
 182 741 l 1
 182 212 l 2
 182 174 196 140 226 106 c 0
 258 75 304 57 370 57 c 0
 438 57 484 75 516 106 c 0
 546 140 561 174 561 212 c 2
 561 741 l 1
 656 741 l 1
 656 207 l 2
 656 184 651 160 642 135 c 0
 634 110 618 84 597 60 c 0
 574 34 544 15 507 0 c 0
 470 -15 423 -24 370 -24 c 0
 303 -24 248 -12 206 14 c 0
 162 39 132 70 114 106 c 0
 94 142 87 174 87 207 c 2
 87 741 l 1
EndSplineSet
EndChar
StartChar: V
Encoding: 86 86 56
OldEncoding: 86
Width: 678
Flags: W
HStem: 0 21G<292 394>
DStem: 30 741 132 741 292 0 348 114
Fore
348 114 m 1
 555 741 l 1
 656 741 l 1
 394 0 l 1
 292 0 l 1
 30 741 l 1
 132 741 l 1
 348 114 l 1
EndSplineSet
EndChar
StartChar: W
Encoding: 87 87 57
OldEncoding: 87
Width: 958
Flags: W
HStem: 0 21G<210 314 651 756>
DStem: 430 741 482 603 266 144 314 0 482 603 534 741 651 0 699 144
Fore
699 144 m 1
 838 741 l 1
 944 741 l 1
 756 0 l 1
 651 0 l 1
 482 603 l 1
 314 0 l 1
 210 0 l 1
 22 741 l 1
 129 741 l 1
 266 144 l 1
 430 741 l 1
 534 741 l 1
 699 144 l 1
EndSplineSet
EndChar
StartChar: X
Encoding: 88 88 58
OldEncoding: 88
Width: 678
Flags: W
HStem: 0 21G<22 141 543 660>
DStem: 40 741 156 741 284 380 344 458 284 380 344 302 22 0 141 0 344 302 402 380 543 0 660 0 534 741 650 741 344 458 402 380
Fore
650 741 m 1
 402 380 l 1
 660 0 l 1
 543 0 l 1
 344 302 l 1
 141 0 l 1
 22 0 l 1
 284 380 l 1
 40 741 l 1
 156 741 l 1
 344 458 l 1
 534 741 l 1
 650 741 l 1
EndSplineSet
EndChar
StartChar: Y
Encoding: 89 89 59
OldEncoding: 89
Width: 678
Flags: W
HStem: 0 21G<297 393>
VStem: 297 96<0 290>
Fore
14 741 m 1
 130 741 l 1
 344 381 l 1
 556 741 l 1
 674 741 l 1
 393 290 l 1
 393 0 l 1
 297 0 l 1
 297 290 l 1
 14 741 l 1
EndSplineSet
EndChar
StartChar: Z
Encoding: 90 90 60
OldEncoding: 90
Width: 621
Flags: W
HStem: 0 84<148 594> 657 84<60 471>
DStem: 471 657 591 654 28 81 148 84
Fore
60 657 m 1
 60 741 l 1
 591 741 l 1
 591 654 l 1
 148 84 l 1
 594 84 l 1
 594 0 l 1
 28 0 l 1
 28 81 l 1
 471 657 l 1
 60 657 l 1
EndSplineSet
EndChar
StartChar: bracketleft
Encoding: 91 91 61
OldEncoding: 91
Width: 282
Flags: W
HStem: -218 77<152 255> 664 77<64 255>
VStem: 64 88<-218 664>
Fore
64 741 m 1
 255 741 l 1
 255 664 l 1
 152 664 l 1
 152 -141 l 1
 255 -141 l 1
 255 -218 l 1
 64 -218 l 1
 64 741 l 1
EndSplineSet
EndChar
StartChar: backslash
Encoding: 92 92 62
OldEncoding: 92
Width: 282
Flags: W
HStem: -21 21G<232 288>
DStem: -9 741 48 741 232 -21 288 -21
Fore
232 -21 m 1
 -9 741 l 1
 48 741 l 1
 288 -21 l 1
 232 -21 l 1
EndSplineSet
EndChar
StartChar: bracketright
Encoding: 93 93 63
OldEncoding: 93
Width: 282
Flags: W
HStem: -219 77<24 212> 664 77<24 126>
VStem: 126 86<-142 741>
Fore
24 664 m 1
 24 741 l 1
 212 741 l 1
 212 -219 l 1
 24 -219 l 1
 24 -142 l 1
 126 -142 l 1
 126 664 l 1
 24 664 l 1
EndSplineSet
EndChar
StartChar: asciicircum
Encoding: 94 94 64
OldEncoding: 94
Width: 475
Flags: W
HStem: 339 21G<44 116 362 432>
DStem: 201 726 237 639 44 339 116 339 237 639 276 726 362 339 432 339
Fore
44 339 m 1
 201 726 l 1
 276 726 l 1
 432 339 l 1
 362 339 l 1
 237 639 l 1
 116 339 l 1
 44 339 l 1
EndSplineSet
EndChar
StartChar: underscore
Encoding: 95 95 65
OldEncoding: 95
Width: 565
Flags: W
HStem: -178 50<-22 588>
Fore
588 -128 m 1
 588 -178 l 1
 -22 -178 l 1
 -22 -128 l 1
 588 -128 l 1
EndSplineSet
EndChar
StartChar: grave
Encoding: 96 96 66
OldEncoding: 96
Width: 273
VWidth: 2048
Flags: W
HStem: 606 135<42 222>
Fore
222 606 m 1
 153 606 l 1
 42 741 l 5
 158 741 l 1
 222 606 l 1
EndSplineSet
EndChar
StartChar: a
Encoding: 97 97 67
OldEncoding: 97
Width: 565
Flags: W
VStem: 42 88<141 155> 394 90<151 438>
Fore
484 438 m 2
 484 80 l 2
 484 70 490 64 500 57 c 0
 510 52 525 50 544 50 c 1
 544 -14 l 1
 472 -24 l 1
 428 -10 402 15 399 54 c 1
 366 28 339 10 316 -2 c 0
 296 -14 264 -24 230 -24 c 0
 170 -26 123 -9 92 21 c 0
 60 50 40 92 42 144 c 0
 42 184 56 216 76 237 c 0
 96 258 122 273 154 284 c 0
 180 291 204 297 225 300 c 0
 248 303 272 308 300 309 c 0
 327 310 344 312 352 314 c 0
 381 322 394 336 394 354 c 2
 394 418 l 1
 392 435 376 452 350 459 c 0
 321 470 286 474 248 472 c 0
 184 471 153 438 147 375 c 1
 68 375 l 1
 69 420 l 1
 75 441 84 460 100 480 c 0
 116 498 134 513 159 525 c 0
 182 537 213 544 255 549 c 1
 297 549 332 546 360 540 c 0
 394 532 426 520 448 501 c 0
 471 484 484 462 484 438 c 2
394 154 m 2
 394 261 l 1
 375 252 352 248 327 244 c 0
 302 238 274 236 246 231 c 0
 218 225 195 219 182 213 c 0
 171 208 159 200 147 186 c 0
 135 174 130 159 130 141 c 0
 130 110 140 88 158 74 c 0
 177 57 198 50 224 50 c 0
 258 48 288 56 314 69 c 0
 339 82 360 99 374 116 c 0
 388 134 394 146 394 154 c 2
EndSplineSet
EndChar
StartChar: b
Encoding: 98 98 68
OldEncoding: 98
Width: 565
Flags: W
HStem: -24 81<277 298> 0 21G<54 129> 462 87<284 304>
VStem: 54 86<0 281 0 741> 435 96<231 266> 435 97<247 297>
Fore
54 741 m 1
 141 741 l 1
 141 470 l 1
 148 486 166 501 190 518 c 0
 206 525 222 534 240 540 c 0
 260 546 282 549 304 549 c 0
 366 549 418 526 460 482 c 0
 477 466 490 446 500 423 c 0
 512 402 520 378 525 352 c 0
 531 327 532 298 532 270 c 0
 532 252 532 238 531 231 c 0
 530 178 513 132 492 92 c 0
 470 50 440 16 400 -2 c 0
 366 -18 330 -24 296 -24 c 0
 256 -24 225 -16 204 -2 c 0
 165 24 141 44 129 60 c 1
 129 0 l 1
 54 0 l 1
 54 741 l 1
390 106 m 0
 420 148 435 201 435 266 c 0
 435 297 432 326 426 351 c 0
 420 376 410 394 399 410 c 1
 376 446 339 465 286 462 c 0
 240 462 206 444 182 412 c 0
 171 396 160 376 153 348 c 0
 144 316 140 286 140 255 c 0
 140 204 152 158 177 116 c 0
 198 81 232 63 278 57 c 1
 330 57 368 75 390 106 c 0
EndSplineSet
EndChar
StartChar: c
Encoding: 99 99 69
OldEncoding: 99
Width: 508
Flags: W
HStem: -24 81<254 276> 471 78<268 288.321>
Fore
404 184 m 1
 484 184 l 1
 483 141 474 105 456 76 c 0
 438 44 408 18 374 2 c 0
 338 -15 298 -26 256 -24 c 0
 216 -24 178 -10 144 9 c 0
 110 27 84 54 68 90 c 0
 44 141 32 201 32 272 c 0
 34 352 60 420 108 477 c 0
 148 524 201 548 268 549 c 0
 298 549 327 546 352 537 c 0
 380 530 402 518 418 501 c 1
 440 490 454 470 465 444 c 0
 477 418 483 388 484 354 c 1
 400 354 l 1
 394 382 390 405 381 420 c 0
 374 434 362 446 344 454 c 0
 318 466 292 471 272 471 c 0
 232 470 196 452 166 416 c 0
 144 390 126 346 123 284 c 0
 120 213 130 165 144 140 c 0
 171 84 216 56 276 57 c 0
 298 57 318 64 339 76 c 0
 357 88 370 100 378 116 c 0
 392 141 400 162 404 184 c 1
EndSplineSet
EndChar
StartChar: d
Encoding: 100 100 70
OldEncoding: 100
Width: 565
Flags: W
HStem: -24 81<262 284> -2 21G<429 504> 460 89<250 274>
VStem: 27 95<247 281> 429 75<-2 741>
Fore
418 741 m 1
 504 741 l 1
 504 -2 l 1
 429 -2 l 1
 429 62 l 1
 406 36 382 14 356 -3 c 0
 336 -16 304 -24 264 -24 c 0
 224 -24 188 -16 158 -2 c 0
 120 16 92 48 69 90 c 0
 48 130 34 177 28 230 c 0
 27 237 27 252 27 272 c 0
 27 312 34 351 46 388 c 0
 57 428 75 458 96 480 c 0
 142 525 194 549 252 549 c 0
 297 549 336 538 369 518 c 0
 392 501 408 486 418 470 c 1
 418 741 l 1
168 105 m 0
 194 74 231 56 279 57 c 0
 302 57 322 64 340 75 c 0
 360 84 374 99 382 116 c 0
 406 156 418 201 418 252 c 0
 418 286 414 318 405 348 c 0
 396 376 387 399 378 410 c 0
 352 444 316 460 272 460 c 0
 220 460 183 444 159 410 c 0
 134 375 122 326 122 264 c 0
 122 200 138 147 168 105 c 0
EndSplineSet
EndChar
StartChar: e
Encoding: 101 101 71
OldEncoding: 101
Width: 565
Flags: W
HStem: -24 75<264.321 305> 232 77<135 522> 480 69<298 306>
VStem: 40 92<230 262>
Fore
522 232 m 1
 132 232 l 1
 132 208 134 188 138 172 c 0
 141 158 148 140 160 117 c 1
 194 74 232 51 282 51 c 0
 308 51 327 54 346 63 c 0
 363 70 376 81 388 93 c 0
 399 105 406 118 412 130 c 0
 417 142 420 153 423 162 c 1
 510 162 l 1
 500 117 483 81 462 56 c 0
 442 30 420 12 388 -2 c 0
 356 -16 321 -24 284 -24 c 0
 246 -24 210 -16 178 -2 c 0
 146 14 117 34 94 63 c 0
 60 108 40 177 40 262 c 0
 42 352 64 422 106 470 c 0
 156 522 220 550 303 549 c 0
 324 549 344 544 364 537 c 0
 386 531 404 522 422 510 c 0
 438 498 452 486 460 472 c 0
 480 447 494 423 501 400 c 0
 510 376 518 354 519 336 c 0
 520 315 520 282 522 232 c 1
135 309 m 1
 429 309 l 1
 429 330 423 356 416 381 c 0
 406 406 399 423 390 432 c 1
 386 444 375 454 356 462 c 0
 339 471 321 480 298 480 c 0
 244 482 206 465 182 432 c 1
 172 426 162 408 153 382 c 0
 141 356 138 330 135 309 c 1
EndSplineSet
EndChar
StartChar: f
Encoding: 102 102 72
OldEncoding: 102
Width: 282
Flags: W
HStem: 0 21G<90 177> 456 78<18 90 177 261> 669 75<218 262>
VStem: 90 87<0 456 534 626>
Fore
90 0 m 1
 90 456 l 1
 18 456 l 1
 18 534 l 1
 90 534 l 1
 90 624 l 2
 90 660 102 688 123 710 c 0
 146 730 162 741 177 741 c 0
 184 742 198 744 218 744 c 0
 237 744 252 742 262 741 c 1
 262 669 l 1
 231 669 207 666 195 660 c 0
 183 651 177 636 177 612 c 2
 177 534 l 1
 261 534 l 1
 261 456 l 1
 177 456 l 1
 177 0 l 1
 90 0 l 1
EndSplineSet
EndChar
StartChar: g
Encoding: 103 103 73
OldEncoding: 103
Width: 565
Flags: W
HStem: -222 75<238 282> 456 93<251 270>
VStem: 412 84<49 90 230 534>
Fore
412 534 m 1
 496 534 l 1
 496 90 l 2
 496 38 492 -8 486 -44 c 0
 480 -81 468 -114 448 -142 c 0
 430 -171 405 -190 369 -201 c 0
 338 -212 308 -219 282 -222 c 1
 226 -222 186 -218 160 -207 c 0
 132 -195 108 -182 92 -165 c 0
 75 -147 63 -130 57 -112 c 0
 52 -94 50 -78 48 -62 c 1
 134 -62 l 1
 135 -64 138 -69 140 -78 c 0
 141 -87 142 -93 146 -99 c 0
 147 -104 153 -110 160 -116 c 0
 168 -122 178 -129 194 -135 c 0
 210 -144 232 -147 260 -147 c 0
 288 -147 315 -142 338 -134 c 1
 360 -122 375 -110 381 -99 c 0
 388 -88 394 -70 400 -48 c 0
 408 -12 412 26 412 64 c 1
 362 4 303 -26 237 -24 c 0
 198 -22 160 -4 126 24 c 1
 96 42 74 70 56 108 c 0
 40 146 30 186 28 232 c 0
 28 276 34 321 44 363 c 0
 54 405 69 441 88 466 c 0
 100 482 122 500 154 520 c 0
 186 538 222 549 260 549 c 0
 318 548 369 522 412 470 c 1
 412 534 l 1
364 99 m 0
 396 132 412 184 412 256 c 0
 412 290 408 322 400 352 c 0
 392 382 378 405 363 420 c 0
 357 428 344 435 326 444 c 0
 308 453 286 456 268 456 c 0
 212 456 170 430 146 378 c 0
 130 346 122 308 120 258 c 0
 118 195 132 147 154 116 c 0
 180 80 216 57 258 57 c 0
 303 56 339 70 364 99 c 0
EndSplineSet
EndChar
StartChar: h
Encoding: 104 104 74
OldEncoding: 104
Width: 565
Flags: W
HStem: 0 21G<70 156 408 495> 471 78<273 321>
VStem: 70 86<0 364 0 741> 408 87<0 405>
Fore
70 0 m 1
 70 741 l 1
 156 741 l 1
 156 470 l 1
 183 498 213 520 248 536 c 1
 279 544 303 549 321 549 c 0
 350 549 378 540 406 531 c 0
 442 518 465 500 477 472 c 0
 488 446 495 423 495 405 c 2
 495 0 l 1
 408 0 l 1
 408 364 l 2
 408 414 393 444 364 458 c 1
 338 466 308 471 273 471 c 1
 248 466 220 452 190 426 c 0
 168 405 156 380 156 348 c 2
 156 0 l 1
 70 0 l 1
EndSplineSet
EndChar
StartChar: i
Encoding: 105 105 75
OldEncoding: 105
Width: 225
Flags: W
HStem: 0 21G<68 153>
VStem: 68 85<0 534 636 741>
Fore
153 534 m 1
 153 0 l 1
 68 0 l 1
 68 534 l 1
 153 534 l 1
153 741 m 1
 153 636 l 1
 68 636 l 1
 68 741 l 1
 153 741 l 1
EndSplineSet
EndChar
StartChar: j
Encoding: 106 106 76
OldEncoding: 106
Width: 225
Flags: W
VStem: 69 87<-101 534 636 741>
Fore
69 636 m 1
 69 741 l 1
 156 741 l 1
 156 636 l 1
 69 636 l 1
-18 -222 m 1
 -18 -147 l 1
 32 -142 l 2
 44 -141 54 -135 62 -126 c 0
 66 -117 69 -106 69 -99 c 2
 69 534 l 1
 156 534 l 1
 156 -117 l 2
 156 -135 152 -154 140 -174 c 0
 128 -194 106 -207 78 -216 c 0
 57 -220 26 -222 -18 -222 c 1
EndSplineSet
EndChar
StartChar: k
Encoding: 107 107 77
OldEncoding: 107
Width: 508
Flags: W
HStem: 0 21G<60 144 405 510>
VStem: 60 84<0 200 0 741>
DStem: 231 285 292 350 405 0 510 0 369 534 480 534 144 312 292 350
Fore
60 741 m 1
 144 741 l 1
 144 312 l 1
 369 534 l 1
 480 534 l 1
 292 350 l 1
 510 0 l 1
 405 0 l 1
 231 285 l 1
 144 200 l 1
 144 0 l 1
 60 0 l 1
 60 741 l 1
EndSplineSet
EndChar
StartChar: l
Encoding: 108 108 78
OldEncoding: 108
Width: 225
Flags: W
HStem: 0 21G<69 154>
VStem: 69 85<0 741>
Fore
69 0 m 1
 69 741 l 1
 154 741 l 1
 154 0 l 1
 69 0 l 1
EndSplineSet
EndChar
StartChar: m
Encoding: 109 109 79
OldEncoding: 109
Width: 847
Flags: W
HStem: 0 21G<74 158 381 466 690 777> 471 78<284 314 585 609>
VStem: 74 84<0 344 0 534> 381 85<0 363> 690 87<0 417>
Fore
74 0 m 1
 74 534 l 1
 158 534 l 1
 158 466 l 1
 180 500 198 520 213 526 c 0
 240 543 274 549 314 549 c 0
 354 549 386 543 404 530 c 0
 426 513 444 495 459 470 c 1
 470 482 478 492 483 498 c 0
 488 506 495 512 504 519 c 0
 512 525 520 531 531 536 c 0
 552 544 578 549 609 549 c 0
 656 549 690 544 708 532 c 0
 718 526 729 519 741 506 c 0
 753 494 760 478 768 462 c 0
 772 447 777 432 777 417 c 2
 777 0 l 1
 690 0 l 1
 690 381 l 1
 681 441 648 471 588 471 c 0
 550 471 522 460 504 441 c 0
 483 420 471 394 466 363 c 1
 466 0 l 1
 381 0 l 1
 381 382 l 2
 381 442 342 471 284 471 c 0
 249 471 220 459 196 435 c 0
 174 412 160 381 158 344 c 1
 158 0 l 1
 74 0 l 1
EndSplineSet
EndChar
StartChar: n
Encoding: 110 110 80
OldEncoding: 110
Width: 565
Flags: W
HStem: 0 21G<70 156 410 495> 471 78<293 324>
VStem: 70 86<0 305 0 534> 410 85<0 416>
Fore
70 534 m 1
 156 534 l 1
 156 466 l 1
 178 496 198 518 218 525 c 1
 238 540 274 550 324 549 c 0
 363 549 392 544 410 536 c 0
 432 524 452 508 466 494 c 0
 482 477 490 452 495 416 c 1
 495 0 l 1
 410 0 l 1
 410 370 l 2
 410 393 405 410 396 426 c 0
 387 441 374 453 356 459 c 0
 340 468 322 471 303 471 c 0
 262 471 226 456 198 428 c 0
 170 399 156 350 156 284 c 2
 156 0 l 1
 70 0 l 1
 70 534 l 1
EndSplineSet
EndChar
StartChar: o
Encoding: 111 111 81
OldEncoding: 111
Width: 565
Flags: W
HStem: -24 87<278 295> 465 84<278 295>
VStem: 38 85<262 264> 430 89<262 281>
Fore
78 81 m 0
 51 128 38 188 38 262 c 0
 38 339 51 399 78 444 c 0
 100 480 129 508 165 525 c 0
 200 543 237 549 278 549 c 0
 316 549 356 540 392 524 c 0
 428 507 454 480 477 444 c 0
 506 396 519 336 519 262 c 0
 519 192 506 130 477 81 c 0
 454 46 428 18 392 2 c 0
 356 -15 316 -24 278 -24 c 0
 237 -24 200 -15 165 2 c 0
 129 18 100 46 78 81 c 0
278 63 m 0
 304 63 330 69 352 82 c 0
 376 96 392 117 404 144 c 0
 420 184 430 224 430 262 c 0
 430 300 422 340 404 382 c 0
 392 410 375 430 352 444 c 0
 328 458 303 465 278 465 c 0
 250 465 225 458 201 446 c 0
 177 432 158 412 146 382 c 1
 140 357 134 334 130 315 c 0
 126 297 123 278 123 262 c 0
 123 231 132 190 152 144 c 0
 162 117 182 96 204 82 c 0
 225 69 250 63 278 63 c 0
EndSplineSet
EndChar
StartChar: p
Encoding: 112 112 82
OldEncoding: 112
Width: 565
Flags: W
HStem: -24 88<284 306> 470 79<276 294>
VStem: 54 75<-222 534> 54 87<-222 57 -222 297> 435 97<241 275>
Fore
141 -222 m 1
 54 -222 l 1
 54 534 l 1
 129 534 l 1
 129 466 l 1
 142 486 166 507 201 530 c 0
 224 543 255 549 292 549 c 0
 332 549 368 543 400 526 c 0
 440 508 470 478 492 435 c 0
 513 393 530 348 531 297 c 0
 532 288 532 274 532 258 c 0
 532 216 525 174 513 138 c 0
 501 99 483 68 460 46 c 0
 417 0 364 -24 304 -24 c 0
 261 -24 222 -14 190 9 c 0
 168 24 152 39 141 57 c 1
 141 -222 l 1
390 420 m 0
 366 453 328 471 278 470 c 0
 256 470 237 460 219 453 c 1
 200 441 186 428 177 410 c 0
 152 369 140 324 140 273 c 0
 140 243 144 212 153 183 c 0
 160 154 171 130 182 116 c 0
 195 99 210 87 230 78 c 0
 248 69 266 64 286 64 c 0
 339 64 375 81 399 116 c 0
 422 148 435 196 435 260 c 0
 435 324 420 378 390 420 c 0
EndSplineSet
EndChar
StartChar: q
Encoding: 113 113 83
OldEncoding: 113
Width: 565
Flags: W
HStem: -24 88<251 274> 470 79<262 284>
VStem: 27 95<232 258> 418 86<-222 534>
Fore
504 -222 m 1
 418 -222 l 1
 418 57 l 1
 410 40 393 24 369 9 c 0
 336 -14 297 -24 252 -24 c 0
 194 -24 142 0 96 46 c 0
 51 93 27 162 27 255 c 0
 27 273 27 288 28 297 c 0
 34 348 48 393 69 435 c 0
 92 478 120 508 158 526 c 0
 188 543 224 549 264 549 c 0
 303 549 334 543 356 530 c 0
 387 510 410 490 429 466 c 1
 429 534 l 1
 504 534 l 1
 504 -222 l 1
168 420 m 0
 135 378 120 322 122 258 c 0
 122 195 138 147 159 116 c 0
 183 81 220 64 272 64 c 0
 292 64 314 69 332 78 c 0
 351 87 366 100 378 116 c 0
 399 144 412 183 417 234 c 0
 418 243 418 255 418 272 c 0
 418 326 405 370 382 410 c 0
 374 428 362 441 342 452 c 0
 324 460 302 470 279 470 c 0
 231 471 192 454 168 420 c 0
EndSplineSet
EndChar
StartChar: r
Encoding: 114 114 84
OldEncoding: 114
Width: 339
Flags: W
HStem: 0 21G<69 156> 459 90<278 327>
VStem: 69 87<0 305 0 534>
Fore
69 0 m 1
 69 534 l 1
 156 534 l 1
 156 452 l 1
 171 480 192 504 216 522 c 0
 237 538 260 548 278 549 c 2
 327 549 l 1
 327 459 l 1
 296 459 268 456 246 447 c 0
 216 434 194 414 178 388 c 0
 162 360 156 324 156 278 c 2
 156 0 l 1
 69 0 l 1
EndSplineSet
EndChar
StartChar: s
Encoding: 115 115 85
OldEncoding: 115
Width: 508
Flags: W
VStem: 50 80<384 392> 382 84<128 140>
Fore
34 158 m 1
 116 158 l 1
 120 135 123 120 128 110 c 0
 130 102 140 92 152 81 c 0
 162 70 182 63 207 54 c 1
 220 52 246 51 284 51 c 1
 314 56 336 63 350 74 c 0
 357 78 366 88 374 102 c 0
 380 114 382 126 382 138 c 0
 382 170 364 194 326 206 c 0
 314 208 298 212 278 218 c 0
 256 222 237 226 222 231 c 0
 207 234 190 238 171 244 c 0
 153 249 138 255 128 260 c 0
 75 278 50 322 50 390 c 0
 50 440 68 478 106 507 c 0
 144 536 190 549 246 549 c 0
 375 549 441 495 444 386 c 1
 360 386 l 1
 360 408 351 429 336 444 c 0
 321 459 288 468 237 470 c 1
 184 466 152 447 134 414 c 0
 132 408 130 400 130 388 c 0
 130 364 141 348 159 339 c 0
 171 334 182 328 192 326 c 0
 200 322 213 321 231 315 c 0
 248 310 266 304 285 300 c 0
 336 291 376 278 408 260 c 0
 447 237 466 194 466 128 c 1
 462 100 453 75 435 52 c 0
 418 28 396 10 369 -2 c 0
 344 -14 312 -22 273 -24 c 0
 231 -26 196 -22 170 -16 c 0
 80 2 34 62 34 158 c 1
EndSplineSet
EndChar
StartChar: t
Encoding: 116 116 86
OldEncoding: 116
Width: 282
Flags: W
HStem: -24 78<166 219> 456 78<14 88 174 258>
VStem: 88 86<52 456 534 678>
Fore
174 678 m 1
 174 534 l 1
 258 534 l 1
 258 456 l 1
 174 456 l 1
 174 84 l 2
 174 64 190 54 219 54 c 0
 226 54 238 56 258 57 c 1
 258 -16 l 1
 234 -22 204 -24 166 -24 c 1
 141 -21 120 -10 106 8 c 0
 94 24 88 39 88 52 c 2
 88 456 l 1
 14 456 l 1
 14 534 l 1
 88 534 l 1
 88 678 l 1
 174 678 l 1
EndSplineSet
EndChar
StartChar: u
Encoding: 117 117 87
OldEncoding: 117
Width: 565
Flags: W
HStem: -24 81<234 259> 0 21G<405 490>
VStem: 66 86<108 534> 405 85<0 534>
Fore
490 0 m 1
 405 0 l 1
 405 57 l 1
 382 27 363 9 344 -2 c 0
 316 -15 282 -24 236 -24 c 0
 204 -24 174 -21 152 -12 c 1
 104 14 75 52 66 108 c 1
 66 534 l 1
 152 534 l 1
 152 156 l 2
 152 117 165 90 192 70 c 0
 207 63 222 57 240 57 c 0
 266 57 285 60 300 63 c 0
 342 78 369 100 386 132 c 0
 399 160 405 198 405 244 c 2
 405 534 l 1
 490 534 l 1
 490 0 l 1
EndSplineSet
EndChar
StartChar: v
Encoding: 118 118 88
OldEncoding: 118
Width: 508
Flags: W
HStem: 0 21G<196 290>
Fore
290 0 m 1
 196 0 l 1
 10 534 l 1
 105 534 l 1
 244 102 l 1
 399 534 l 1
 495 534 l 1
 290 0 l 1
EndSplineSet
EndChar
StartChar: w
Encoding: 119 119 89
OldEncoding: 119
Width: 733
Flags: W
HStem: 0 21G<159 256 466 562>
DStem: 310 534 357 405 207 118 256 0
Fore
159 0 m 1
 8 534 l 1
 102 534 l 1
 207 118 l 1
 310 534 l 1
 416 534 l 1
 516 118 l 1
 624 534 l 1
 720 534 l 1
 562 0 l 1
 466 0 l 1
 357 405 l 1
 256 0 l 1
 159 0 l 1
EndSplineSet
EndChar
StartChar: x
Encoding: 120 120 90
OldEncoding: 120
Width: 508
Flags: W
HStem: 0 21G<16 114 386 482>
DStem: 28 534 126 534 206 273 255 346 206 273 250 200 16 0 114 0 250 200 298 274 386 0 482 0 382 534 480 534 255 346 298 274
Fore
250 200 m 1
 114 0 l 1
 16 0 l 1
 206 273 l 1
 28 534 l 1
 126 534 l 1
 255 346 l 1
 382 534 l 1
 480 534 l 1
 298 274 l 1
 482 0 l 1
 386 0 l 1
 250 200 l 1
EndSplineSet
EndChar
StartChar: y
Encoding: 121 121 91
OldEncoding: 121
Width: 508
Flags: W
HStem: -222 82<98 116>
DStem: 21 534 110 534 195 -9 246 130 394 534 486 534 246 130 244 -123
Fore
394 534 m 1
 486 534 l 1
 244 -123 l 2
 230 -166 204 -194 170 -208 c 0
 152 -218 128 -222 100 -222 c 0
 81 -222 66 -219 52 -210 c 1
 52 -130 l 1
 64 -135 87 -140 116 -140 c 1
 138 -135 154 -120 165 -93 c 2
 195 -9 l 1
 21 534 l 1
 110 534 l 1
 246 130 l 1
 394 534 l 1
EndSplineSet
EndChar
StartChar: z
Encoding: 122 122 92
OldEncoding: 122
Width: 508
Flags: W
HStem: 0 84<146 465> 448 86<54 344>
DStem: 344 448 453 459 32 69 146 84
Fore
453 534 m 1
 453 459 l 1
 146 84 l 1
 465 84 l 1
 465 0 l 1
 32 0 l 1
 32 69 l 1
 344 448 l 1
 54 448 l 1
 54 534 l 1
 453 534 l 1
EndSplineSet
EndChar
StartChar: braceleft
Encoding: 123 123 93
OldEncoding: 123
Width: 339
Flags: W
VStem: 123 77<-94 102 421 619>
Fore
44 226 m 1
 44 298 l 1
 76 304 99 321 108 342 c 0
 118 364 123 399 123 444 c 2
 123 616 l 2
 123 652 134 681 153 705 c 0
 171 728 190 741 207 741 c 2
 282 744 l 1
 282 676 l 1
 236 670 l 2
 222 669 213 664 208 654 c 0
 204 644 200 628 200 608 c 2
 200 426 l 2
 200 380 192 344 177 321 c 0
 160 297 144 278 126 262 c 1
 141 252 158 236 174 210 c 0
 192 184 200 147 200 100 c 2
 200 -80 l 2
 200 -102 204 -118 208 -129 c 0
 213 -140 222 -144 236 -146 c 2
 282 -152 l 1
 282 -218 l 1
 207 -216 l 2
 190 -216 171 -201 153 -178 c 0
 134 -156 123 -128 123 -92 c 2
 123 82 l 2
 123 129 118 162 108 184 c 0
 96 207 76 220 44 226 c 1
EndSplineSet
EndChar
StartChar: bar
Encoding: 124 124 94
OldEncoding: 124
Width: 264
Flags: W
VStem: 102 60<-219 741>
Fore
162 741 m 1
 162 -219 l 1
 102 -219 l 1
 102 741 l 1
 162 741 l 1
EndSplineSet
EndChar
StartChar: braceright
Encoding: 125 125 95
OldEncoding: 125
Width: 339
Flags: W
VStem: 110 76<-94 102 421 631>
Fore
266 298 m 1
 266 226 l 1
 234 220 212 207 201 184 c 0
 192 162 186 129 186 82 c 2
 186 -92 l 2
 186 -116 182 -135 172 -154 c 0
 162 -172 152 -186 140 -198 c 0
 128 -208 116 -213 104 -216 c 2
 28 -218 l 1
 28 -152 l 1
 75 -146 l 2
 88 -144 99 -138 104 -128 c 0
 108 -117 110 -102 110 -80 c 2
 110 100 l 2
 110 146 118 183 138 208 c 0
 154 234 170 252 184 262 c 0
 183 262 180 268 171 276 c 0
 160 285 152 297 142 312 c 0
 132 327 123 342 118 362 c 0
 114 380 110 400 110 426 c 2
 110 608 l 2
 110 628 108 644 104 654 c 0
 99 664 88 669 75 670 c 2
 28 676 l 1
 28 744 l 1
 104 741 l 2
 116 740 128 734 140 724 c 0
 152 712 162 699 172 680 c 0
 182 662 186 640 186 616 c 2
 186 444 l 2
 186 399 192 364 201 342 c 0
 212 321 234 304 266 298 c 1
EndSplineSet
EndChar
StartChar: asciitilde
Encoding: 126 126 96
OldEncoding: 126
Width: 592
Flags: W
HStem: 272 68<406 414> 381 65<174.973 189>
DStem: 220 366 237 432 328 297 370 352
Fore
130 297 m 1
 76 297 l 1
 78 350 90 388 110 410 c 0
 132 434 156 446 184 446 c 0
 204 446 220 442 237 432 c 2
 370 352 l 2
 382 346 396 340 412 340 c 0
 426 340 435 344 444 351 c 0
 456 362 462 382 462 418 c 1
 516 418 l 1
 516 375 506 339 484 312 c 0
 466 285 441 272 408 272 c 0
 387 272 357 278 328 297 c 2
 220 366 l 1
 208 376 196 381 184 381 c 0
 170 381 156 374 146 357 c 0
 135 342 130 322 130 297 c 1
EndSplineSet
EndChar
StartChar: uni0E10.descless
Encoding: 128 63232 98
OldEncoding: 63232
Width: 546
Flags: W
HStem: 0 21G<375 459> 146 50<200.375 221> 302 52<200.292 221> 478 62<457 470> 530 56<261 281>
VStem: 108 51<249 257> 388 71<141 304>
Fore
212 354 m 0
 234 354 255 348 274 336 c 0
 292 324 309 308 318 286 c 2
 388 141 l 1
 388 279 l 2
 388 322 381 351 366 366 c 0
 352 381 327 394 290 406 c 0
 249 418 208 428 166 434 c 0
 123 442 93 447 70 448 c 1
 93 488 122 520 154 548 c 0
 186 573 224 586 264 586 c 0
 286 586 308 585 322 582 c 0
 339 576 357 572 380 562 c 0
 402 555 418 549 430 546 c 0
 442 543 456 540 468 540 c 0
 488 540 508 546 526 555 c 1
 540 495 l 1
 512 483 486 478 465 478 c 0
 448 478 435 480 423 483 c 0
 412 486 394 494 369 501 c 0
 346 510 327 518 312 522 c 0
 297 526 282 530 266 530 c 0
 249 530 232 524 213 516 c 0
 195 506 186 496 184 492 c 1
 192 490 204 488 219 483 c 0
 234 478 255 472 279 466 c 0
 304 460 324 456 336 453 c 0
 390 440 426 420 440 396 c 0
 454 370 459 334 459 284 c 2
 459 0 l 1
 375 0 l 1
 369 36 357 70 340 110 c 0
 324 148 310 178 300 196 c 1
 296 182 284 170 266 159 c 0
 250 152 232 146 212 146 c 0
 180 146 154 156 135 177 c 0
 117 198 108 222 108 249 c 0
 108 278 117 303 135 324 c 0
 154 344 180 354 212 354 c 0
212 196 m 0
 230 196 243 201 250 212 c 0
 260 224 264 236 264 249 c 0
 264 264 260 276 250 286 c 0
 243 297 230 302 212 302 c 0
 196 302 183 297 174 286 c 0
 165 276 159 264 159 249 c 0
 159 236 165 224 174 213 c 0
 183 201 196 196 212 196 c 0
EndSplineSet
EndChar
StartChar: uni0E34.left
Encoding: 129 63233 99
OldEncoding: 63233
Width: 0
Flags: W
HStem: 732 51<-540 -472> 862 53<-441 -417>
Fore
-417 915 m 1
 -340 904 -288 876 -256 830 c 0
 -225 782 -204 730 -192 675 c 1
 -210 681 -238 692 -279 704 c 0
 -321 716 -363 722 -406 728 c 0
 -438 730 -468 732 -500 732 c 0
 -537 732 -572 730 -600 729 c 0
 -630 726 -652 722 -664 720 c 1
 -657 754 -642 786 -621 818 c 0
 -597 848 -568 872 -532 890 c 0
 -496 908 -459 915 -417 915 c 1
-430 862 m 1
 -466 862 -496 855 -525 836 c 0
 -552 819 -570 800 -576 778 c 1
 -568 780 -556 780 -540 782 c 0
 -525 783 -504 783 -474 783 c 0
 -448 783 -430 783 -417 782 c 0
 -375 778 -339 771 -314 760 c 0
 -288 753 -273 744 -264 740 c 1
 -297 810 -351 850 -430 862 c 1
EndSplineSet
EndChar
StartChar: uni0E35.left
Encoding: 130 63234 100
OldEncoding: 63234
Width: 0
Flags: W
HStem: 732 51<-507 -437> 862 53<-407 -382>
VStem: -243 65<849 982>
Fore
-243 849 m 1
 -243 982 l 1
 -178 982 l 1
 -178 747 l 1
 -178 747 l 1
 -177 747 -174 740 -170 722 c 0
 -165 704 -159 687 -158 675 c 1
 -177 681 -206 692 -246 704 c 0
 -286 716 -328 722 -374 728 c 0
 -404 730 -434 732 -466 732 c 0
 -504 732 -537 730 -566 729 c 0
 -597 726 -618 722 -630 720 c 1
 -624 756 -609 788 -586 819 c 0
 -564 848 -534 872 -498 890 c 0
 -465 908 -426 915 -382 915 c 1
 -354 912 -330 904 -310 896 c 0
 -290 886 -274 876 -262 868 c 0
 -252 860 -246 852 -243 849 c 1
-396 862 m 1
 -422 862 -444 858 -465 849 c 0
 -484 840 -501 831 -516 818 c 0
 -530 806 -537 792 -543 778 c 1
 -534 780 -522 780 -507 782 c 0
 -492 783 -470 783 -441 783 c 0
 -416 783 -396 783 -382 782 c 0
 -340 778 -304 771 -279 760 c 0
 -255 753 -238 744 -231 740 c 1
 -243 768 -261 795 -285 819 c 0
 -310 843 -348 858 -396 862 c 1
EndSplineSet
EndChar
StartChar: uni0E36.left
Encoding: 131 63235 101
OldEncoding: 63235
Width: 0
Flags: W
HStem: 732 51<-540 -472> 862 56<-448 -430> 948 45<-281 -264>
VStem: -368 50<903 916> -232 49<898 914>
Fore
-183 902 m 0
 -183 879 -188 861 -200 844 c 0
 -212 826 -226 818 -246 813 c 1
 -238 801 -230 783 -216 758 c 0
 -204 732 -195 704 -192 675 c 1
 -210 681 -238 692 -279 704 c 0
 -321 716 -363 722 -406 728 c 0
 -438 730 -468 732 -500 732 c 0
 -537 732 -572 730 -600 729 c 0
 -630 726 -652 722 -664 720 c 1
 -652 778 -626 825 -584 862 c 0
 -540 900 -495 918 -446 918 c 0
 -428 918 -412 916 -399 914 c 0
 -386 910 -375 908 -368 903 c 1
 -368 926 -360 946 -342 964 c 0
 -326 982 -303 993 -276 993 c 0
 -248 993 -224 986 -208 966 c 0
 -192 950 -183 927 -183 902 c 0
-274 948 m 0
 -290 948 -300 944 -308 936 c 0
 -315 927 -318 916 -318 904 c 0
 -318 896 -315 885 -308 876 c 0
 -298 868 -288 862 -274 862 c 0
 -262 862 -252 868 -244 876 c 0
 -236 885 -232 894 -232 904 c 0
 -232 916 -236 927 -244 936 c 0
 -250 944 -261 948 -274 948 c 0
-430 862 m 1
 -456 862 -478 858 -498 849 c 0
 -519 840 -536 831 -549 818 c 0
 -562 806 -572 792 -576 778 c 1
 -568 780 -556 780 -540 782 c 0
 -525 783 -504 783 -474 783 c 0
 -448 783 -430 783 -417 782 c 0
 -375 778 -339 771 -314 760 c 0
 -288 753 -273 744 -264 740 c 1
 -276 768 -296 794 -318 818 c 0
 -344 840 -381 856 -430 862 c 1
EndSplineSet
EndChar
StartChar: uni0E37.left
Encoding: 132 63236 102
OldEncoding: 63236
Width: 0
Flags: W
HStem: 732 51<-507 -437> 862 56<-408 -396>
VStem: -369 65<914 982> -243 65<848 982>
Fore
-178 746 m 1
 -177 746 -170 722 -158 675 c 1
 -177 681 -206 692 -246 704 c 0
 -286 716 -328 722 -374 728 c 0
 -404 730 -434 732 -466 732 c 0
 -504 732 -537 730 -566 729 c 0
 -597 726 -618 722 -630 720 c 1
 -624 758 -609 792 -586 820 c 0
 -564 850 -536 874 -504 891 c 0
 -471 910 -440 918 -406 918 c 0
 -394 918 -381 916 -369 914 c 1
 -369 982 l 1
 -304 982 l 1
 -304 894 l 1
 -278 884 -258 868 -243 848 c 1
 -243 982 l 1
 -178 982 l 1
 -178 746 l 1
-396 862 m 1
 -432 862 -462 855 -492 836 c 0
 -519 819 -536 800 -543 778 c 1
 -534 780 -522 780 -507 782 c 0
 -492 783 -470 783 -441 783 c 0
 -416 783 -396 783 -382 782 c 0
 -340 778 -304 771 -279 760 c 0
 -255 753 -238 744 -231 740 c 1
 -262 810 -316 850 -396 862 c 1
EndSplineSet
EndChar
StartChar: ellipsis
Encoding: 133 8230 103
OldEncoding: 8230
Width: 888
VWidth: 2048
Flags: W
HStem: -24 21G<89 139.5>
VStem: 39 149<46 57>
Fore
774 46 m 1
 774 3 748 -18 700 -24 c 1
 656 -24 630 0 626 46 c 1
 626 96 650 122 700 122 c 0
 720 122 740 116 753 100 c 1
 765 87 771 69 774 46 c 1
482 46 m 1
 482 3 458 -21 406 -24 c 1
 363 -24 338 0 332 46 c 1
 332 96 357 122 406 122 c 0
 428 122 446 116 459 100 c 1
 472 84 480 68 482 46 c 1
188 46 m 0
 188 0 165 -24 114 -24 c 0
 64 -24 39 0 39 46 c 0
 39 96 64 122 114 122 c 0
 165 122 188 96 188 46 c 0
EndSplineSet
EndChar
StartChar: uni0E48.low_left
Encoding: 134 63237 104
OldEncoding: 63237
Width: 0
Flags: W
VStem: -284 65<681 938>
Fore
-284 681 m 1
 -284 938 l 1
 -219 938 l 1
 -219 681 l 1
 -284 681 l 1
EndSplineSet
EndChar
StartChar: uni0E49.low_left
Encoding: 135 63238 105
OldEncoding: 63238
Width: 0
Flags: W
HStem: 656 54<-348 -322> 742 46<-410 -397 -399 -391> 879 49<-399 -386>
VStem: -498 52<834 836> -352 55<829 836>
Fore
-297 831 m 0
 -297 796 -302 770 -312 748 c 0
 -324 730 -332 717 -339 710 c 1
 -316 710 -296 714 -273 718 c 0
 -252 724 -232 734 -212 753 c 0
 -172 786 -154 843 -154 922 c 1
 -84 922 l 1
 -84 804 -126 724 -208 686 c 0
 -250 666 -297 656 -348 656 c 0
 -368 656 -388 657 -406 662 c 0
 -426 664 -440 666 -446 668 c 1
 -440 670 -429 680 -416 692 c 0
 -404 704 -393 720 -386 746 c 0
 -387 744 -390 744 -393 744 c 0
 -399 742 -404 742 -408 742 c 0
 -420 742 -429 744 -434 746 c 0
 -477 758 -498 788 -498 834 c 0
 -498 861 -488 884 -470 902 c 0
 -452 921 -428 928 -399 928 c 0
 -366 928 -342 918 -324 900 c 0
 -304 879 -297 856 -297 831 c 0
-399 879 m 0
 -414 879 -423 874 -432 866 c 0
 -441 858 -446 846 -446 834 c 0
 -446 822 -442 812 -434 804 c 0
 -426 794 -414 788 -399 788 c 0
 -390 788 -381 790 -374 795 c 0
 -366 800 -362 806 -357 812 c 0
 -354 819 -352 825 -352 834 c 0
 -352 848 -356 860 -364 868 c 0
 -374 876 -382 879 -399 879 c 0
EndSplineSet
EndChar
StartChar: uni0E4A.low_left
Encoding: 136 63239 106
OldEncoding: 63239
Width: 0
Flags: W
HStem: 678 30<-414 -404> 783 30<-424.68 -404> 856 46<-416 -404 -302 -288>
VStem: -506 54<798 812> -376 30<740 748> -258 46<781 810> -153 49<838 860>
Fore
-414 678 m 0
 -441 680 -462 692 -480 716 c 0
 -496 740 -507 766 -506 798 c 0
 -506 826 -494 852 -478 873 c 0
 -462 891 -442 902 -414 902 c 0
 -402 902 -390 900 -381 897 c 0
 -374 891 -364 886 -357 882 c 0
 -352 876 -350 874 -350 873 c 1
 -350 873 l 1
 -346 878 -339 885 -328 891 c 0
 -318 898 -304 902 -290 902 c 0
 -262 902 -243 894 -231 874 c 0
 -219 856 -212 831 -212 798 c 0
 -212 770 -219 746 -234 726 c 1
 -226 729 -218 735 -204 744 c 0
 -192 753 -182 762 -172 774 c 0
 -159 796 -153 819 -153 840 c 0
 -153 850 -154 866 -159 886 c 1
 -110 904 l 1
 -105 890 -104 874 -104 860 c 0
 -104 816 -116 778 -138 746 c 0
 -166 704 -224 681 -308 681 c 1
 -302 690 -296 699 -286 708 c 0
 -279 717 -273 729 -266 742 c 0
 -261 756 -258 771 -258 788 c 0
 -258 807 -260 824 -264 837 c 0
 -270 849 -282 856 -300 856 c 0
 -312 856 -321 852 -328 844 c 0
 -338 836 -344 830 -346 824 c 1
 -346 824 -348 826 -352 832 c 0
 -357 837 -366 843 -375 848 c 0
 -382 852 -394 856 -406 856 c 0
 -420 856 -430 850 -440 843 c 0
 -447 832 -452 819 -452 804 c 1
 -448 806 -444 808 -435 810 c 0
 -429 812 -422 813 -414 813 c 0
 -393 813 -376 807 -364 794 c 0
 -352 782 -346 765 -346 742 c 0
 -346 728 -352 712 -366 699 c 0
 -380 686 -394 678 -414 678 c 0
-414 783 m 0
 -426 783 -435 780 -441 772 c 0
 -447 765 -452 756 -452 746 c 0
 -452 738 -447 729 -441 720 c 0
 -434 712 -426 708 -414 708 c 0
 -402 708 -393 712 -387 720 c 0
 -380 728 -376 735 -376 746 c 0
 -376 756 -380 765 -387 772 c 0
 -392 780 -402 783 -414 783 c 0
EndSplineSet
EndChar
StartChar: uni0E4B.low_left
Encoding: 137 63240 107
OldEncoding: 63240
Width: 0
Flags: W
HStem: 795 55<-448 -336 -273 -159>
VStem: -336 63<681 795 850 964>
Fore
-336 795 m 1
 -448 795 l 1
 -448 850 l 1
 -336 850 l 1
 -336 964 l 1
 -273 964 l 1
 -273 850 l 1
 -159 850 l 1
 -159 795 l 1
 -273 795 l 1
 -273 681 l 1
 -336 681 l 1
 -336 795 l 1
EndSplineSet
EndChar
StartChar: uni0E4C.low_left
Encoding: 138 63241 108
OldEncoding: 63241
Width: 0
Flags: W
HStem: 818 44<-308.364 -297>
VStem: -426 84<774 798> -256 49<774 776>
Fore
-369 820 m 0
 -368 826 -362 836 -350 846 c 0
 -338 856 -321 862 -298 862 c 0
 -270 864 -248 855 -232 837 c 0
 -216 819 -207 798 -207 774 c 0
 -207 748 -216 728 -231 708 c 0
 -248 690 -270 678 -298 678 c 0
 -339 676 -369 690 -392 712 c 0
 -414 734 -426 762 -426 798 c 0
 -426 862 -400 908 -348 928 c 1
 -326 940 -290 950 -243 952 c 0
 -195 956 -160 960 -142 966 c 0
 -123 974 -116 992 -116 1020 c 1
 -54 1020 l 1
 -54 992 -63 969 -78 952 c 0
 -93 934 -112 922 -132 915 c 0
 -154 908 -188 900 -232 898 c 0
 -278 896 -310 890 -328 882 c 0
 -350 873 -363 852 -369 820 c 0
-298 818 m 0
 -312 818 -322 813 -330 806 c 0
 -339 796 -342 786 -342 774 c 0
 -342 765 -339 754 -330 746 c 0
 -322 738 -312 732 -298 732 c 0
 -286 732 -276 738 -268 746 c 0
 -260 754 -256 765 -256 774 c 0
 -256 786 -260 796 -266 806 c 0
 -274 813 -285 818 -298 818 c 0
EndSplineSet
EndChar
StartChar: uni0E48.low
Encoding: 139 63242 109
OldEncoding: 63242
Width: 0
Flags: W
VStem: -156 64<681 938>
Fore
-156 681 m 1
 -156 938 l 1
 -92 938 l 1
 -92 681 l 1
 -156 681 l 1
EndSplineSet
EndChar
StartChar: uni0E49.low
Encoding: 140 63243 110
OldEncoding: 63243
Width: 0
Flags: W
HStem: 656 54<-296 -270> 742 46<-357 -344 -346 -338> 879 49<-346 -338>
VStem: -446 53<834 836> -300 56<829 836>
Fore
-244 831 m 0
 -244 796 -249 770 -260 748 c 0
 -272 730 -279 717 -286 710 c 1
 -262 710 -240 714 -220 718 c 0
 -200 724 -180 734 -159 753 c 0
 -120 786 -102 843 -102 922 c 1
 -32 922 l 1
 -32 804 -74 724 -156 686 c 0
 -198 666 -244 656 -296 656 c 0
 -314 656 -334 657 -352 662 c 0
 -370 664 -386 666 -392 668 c 1
 -386 670 -375 680 -362 692 c 0
 -350 704 -339 720 -332 746 c 0
 -334 744 -336 744 -340 744 c 0
 -346 742 -351 742 -356 742 c 0
 -366 742 -375 744 -381 746 c 0
 -423 758 -446 788 -446 834 c 0
 -446 861 -438 884 -418 902 c 0
 -400 921 -375 928 -346 928 c 0
 -314 928 -290 918 -272 900 c 0
 -252 879 -244 856 -244 831 c 0
-346 879 m 0
 -362 879 -374 874 -381 866 c 0
 -390 858 -393 846 -393 834 c 0
 -393 822 -390 812 -381 804 c 0
 -374 794 -362 788 -346 788 c 0
 -330 788 -321 794 -312 804 c 0
 -303 812 -300 822 -300 834 c 0
 -300 846 -303 858 -312 866 c 0
 -321 874 -330 879 -346 879 c 0
EndSplineSet
EndChar
StartChar: uni0E4A.low
Encoding: 141 63244 111
OldEncoding: 63244
Width: 0
Flags: W
HStem: 678 30<-346 -337> 783 30<-356.522 -337> 856 46<-348 -337 -234 -220>
VStem: -438 56<798 812> -309 31<740 748> -190 46<782 810> -87 51<838 862>
Fore
-346 678 m 0
 -374 680 -394 692 -412 716 c 0
 -429 738 -440 766 -438 798 c 0
 -438 826 -426 852 -410 873 c 0
 -394 891 -375 902 -346 902 c 0
 -334 902 -322 900 -314 897 c 0
 -304 891 -297 886 -290 882 c 0
 -285 876 -282 874 -282 873 c 1
 -282 873 l 1
 -278 878 -272 885 -261 891 c 0
 -250 898 -237 902 -222 902 c 0
 -195 902 -174 894 -162 874 c 0
 -152 856 -144 831 -144 798 c 0
 -144 772 -152 747 -165 726 c 1
 -158 729 -147 735 -134 744 c 0
 -122 753 -112 762 -105 774 c 0
 -93 796 -87 820 -87 843 c 0
 -87 858 -88 873 -92 886 c 1
 -42 904 l 1
 -38 890 -36 874 -36 860 c 0
 -36 816 -48 778 -69 746 c 0
 -99 704 -156 681 -238 681 c 1
 -234 690 -226 699 -219 708 c 0
 -212 717 -206 729 -198 742 c 0
 -194 756 -190 771 -190 788 c 0
 -190 807 -192 824 -196 837 c 0
 -201 849 -213 856 -232 856 c 0
 -244 856 -255 852 -262 844 c 0
 -272 836 -276 830 -278 824 c 1
 -278 824 -279 826 -285 832 c 0
 -290 837 -298 843 -308 848 c 0
 -315 852 -326 856 -339 856 c 0
 -352 856 -363 850 -370 843 c 0
 -380 832 -382 819 -382 804 c 1
 -381 806 -376 808 -368 810 c 0
 -362 812 -354 813 -346 813 c 0
 -326 813 -309 807 -297 794 c 0
 -285 782 -278 765 -278 742 c 0
 -278 728 -285 712 -298 699 c 0
 -312 686 -327 678 -346 678 c 0
-346 783 m 0
 -357 783 -368 780 -375 772 c 0
 -380 765 -382 756 -382 746 c 0
 -382 738 -380 729 -374 720 c 0
 -368 712 -357 708 -346 708 c 0
 -334 708 -326 712 -318 720 c 0
 -312 728 -309 735 -309 746 c 0
 -309 756 -312 765 -318 772 c 0
 -324 780 -334 783 -346 783 c 0
EndSplineSet
EndChar
StartChar: uni0E4B.low
Encoding: 142 63245 112
OldEncoding: 63245
Width: 0
Flags: W
HStem: 795 55<-357 -244 -180 -68>
VStem: -244 64<681 795 850 964>
Fore
-244 795 m 1
 -357 795 l 1
 -357 850 l 1
 -244 850 l 1
 -244 964 l 1
 -180 964 l 1
 -180 850 l 1
 -68 850 l 1
 -68 795 l 1
 -180 795 l 1
 -180 681 l 1
 -244 681 l 1
 -244 795 l 1
EndSplineSet
EndChar
StartChar: uni0E4C.low
Encoding: 143 63246 113
OldEncoding: 63246
Width: 0
Flags: W
HStem: 818 44<-270.909 -260>
VStem: -388 85<774 798> -219 49<764.954 777>
Fore
-332 820 m 1
 -328 826 -322 836 -312 846 c 0
 -300 856 -284 862 -261 862 c 0
 -232 864 -208 855 -194 837 c 0
 -178 820 -170 800 -170 774 c 0
 -170 748 -178 728 -194 708 c 0
 -210 690 -232 678 -261 678 c 0
 -302 676 -332 688 -354 710 c 0
 -376 732 -388 762 -388 798 c 0
 -390 861 -363 904 -310 928 c 0
 -285 940 -249 950 -201 951 c 0
 -156 952 -123 957 -105 964 c 0
 -87 970 -76 990 -76 1020 c 1
 -16 1020 l 1
 -16 992 -26 969 -40 952 c 0
 -56 934 -75 922 -94 915 c 0
 -117 908 -152 900 -195 898 c 0
 -238 896 -272 890 -290 882 c 0
 -310 873 -324 852 -332 820 c 1
-261 818 m 0
 -274 818 -285 813 -291 806 c 0
 -300 796 -303 786 -303 774 c 0
 -303 762 -300 753 -291 744 c 0
 -284 735 -273 732 -261 732 c 0
 -249 732 -238 738 -231 746 c 0
 -222 754 -219 765 -219 774 c 0
 -219 786 -222 796 -230 806 c 0
 -237 813 -248 818 -261 818 c 0
EndSplineSet
EndChar
StartChar: uni0E0D.descless
Encoding: 144 63247 114
OldEncoding: 63247
Width: 804
Flags: W
HStem: -10 52<190 213> 0 62<346 613> 146 52<190 203> 534 52<274 304>
VStem: 94 53<94 103> 94 72<94 311> 252 50<94 103> 417 71<62 439> 646 71<110 576>
Fore
94 94 m 2
 94 300 l 2
 94 366 118 406 166 423 c 1
 158 430 141 441 118 453 c 0
 96 465 68 472 36 482 c 1
 50 500 76 522 116 548 c 0
 154 573 208 586 276 586 c 0
 417 586 488 532 488 423 c 2
 488 62 l 1
 594 62 l 2
 615 62 630 64 636 70 c 1
 642 76 646 90 646 110 c 2
 646 576 l 1
 717 576 l 1
 717 110 l 2
 717 78 714 54 706 39 c 0
 700 24 688 14 670 9 c 0
 654 3 628 0 594 0 c 2
 346 0 l 1
 346 62 l 1
 417 62 l 1
 417 423 l 2
 417 459 405 488 381 507 c 0
 357 525 326 534 286 534 c 0
 237 534 186 520 138 492 c 1
 148 488 166 480 192 468 c 0
 218 456 238 441 261 420 c 1
 252 420 243 418 230 414 c 0
 216 408 201 399 186 381 c 0
 172 363 166 338 166 303 c 2
 166 192 l 1
 171 196 183 198 201 198 c 0
 234 198 258 188 276 168 c 0
 292 147 302 123 302 94 c 0
 302 66 292 42 276 22 c 0
 258 0 234 -10 201 -10 c 0
 171 -10 146 0 126 18 c 0
 105 38 94 63 94 94 c 2
200 42 m 0
 218 42 231 48 238 57 c 0
 248 68 252 80 252 94 c 0
 252 108 248 120 238 130 c 0
 230 141 216 146 200 146 c 0
 184 146 171 141 162 130 c 0
 153 120 147 108 147 94 c 0
 147 80 153 68 160 57 c 0
 171 48 184 42 200 42 c 0
EndSplineSet
EndChar
StartChar: quoteleft
Encoding: 145 8216 115
OldEncoding: 8216
Width: 204
VWidth: 2048
Flags: W
Fore
-10 693 m 0
 -12 746 3 788 34 816 c 0
 64 844 99 861 135 868 c 1
 153 868 160 864 160 858 c 0
 160 856 159 852 156 849 c 1
 141 844 122 832 96 816 c 0
 70 800 57 780 54 756 c 1
 69 759 l 1
 92 765 l 1
 142 759 168 732 170 686 c 0
 170 663 162 642 147 627 c 0
 135 610 116 602 92 602 c 0
 27 602 -8 632 -10 693 c 0
EndSplineSet
EndChar
StartChar: quoteright
Encoding: 146 8217 116
OldEncoding: 8217
Width: 204
VWidth: 2048
Flags: W
Fore
192 760 m 4
 192 706 177 668 146 639 c 4
 116 612 81 596 44 588 c 5
 27 588 16 591 16 598 c 4
 16 600 18 603 24 608 c 5
 38 612 57 624 82 640 c 4
 106 654 122 675 128 700 c 5
 110 696 l 5
 90 692 l 5
 39 699 14 724 14 772 c 4
 14 795 21 813 36 830 c 4
 48 846 68 852 93 852 c 4
 156 852 190 822 192 760 c 4
EndSplineSet
EndChar
StartChar: quotedblleft
Encoding: 147 8220 117
OldEncoding: 8220
Width: 382
VWidth: 2048
Flags: W
Fore
200 694 m 0
 200 747 213 790 244 819 c 0
 274 848 309 864 346 872 c 1
 363 872 374 868 374 861 c 1
 368 852 l 1
 366 850 l 2
 354 848 334 836 308 818 c 0
 284 804 268 783 264 758 c 1
 279 762 l 1
 300 766 l 1
 352 760 378 735 380 687 c 0
 380 664 374 646 357 630 c 0
 346 614 326 604 302 604 c 0
 237 603 204 634 200 694 c 0
-10 693 m 4
 -12 746 3 788 34 816 c 4
 64 844 99 861 135 868 c 5
 153 868 160 864 160 858 c 4
 160 856 159 852 156 849 c 5
 141 844 122 832 96 816 c 4
 70 800 57 780 54 756 c 5
 69 759 l 5
 92 765 l 5
 142 759 168 732 170 686 c 4
 170 663 162 642 147 627 c 4
 135 610 116 602 92 602 c 4
 27 602 -8 632 -10 693 c 4
EndSplineSet
EndChar
StartChar: quotedblright
Encoding: 148 8221 118
OldEncoding: 8221
Width: 382
VWidth: 2048
Flags: W
Fore
192 760 m 4
 192 708 177 668 146 639 c 4
 116 612 81 596 44 588 c 5
 26 588 16 591 16 598 c 4
 16 600 18 603 22 608 c 5
 36 612 56 624 84 640 c 4
 108 654 122 675 128 700 c 5
 112 696 l 5
 90 692 l 5
 39 699 14 724 14 772 c 4
 14 795 21 813 36 830 c 4
 48 846 68 852 92 852 c 4
 156 852 190 822 192 760 c 4
402 760 m 4
 402 706 388 668 356 639 c 4
 326 612 291 596 255 588 c 5
 237 588 230 591 230 598 c 4
 230 600 231 603 234 608 c 5
 248 612 268 624 296 640 c 4
 318 654 332 675 338 700 c 5
 322 696 l 5
 300 692 l 5
 249 699 224 724 224 772 c 4
 224 795 231 813 246 830 c 4
 258 846 278 852 302 852 c 4
 368 852 400 822 402 760 c 4
EndSplineSet
EndChar
StartChar: bullet
Encoding: 149 8226 119
OldEncoding: 8226
Width: 304
VWidth: 2048
Flags: W
Fore
144 172 m 0
 93 172 52 190 24 222 c 0
 -4 255 -18 291 -18 336 c 0
 -18 364 -12 392 0 416 c 0
 15 441 34 460 56 477 c 0
 80 492 110 498 144 498 c 0
 180 498 210 492 234 477 c 0
 258 460 276 441 290 417 c 1
 302 392 308 364 308 336 c 0
 308 291 292 252 264 220 c 0
 237 190 196 172 144 172 c 0
EndSplineSet
EndChar
StartChar: endash
Encoding: 150 8211 120
OldEncoding: 8211
Width: 901
VWidth: 2048
Flags: W
HStem: 290 48<-30 879>
Fore
-30 290 m 1
 -30 338 l 1
 879 338 l 1
 879 290 l 1
 -30 290 l 1
EndSplineSet
EndChar
StartChar: emdash
Encoding: 151 8212 121
OldEncoding: 8212
Width: 1804
VWidth: 2048
Flags: W
HStem: 290 48<-84 1782>
Fore
-84 290 m 1
 -84 338 l 1
 1782 338 l 1
 1782 290 l 1
 -84 290 l 1
EndSplineSet
EndChar
StartChar: uni0E31.left
Encoding: 152 63248 122
OldEncoding: 63248
Width: 0
Flags: W
HStem: 681 60<-250 -231> 870 48<-385.7 -372>
VStem: -472 49<807 826> -326 53<809.124 826>
Fore
-472 807 m 1
 -472 838 -465 866 -447 886 c 0
 -430 909 -406 918 -375 918 c 0
 -342 918 -318 909 -300 890 c 0
 -282 872 -273 848 -273 820 c 0
 -273 792 -284 768 -303 748 c 1
 -298 747 -288 746 -274 744 c 0
 -261 742 -250 741 -244 741 c 0
 -194 742 -147 759 -106 788 c 0
 -64 819 -38 856 -26 902 c 1
 36 873 l 1
 26 840 8 808 -21 780 c 0
 -50 752 -82 728 -122 708 c 0
 -160 690 -204 681 -248 681 c 0
 -308 681 -357 692 -400 710 c 0
 -442 730 -468 762 -472 807 c 1
-375 771 m 0
 -360 771 -348 777 -339 786 c 0
 -330 795 -326 807 -326 820 c 0
 -326 834 -328 846 -338 856 c 0
 -346 864 -360 870 -375 870 c 0
 -390 870 -404 864 -412 856 c 0
 -420 846 -423 834 -423 820 c 0
 -423 808 -418 796 -410 786 c 0
 -402 777 -390 771 -375 771 c 0
EndSplineSet
EndChar
StartChar: uni0E4D.left
Encoding: 153 63249 123
OldEncoding: 63249
Width: 0
Flags: W
HStem: 648 46<-352 -345> 808 48<-352 -345>
VStem: -458 48<753 761> -296 47<753 761>
Fore
-352 648 m 0
 -386 648 -410 657 -429 680 c 0
 -447 700 -458 724 -458 753 c 0
 -458 780 -447 804 -429 824 c 0
 -410 846 -386 856 -352 856 c 0
 -321 856 -296 846 -276 825 c 0
 -258 806 -249 782 -249 753 c 0
 -249 724 -258 699 -276 678 c 0
 -296 657 -321 648 -352 648 c 0
-352 808 m 0
 -370 808 -386 804 -394 792 c 0
 -405 780 -410 768 -410 753 c 0
 -410 738 -405 724 -394 712 c 0
 -386 700 -370 694 -352 694 c 0
 -334 694 -321 700 -310 712 c 0
 -300 724 -296 738 -296 753 c 0
 -296 760 -297 770 -302 778 c 0
 -308 786 -314 795 -322 800 c 0
 -330 806 -340 808 -352 808 c 0
EndSplineSet
EndChar
StartChar: uni0E47.left
Encoding: 154 63250 124
OldEncoding: 63250
Width: 0
Flags: W
HStem: 681 39<-293.528 -281> 762 56<-442 -430.431> 796 38<-295.522 -281> 872 46<-357 -311> 876 50<-449 -420>
VStem: -586 50<810 822> -246 39<759 769>
Fore
-284 681 m 0
 -298 681 -312 686 -326 693 c 0
 -340 702 -356 712 -374 726 c 0
 -388 738 -402 747 -412 754 c 0
 -420 759 -430 762 -442 762 c 0
 -468 760 -484 752 -494 730 c 0
 -501 708 -507 692 -508 678 c 1
 -531 690 -549 708 -564 735 c 0
 -579 762 -586 790 -586 818 c 0
 -586 834 -585 848 -579 860 c 0
 -561 903 -518 926 -447 926 c 0
 -429 926 -414 926 -404 924 c 0
 -378 921 -354 918 -332 918 c 0
 -302 918 -278 924 -262 936 c 0
 -248 946 -240 964 -240 993 c 1
 -186 993 l 1
 -186 948 -198 916 -222 898 c 0
 -248 879 -286 872 -342 872 c 0
 -364 872 -392 873 -420 876 c 1
 -459 876 -488 873 -507 864 c 0
 -525 856 -536 843 -536 820 c 0
 -536 806 -531 788 -520 766 c 1
 -518 774 -508 784 -496 798 c 0
 -484 810 -466 818 -442 818 c 0
 -423 818 -405 812 -390 804 c 0
 -375 794 -364 784 -357 778 c 1
 -346 816 -322 834 -284 834 c 0
 -260 834 -240 826 -226 812 c 0
 -213 796 -207 780 -207 759 c 0
 -207 740 -213 720 -226 705 c 0
 -240 690 -260 681 -284 681 c 0
-284 720 m 0
 -272 720 -261 724 -255 732 c 0
 -249 740 -246 747 -246 759 c 0
 -246 771 -249 780 -255 786 c 0
 -261 794 -272 796 -284 796 c 0
 -296 796 -303 794 -312 786 c 1
 -318 778 -322 770 -322 759 c 0
 -322 748 -318 741 -312 732 c 0
 -304 724 -296 720 -284 720 c 0
EndSplineSet
EndChar
StartChar: uni0E48.left
Encoding: 155 63251 125
OldEncoding: 63251
Width: 0
Flags: W
VStem: -276 64<1048 1248>
Fore
-276 1048 m 1
 -276 1248 l 1
 -212 1248 l 1
 -212 1048 l 1
 -276 1048 l 1
EndSplineSet
EndChar
StartChar: uni0E49.left
Encoding: 156 63252 126
OldEncoding: 63252
Width: 0
Flags: W
HStem: 999 48<-324 -294.368> 1078 40<-369 -356> 1200 44<-369 -361>
VStem: -458 48<1160 1162> -327 51<1154 1162>
Fore
-276 1155 m 0
 -274 1125 -282 1101 -290 1083 c 0
 -300 1065 -309 1053 -315 1047 c 1
 -300 1047 -288 1048 -276 1052 c 0
 -264 1053 -252 1054 -240 1059 c 0
 -230 1065 -216 1072 -200 1084 c 0
 -180 1104 -166 1124 -159 1149 c 0
 -154 1174 -152 1203 -152 1238 c 1
 -88 1238 l 1
 -88 1131 -123 1060 -196 1026 c 0
 -232 1006 -274 999 -324 999 c 0
 -344 999 -363 1000 -378 1002 c 0
 -393 1005 -405 1006 -410 1008 c 1
 -404 1012 -394 1018 -382 1029 c 0
 -370 1041 -362 1056 -356 1078 c 1
 -357 1078 -360 1078 -363 1077 c 0
 -368 1074 -374 1074 -378 1074 c 0
 -382 1074 -392 1077 -400 1078 c 0
 -440 1090 -458 1118 -458 1160 c 0
 -458 1174 -454 1190 -447 1202 c 0
 -440 1215 -429 1226 -416 1234 c 0
 -402 1240 -387 1244 -369 1244 c 0
 -340 1244 -316 1236 -302 1218 c 0
 -286 1200 -276 1179 -276 1155 c 0
-369 1200 m 0
 -381 1200 -392 1197 -400 1188 c 0
 -406 1179 -410 1172 -410 1160 c 0
 -410 1148 -406 1137 -400 1131 c 0
 -392 1122 -381 1118 -369 1118 c 0
 -356 1118 -346 1122 -338 1131 c 0
 -330 1138 -327 1148 -327 1160 c 0
 -327 1170 -330 1179 -338 1188 c 0
 -346 1197 -356 1200 -369 1200 c 0
EndSplineSet
EndChar
StartChar: uni0E4A.left
Encoding: 157 63253 127
OldEncoding: 63253
Width: 0
Flags: W
HStem: 1014 30<-446 -438> 1119 30<-456.299 -438> 1191 47<-448 -438 -334 -320>
VStem: -537 54<1134 1148> -408 30<1076 1084> -290 46<1117 1150> -184 49<1176 1198>
Fore
-446 1014 m 0
 -472 1016 -495 1029 -512 1053 c 0
 -530 1077 -538 1104 -537 1134 c 0
 -537 1162 -525 1188 -510 1208 c 0
 -495 1227 -474 1238 -446 1238 c 0
 -434 1238 -423 1236 -416 1233 c 0
 -405 1227 -396 1222 -390 1216 c 0
 -386 1212 -381 1209 -381 1209 c 1
 -378 1214 -370 1218 -362 1227 c 0
 -351 1234 -338 1238 -322 1238 c 0
 -270 1238 -244 1203 -244 1134 c 0
 -244 1108 -250 1084 -264 1060 c 1
 -256 1065 -246 1071 -234 1080 c 0
 -222 1088 -212 1098 -206 1110 c 0
 -192 1131 -184 1152 -184 1178 c 0
 -184 1186 -186 1202 -192 1224 c 1
 -141 1240 l 1
 -138 1230 -135 1216 -135 1198 c 0
 -135 1152 -147 1113 -170 1082 c 0
 -198 1040 -256 1018 -339 1018 c 1
 -334 1026 -327 1034 -318 1044 c 0
 -312 1053 -304 1065 -300 1078 c 0
 -292 1092 -290 1107 -290 1124 c 0
 -290 1144 -291 1161 -297 1173 c 0
 -302 1185 -314 1191 -332 1191 c 0
 -344 1191 -352 1188 -362 1179 c 0
 -369 1172 -376 1164 -378 1160 c 1
 -381 1164 -388 1172 -396 1179 c 0
 -405 1188 -420 1191 -440 1191 c 0
 -453 1191 -462 1186 -471 1178 c 0
 -480 1170 -483 1156 -483 1138 c 1
 -482 1140 -477 1143 -470 1146 c 0
 -462 1148 -454 1149 -446 1149 c 0
 -423 1149 -406 1143 -394 1131 c 0
 -382 1119 -378 1100 -378 1078 c 0
 -378 1064 -386 1047 -399 1034 c 0
 -412 1020 -428 1014 -446 1014 c 0
-446 1119 m 0
 -458 1119 -466 1116 -472 1107 c 0
 -480 1098 -483 1090 -483 1082 c 0
 -483 1071 -480 1064 -472 1056 c 0
 -466 1047 -458 1044 -446 1044 c 0
 -434 1044 -423 1047 -418 1056 c 1
 -412 1060 -408 1070 -408 1082 c 0
 -408 1092 -412 1100 -418 1108 c 0
 -423 1116 -434 1119 -446 1119 c 0
EndSplineSet
EndChar
StartChar: uni0E4B.left
Encoding: 158 63254 128
OldEncoding: 63254
Width: 0
Flags: W
HStem: 1101 59<-381 -276 -212 -105>
VStem: -276 64<1018 1101 1160 1244>
Fore
-276 1101 m 1
 -381 1101 l 1
 -381 1160 l 1
 -276 1160 l 1
 -276 1244 l 1
 -212 1244 l 1
 -212 1160 l 1
 -105 1160 l 1
 -105 1101 l 1
 -212 1101 l 1
 -212 1018 l 1
 -276 1018 l 1
 -276 1101 l 1
EndSplineSet
EndChar
StartChar: uni0E4C.left
Encoding: 159 63255 129
OldEncoding: 63255
Width: 0
Flags: W
HStem: 948 45<-268 -257.497>
VStem: -376 73<1029 1052> -231 41<1026 1031>
Fore
-327 1070 m 0
 -326 1074 -318 1083 -310 1092 c 0
 -302 1100 -286 1104 -268 1106 c 1
 -244 1104 -225 1096 -210 1082 c 0
 -196 1066 -190 1048 -190 1028 c 0
 -190 1006 -196 988 -210 974 c 0
 -224 957 -243 948 -268 948 c 0
 -302 946 -328 957 -348 976 c 0
 -366 994 -376 1018 -376 1052 c 0
 -376 1104 -354 1143 -310 1162 c 0
 -290 1173 -260 1178 -220 1179 c 0
 -182 1182 -153 1186 -135 1194 c 0
 -118 1198 -110 1215 -110 1240 c 1
 -60 1240 l 1
 -60 1215 -66 1197 -80 1182 c 0
 -93 1166 -108 1156 -126 1150 c 0
 -147 1143 -177 1137 -212 1136 c 0
 -248 1134 -274 1130 -291 1122 c 0
 -310 1116 -322 1098 -327 1070 c 0
-268 1065 m 0
 -291 1065 -303 1053 -303 1029 c 0
 -303 1020 -300 1012 -292 1005 c 0
 -288 996 -279 993 -268 993 c 0
 -256 993 -248 996 -240 1004 c 0
 -234 1012 -231 1020 -231 1029 c 0
 -231 1040 -234 1047 -240 1054 c 0
 -246 1060 -256 1065 -268 1065 c 0
EndSplineSet
EndChar
StartChar: uni0E01
Encoding: 161 3585 131
OldEncoding: 3585
Width: 615
Flags: W
HStem: 0 21G<94 166 456 526> 525 61<275 309>
VStem: 94 72<0 305> 456 70<0 408>
Fore
36 453 m 1
 51 474 81 504 126 537 c 0
 170 570 226 586 297 586 c 0
 339 586 378 579 414 566 c 0
 448 552 477 532 496 504 c 0
 518 474 526 440 526 400 c 2
 526 0 l 1
 456 0 l 1
 456 400 l 2
 456 426 448 447 434 466 c 0
 420 484 402 500 378 510 c 0
 354 520 327 525 298 525 c 0
 237 525 184 507 141 470 c 1
 152 468 168 460 192 452 c 0
 216 441 237 426 258 406 c 1
 243 404 224 393 201 376 c 0
 178 360 166 330 166 290 c 2
 166 0 l 1
 94 0 l 1
 94 286 l 2
 94 321 102 346 114 364 c 0
 128 381 144 394 162 404 c 1
 154 410 141 418 118 430 c 0
 96 442 68 452 36 453 c 1
EndSplineSet
EndChar
StartChar: uni0E02
Encoding: 162 3586 132
OldEncoding: 3586
Width: 624
Flags: W
HStem: 0 62<180 437> 339 54<130 148> 532 54<204 229>
VStem: 36 57<444 466> 250 72<62 273> 312 66<434 448> 466 71<110 576>
Fore
206 586 m 0
 240 586 272 579 297 566 c 0
 322 550 342 532 357 510 c 0
 370 488 378 465 378 440 c 0
 378 417 376 400 370 388 c 0
 366 376 360 364 351 350 c 0
 340 334 334 322 328 310 c 0
 324 298 322 279 322 255 c 2
 322 62 l 1
 414 62 l 2
 435 62 452 64 458 70 c 0
 462 76 466 90 466 110 c 2
 466 576 l 1
 537 576 l 1
 537 110 l 2
 537 64 530 34 513 21 c 0
 496 8 462 0 414 0 c 2
 180 0 l 1
 180 62 l 1
 250 62 l 1
 250 264 l 2
 250 285 252 302 258 314 c 0
 261 324 268 336 278 351 c 0
 288 364 297 376 302 388 c 0
 308 400 310 416 312 434 c 0
 312 462 303 486 285 506 c 0
 266 524 243 532 218 532 c 0
 212 532 204 531 192 530 c 1
 201 526 213 519 230 506 c 0
 244 492 252 468 250 434 c 0
 250 404 237 380 218 364 c 0
 195 348 166 339 130 339 c 1
 68 348 36 390 36 466 c 1
 40 501 62 532 96 555 c 0
 132 576 168 586 206 586 c 0
146 498 m 0
 129 498 116 494 106 483 c 0
 99 472 93 460 93 446 c 0
 93 432 99 420 106 410 c 0
 116 399 129 393 146 393 c 0
 162 393 177 399 184 410 c 0
 194 420 198 432 198 446 c 0
 198 460 194 472 184 483 c 0
 177 494 162 498 146 498 c 0
EndSplineSet
EndChar
StartChar: uni0E03
Encoding: 163 3587 133
OldEncoding: 3587
Width: 663
Flags: W
HStem: 0 62<219 475> 258 52<130 139> 416 49<121 132>
VStem: 10 68<363 400> 183 54<360 372> 290 72<62 385> 352 62<476 487> 506 70<110 576>
Fore
414 478 m 0
 414 466 412 456 406 448 c 0
 402 442 396 435 388 428 c 0
 380 420 374 412 368 404 c 0
 363 394 362 382 362 368 c 2
 362 62 l 1
 453 62 l 2
 474 62 490 64 495 70 c 1
 501 76 506 90 506 110 c 2
 506 576 l 1
 576 576 l 1
 576 110 l 2
 576 64 568 34 552 21 c 0
 537 8 504 0 453 0 c 2
 219 0 l 1
 219 62 l 1
 290 62 l 1
 290 370 l 2
 290 392 291 406 297 418 c 0
 302 429 309 438 315 444 c 0
 321 448 330 456 342 465 c 0
 350 470 352 474 352 483 c 0
 352 492 348 504 336 516 c 0
 324 525 314 532 303 534 c 1
 234 486 l 1
 153 534 l 1
 129 530 110 516 99 496 c 0
 84 478 78 460 78 446 c 1
 80 448 87 453 94 458 c 0
 104 462 116 465 132 465 c 0
 160 462 186 454 207 440 c 0
 226 422 237 396 237 362 c 0
 237 328 225 303 204 285 c 0
 182 266 156 258 130 258 c 0
 96 258 66 272 44 297 c 0
 21 324 10 357 10 400 c 0
 10 426 14 452 22 472 c 1
 30 507 51 534 81 556 c 0
 110 576 138 586 159 586 c 1
 234 540 l 1
 300 586 l 1
 328 578 354 564 378 546 c 0
 402 526 414 504 414 478 c 0
130 416 m 0
 116 416 102 410 93 400 c 0
 82 390 78 378 78 363 c 0
 78 350 82 338 93 327 c 0
 102 315 116 310 130 310 c 0
 147 310 160 315 170 326 c 0
 178 338 183 350 183 363 c 0
 183 378 178 390 170 400 c 0
 160 410 147 416 130 416 c 0
EndSplineSet
EndChar
StartChar: uni0E04
Encoding: 164 3588 134
OldEncoding: 3588
Width: 621
Flags: W
HStem: 0 21G<146 216 462 534> 240 51<267.629 291> 396 52<279 293> 534 57<265 299>
VStem: 42 70<367 401> 146 70<0 261> 332 50<344 353> 462 72<0 401>
Fore
112 381 m 0
 112 362 118 338 130 312 c 0
 142 286 148 266 153 250 c 1
 153 304 l 2
 153 348 162 381 184 408 c 0
 207 435 238 448 279 448 c 0
 312 448 338 440 356 418 c 0
 375 399 382 374 382 344 c 0
 382 315 375 291 356 272 c 0
 338 250 312 240 279 240 c 0
 250 240 230 248 216 261 c 1
 216 0 l 1
 146 0 l 1
 146 104 l 2
 146 129 142 152 134 171 c 0
 126 190 112 213 93 243 c 0
 75 272 63 296 54 315 c 0
 46 334 42 357 42 386 c 0
 42 429 54 466 78 496 c 0
 102 530 132 552 171 568 c 0
 208 584 249 591 291 591 c 0
 357 591 414 573 460 538 c 0
 510 504 534 456 534 392 c 2
 534 0 l 1
 462 0 l 1
 462 386 l 2
 462 432 446 470 410 495 c 0
 375 520 334 534 286 534 c 0
 237 534 196 520 162 495 c 0
 129 470 112 430 112 381 c 0
279 396 m 0
 262 396 249 392 240 381 c 0
 232 370 226 360 226 344 c 0
 226 330 232 318 240 309 c 0
 249 297 262 291 279 291 c 0
 297 291 310 297 318 309 c 0
 327 318 332 330 332 344 c 0
 332 360 327 370 318 381 c 0
 310 392 297 396 279 396 c 0
EndSplineSet
EndChar
StartChar: uni0E05
Encoding: 165 3589 135
OldEncoding: 3589
Width: 621
Flags: W
HStem: 0 21G<146 216 462 534> 240 51<279 283> 396 52<279 283>
VStem: 42 70<367 386> 146 70<0 261> 332 50<344 353> 462 72<0 410>
DStem: 400 586 396 526 303 520 303 466
Fore
42 386 m 0
 42 423 57 462 90 500 c 0
 122 537 159 566 206 586 c 1
 303 520 l 1
 400 586 l 1
 490 544 534 478 534 392 c 2
 534 0 l 1
 462 0 l 1
 462 386 l 2
 462 410 460 432 458 448 c 0
 453 466 447 480 441 488 c 0
 435 496 428 504 418 510 c 0
 410 518 402 522 396 526 c 1
 303 466 l 1
 303 468 291 474 270 490 c 0
 248 506 226 518 212 526 c 1
 177 510 153 490 138 466 c 0
 122 441 114 414 112 381 c 0
 112 362 118 338 130 312 c 0
 142 286 148 266 153 250 c 1
 153 304 l 2
 153 348 162 381 184 408 c 0
 207 435 238 448 279 448 c 0
 312 448 338 440 356 418 c 0
 375 399 382 374 382 344 c 0
 382 315 375 291 356 272 c 0
 338 250 312 240 279 240 c 0
 250 240 230 248 216 261 c 1
 216 0 l 1
 146 0 l 1
 146 104 l 2
 146 129 142 152 134 171 c 0
 126 190 112 213 93 243 c 0
 75 272 63 296 54 315 c 0
 46 334 42 357 42 386 c 0
279 396 m 0
 262 396 249 392 240 381 c 0
 232 370 226 360 226 344 c 0
 226 330 232 318 240 309 c 0
 249 297 262 291 279 291 c 0
 297 291 310 297 318 309 c 0
 327 318 332 330 332 344 c 0
 332 360 327 370 318 381 c 0
 310 392 297 396 279 396 c 0
EndSplineSet
EndChar
StartChar: uni0E06
Encoding: 166 3590 136
OldEncoding: 3590
Width: 777
Flags: W
HStem: -10 60<268.284 283> 0 21G<618 690> 258 52<146 155>
VStem: 26 67<363 400> 171 60<101 123> 198 52<357 375> 303 72<74 195 249 375> 368 60<476 487> 618 72<0 12.9366 120 576>
Fore
303 250 m 1
 303 370 l 2
 303 390 308 406 312 418 c 0
 316 430 322 440 330 446 c 0
 338 452 346 458 357 465 c 0
 364 470 368 474 368 483 c 0
 368 494 363 504 351 516 c 0
 339 525 327 532 318 534 c 1
 248 486 l 1
 166 534 l 1
 144 530 128 516 112 496 c 0
 99 478 92 460 92 446 c 1
 94 448 100 453 108 458 c 0
 117 462 130 465 146 465 c 0
 174 462 200 454 220 438 c 0
 240 422 250 396 250 362 c 0
 250 328 238 303 218 285 c 0
 195 266 171 258 146 258 c 0
 110 258 81 272 60 297 c 0
 38 324 26 357 26 400 c 0
 26 423 28 447 36 472 c 0
 46 507 66 534 94 556 c 0
 123 576 152 586 172 586 c 1
 248 540 l 1
 315 586 l 1
 342 578 368 564 392 546 c 0
 416 526 428 504 428 478 c 0
 428 466 426 456 420 448 c 0
 416 442 410 435 402 428 c 0
 393 418 387 412 381 404 c 0
 376 394 375 382 375 368 c 2
 375 250 l 1
 412 248 447 238 482 224 c 0
 513 210 543 194 566 174 c 0
 590 154 608 135 618 120 c 1
 618 576 l 1
 690 576 l 1
 690 0 l 1
 618 0 l 1
 618 22 609 48 586 76 c 0
 564 105 534 132 495 154 c 0
 458 177 417 190 375 195 c 1
 375 88 l 2
 375 57 366 34 351 16 c 0
 334 -2 310 -10 279 -10 c 0
 246 -10 219 2 200 27 c 0
 182 51 171 80 171 114 c 0
 171 148 183 182 207 208 c 0
 230 234 261 249 303 250 c 1
248 64 m 0
 256 54 266 50 278 50 c 0
 296 50 303 60 303 78 c 2
 303 198 l 1
 279 198 261 190 249 174 c 0
 237 158 231 140 231 117 c 0
 231 94 236 76 248 64 c 0
146 416 m 0
 129 416 116 410 106 400 c 0
 99 392 93 378 93 363 c 0
 93 350 99 338 106 326 c 0
 116 315 129 310 146 310 c 0
 162 310 177 315 184 326 c 0
 194 336 198 348 198 363 c 0
 198 378 194 392 184 400 c 0
 177 410 162 416 146 416 c 0
EndSplineSet
EndChar
StartChar: uni0E07
Encoding: 167 3591 137
OldEncoding: 3591
Width: 487
Flags: W
HStem: -12 64<295 312> 375 53<282.784 305> 531 53<284.405 305>
VStem: 192 51<480 485> 328 72<68 381> 350 50<476 485>
DStem: 26 362 81 392 216 39 273 70
Fore
328 80 m 2
 328 381 l 1
 321 376 310 375 296 375 c 0
 262 375 237 386 219 406 c 0
 200 428 192 452 192 480 c 0
 192 508 200 534 219 555 c 0
 237 573 262 584 296 584 c 0
 316 584 336 578 351 570 c 0
 366 561 380 548 388 532 c 0
 396 518 400 498 400 478 c 2
 400 75 l 2
 400 48 392 26 375 10 c 0
 357 -4 336 -12 310 -12 c 0
 291 -12 274 -9 258 0 c 0
 243 9 225 21 216 39 c 2
 26 362 l 1
 81 392 l 1
 273 70 l 2
 279 60 290 52 303 52 c 0
 312 52 316 54 322 60 c 0
 327 64 328 70 328 80 c 2
296 531 m 0
 279 531 266 525 258 516 c 0
 248 504 243 492 243 480 c 0
 243 466 248 454 256 444 c 0
 266 432 279 428 296 428 c 0
 312 428 326 432 336 444 c 0
 344 454 350 466 350 480 c 0
 350 492 344 504 334 516 c 0
 324 525 310 531 296 531 c 0
EndSplineSet
EndChar
StartChar: uni0E08
Encoding: 168 3592 138
OldEncoding: 3592
Width: 579
Flags: W
HStem: 0 21G<420 492> 210 51<233.374 245> 364 56<229.958 247> 532 54<262 284>
VStem: 141 51<303 320> 420 72<0 31.5172 234 401>
Fore
244 420 m 0
 278 420 308 410 332 386 c 0
 357 360 375 330 392 296 c 0
 406 261 418 240 420 234 c 1
 420 396 l 2
 420 440 405 472 376 495 c 0
 346 519 309 532 262 532 c 0
 186 534 126 501 81 440 c 1
 36 474 l 1
 52 504 81 530 122 552 c 0
 162 574 210 586 264 586 c 0
 308 586 346 579 381 564 c 0
 416 549 442 530 460 500 c 0
 482 471 492 438 492 396 c 2
 492 0 l 1
 420 0 l 1
 420 32 417 68 408 105 c 0
 400 141 388 174 376 206 c 0
 363 236 350 258 338 273 c 1
 334 262 326 250 312 236 c 0
 297 220 274 212 244 210 c 0
 216 210 190 220 171 240 c 0
 152 261 141 286 141 318 c 0
 141 350 152 374 170 392 c 0
 188 410 212 420 244 420 c 0
244 364 m 0
 226 364 213 360 206 350 c 0
 196 339 192 327 192 314 c 0
 192 300 196 288 207 278 c 0
 216 266 230 261 244 261 c 0
 260 261 273 266 282 276 c 0
 290 286 296 298 296 314 c 0
 296 327 291 339 284 350 c 0
 274 360 261 364 244 364 c 0
EndSplineSet
EndChar
StartChar: uni0E09
Encoding: 169 3593 139
OldEncoding: 3593
Width: 663
Flags: W
HStem: -10 56<537 552> 0 21G<172 244> 195 51<141 149> 351 53<141 149> 531 55<318 341>
VStem: 36 52<293 302> 172 72<0 12.8581 0 297> 194 50<293 302> 470 70<53 192 247 406> 597 54<114 125>
Fore
244 297 m 2
 244 123 l 1
 270 159 303 186 346 208 c 0
 387 230 428 243 470 248 c 1
 470 396 l 2
 470 440 456 472 429 495 c 0
 402 519 364 531 318 531 c 0
 279 531 244 520 212 501 c 0
 182 483 158 459 141 434 c 1
 94 470 l 1
 117 501 146 531 184 552 c 0
 224 574 270 586 318 586 c 0
 386 586 440 570 480 536 c 0
 520 504 540 456 540 396 c 2
 540 248 l 1
 576 240 604 225 624 204 c 0
 642 180 651 148 651 114 c 0
 651 78 640 48 618 26 c 0
 597 2 570 -10 537 -10 c 0
 518 -10 500 -3 488 9 c 0
 477 21 470 38 470 57 c 2
 470 192 l 1
 428 183 390 170 354 148 c 0
 318 128 291 104 273 76 c 0
 255 50 244 24 244 0 c 1
 172 0 l 1
 172 201 l 1
 166 196 156 195 141 195 c 0
 108 195 82 206 64 226 c 0
 46 248 36 272 36 300 c 0
 36 328 44 352 63 374 c 0
 81 393 106 404 141 404 c 0
 172 404 196 393 216 374 c 0
 234 352 244 327 244 297 c 2
141 351 m 0
 123 351 110 346 102 336 c 0
 93 326 88 314 88 298 c 0
 88 284 93 272 102 261 c 0
 110 250 123 246 141 246 c 0
 158 246 171 250 180 261 c 0
 188 273 194 285 194 298 c 0
 194 314 188 326 180 336 c 0
 171 346 158 351 141 351 c 0
597 114 m 0
 597 134 591 153 584 168 c 0
 573 182 560 190 540 192 c 1
 540 62 l 2
 540 51 544 46 550 46 c 0
 562 46 574 52 584 66 c 0
 591 80 597 94 597 114 c 0
EndSplineSet
EndChar
StartChar: uni0E0A
Encoding: 170 3594 140
OldEncoding: 3594
Width: 624
Flags: W
HStem: 0 62<180 437> 339 54<130 148> 434 50<368 378> 532 54<204 229>
VStem: 36 57<444 466> 250 72<62 273> 466 71<110 352>
Fore
456 462 m 1
 460 462 471 460 483 456 c 0
 495 452 507 441 519 422 c 0
 531 404 537 378 537 346 c 2
 537 110 l 2
 537 64 530 34 513 21 c 0
 496 8 462 0 414 0 c 2
 180 0 l 1
 180 62 l 1
 250 62 l 1
 250 264 l 2
 250 285 252 302 258 314 c 0
 261 324 268 336 278 351 c 0
 288 364 297 376 302 388 c 0
 308 400 310 416 312 434 c 0
 312 462 303 486 285 506 c 0
 266 524 243 532 218 532 c 0
 212 532 204 531 192 530 c 1
 201 526 213 519 230 506 c 0
 244 492 252 468 250 434 c 0
 250 404 237 380 218 364 c 0
 195 348 166 339 130 339 c 1
 68 348 36 390 36 466 c 1
 40 501 62 532 96 555 c 0
 132 576 168 586 206 586 c 0
 232 586 258 582 279 573 c 0
 302 564 321 550 336 536 c 0
 351 520 362 504 368 484 c 1
 386 484 412 494 447 512 c 0
 483 530 519 564 550 618 c 1
 602 586 l 1
 584 548 560 518 530 498 c 0
 496 480 472 468 456 462 c 1
376 434 m 1
 376 416 375 399 369 387 c 0
 364 375 360 362 351 350 c 0
 342 336 334 322 328 309 c 0
 324 296 322 276 322 255 c 2
 322 62 l 1
 414 62 l 2
 435 62 452 64 458 70 c 0
 462 76 466 90 466 110 c 2
 466 332 l 2
 466 400 435 434 376 434 c 1
146 498 m 0
 129 498 116 494 106 483 c 0
 99 472 93 460 93 446 c 0
 93 432 99 420 106 410 c 0
 116 399 129 393 146 393 c 0
 162 393 177 399 184 410 c 0
 194 420 198 432 198 446 c 0
 198 460 194 472 184 483 c 0
 177 494 162 498 146 498 c 0
EndSplineSet
EndChar
StartChar: uni0E0B
Encoding: 171 3595 141
OldEncoding: 3595
Width: 663
Flags: W
HStem: 0 62<219 475> 258 52<130 139> 416 49<121 132>
VStem: 10 68<363 400> 183 54<360 372> 290 72<62 385> 506 70<110 364>
Fore
414 495 m 1
 432 500 460 512 496 534 c 0
 532 555 564 588 590 636 c 1
 642 602 l 1
 628 576 610 550 588 532 c 0
 564 512 544 500 526 492 c 0
 508 482 496 474 488 472 c 1
 504 471 522 460 544 446 c 0
 566 429 576 394 576 346 c 2
 576 110 l 2
 576 64 568 34 552 21 c 0
 537 8 504 0 453 0 c 2
 219 0 l 1
 219 62 l 1
 290 62 l 1
 290 370 l 2
 290 399 296 417 303 429 c 0
 312 441 326 453 342 465 c 0
 350 470 352 474 352 483 c 0
 352 492 348 504 336 516 c 0
 324 525 314 532 303 534 c 1
 234 486 l 1
 153 534 l 1
 129 530 110 516 99 496 c 0
 84 478 78 460 78 446 c 1
 80 448 87 453 94 458 c 0
 104 462 116 465 132 465 c 0
 160 462 186 454 207 440 c 0
 226 422 237 396 237 362 c 0
 237 328 225 303 204 285 c 0
 182 266 156 258 130 258 c 0
 96 258 66 272 44 297 c 0
 21 324 10 357 10 400 c 0
 10 426 14 452 22 472 c 1
 30 507 51 534 81 556 c 0
 110 576 138 586 159 586 c 1
 234 540 l 1
 300 586 l 1
 326 582 346 573 362 560 c 0
 378 546 392 532 400 518 c 0
 408 504 414 496 414 495 c 1
 414 495 l 1
406 446 m 1
 402 441 396 434 388 428 c 0
 378 420 370 414 368 405 c 0
 363 396 362 386 362 368 c 2
 362 62 l 1
 453 62 l 2
 474 62 490 64 495 70 c 1
 501 76 506 90 506 110 c 2
 506 346 l 2
 506 412 472 446 406 446 c 1
130 416 m 0
 116 416 102 410 93 400 c 0
 82 390 78 378 78 363 c 0
 78 350 82 338 93 327 c 0
 102 315 116 310 130 310 c 0
 147 310 160 315 170 326 c 0
 178 338 183 350 183 363 c 0
 183 378 178 390 170 400 c 0
 160 410 147 416 130 416 c 0
EndSplineSet
EndChar
StartChar: uni0E0C
Encoding: 172 3596 142
OldEncoding: 3596
Width: 804
Flags: W
HStem: -10 52<190 213> -10 64<405 420> 0 21G<646 717> 146 52<190 203> 534 52<274 304>
VStem: 94 53<94 103> 94 72<94 311> 252 50<94 105> 328 50<92 111> 417 71<67 154 211 439> 646 71<104 576>
Fore
166 303 m 2
 166 192 l 1
 171 196 183 198 201 198 c 0
 234 198 258 188 276 168 c 0
 292 147 302 123 302 94 c 0
 302 66 292 42 276 22 c 0
 258 0 234 -10 201 -10 c 0
 171 -10 146 0 126 18 c 0
 105 38 94 63 94 94 c 2
 94 300 l 2
 94 366 118 406 166 423 c 1
 158 430 141 441 118 453 c 0
 96 465 68 472 36 482 c 1
 50 500 76 522 116 548 c 0
 154 573 208 586 276 586 c 0
 417 586 488 532 488 423 c 2
 488 210 l 1
 513 206 543 194 573 174 c 0
 604 154 628 130 646 104 c 1
 646 576 l 1
 717 576 l 1
 717 0 l 1
 646 0 l 1
 639 16 630 34 621 52 c 0
 609 69 591 88 570 108 c 0
 548 128 520 142 488 154 c 1
 488 64 l 2
 488 15 466 -10 420 -10 c 0
 392 -10 369 2 352 24 c 0
 338 46 328 74 328 105 c 0
 328 134 338 159 352 180 c 0
 368 200 388 210 417 212 c 1
 417 423 l 2
 417 459 405 488 381 507 c 0
 357 525 326 534 286 534 c 0
 237 534 186 520 138 492 c 1
 148 488 166 480 192 468 c 0
 218 456 238 441 261 420 c 1
 252 420 243 418 230 414 c 0
 216 408 201 399 186 381 c 0
 172 363 166 338 166 303 c 2
417 68 m 1
 417 162 l 1
 392 158 378 138 378 99 c 0
 378 87 381 76 388 68 c 0
 393 60 400 54 405 54 c 0
 412 54 416 60 417 68 c 1
200 42 m 0
 218 42 231 48 238 57 c 0
 248 68 252 80 252 94 c 0
 252 108 248 120 238 130 c 0
 230 141 216 146 200 146 c 0
 184 146 171 141 162 130 c 0
 153 120 147 108 147 94 c 0
 147 80 153 68 160 57 c 0
 171 48 184 42 200 42 c 0
EndSplineSet
EndChar
StartChar: uni0E0D
Encoding: 173 3597 143
OldEncoding: 3597
Width: 804
Flags: W
HStem: -288 51<495 514> -110 54<440 445> -10 52<190 213> 0 62<346 614> 146 52<190 203> 534 52<274 304>
VStem: 94 53<84.0537 97> 94 72<94 321> 252 50<82.5837 97> 339 53<-161 -154> 417 71<62 433> 484 54<-156 -143> 646 71<-60 -60 110 576>
Fore
717 -60 m 1
 717 -110 706 -153 688 -186 c 0
 669 -222 644 -248 612 -262 c 0
 579 -279 548 -288 512 -288 c 0
 466 -288 426 -274 392 -250 c 0
 356 -225 339 -196 339 -159 c 0
 339 -132 348 -108 364 -87 c 0
 380 -66 406 -54 442 -56 c 0
 474 -56 498 -68 513 -87 c 0
 531 -105 538 -129 538 -156 c 0
 538 -172 536 -188 526 -204 c 0
 519 -219 508 -230 495 -237 c 1
 532 -237 566 -225 598 -204 c 0
 630 -182 646 -132 646 -60 c 1
 717 -60 l 1
94 94 m 2
 94 300 l 2
 94 366 118 406 166 423 c 1
 158 430 141 441 118 453 c 0
 96 465 68 472 36 482 c 1
 50 500 76 522 116 548 c 0
 154 573 208 586 276 586 c 0
 417 586 488 532 488 423 c 2
 488 62 l 1
 594 62 l 2
 615 62 630 64 636 70 c 1
 642 76 646 90 646 110 c 2
 646 576 l 1
 717 576 l 1
 717 110 l 2
 717 78 714 54 706 39 c 0
 700 24 688 14 670 9 c 0
 654 3 628 0 594 0 c 2
 346 0 l 1
 346 62 l 1
 417 62 l 1
 417 423 l 2
 417 459 405 488 381 507 c 0
 357 525 326 534 286 534 c 0
 237 534 186 520 138 492 c 1
 148 488 166 480 192 468 c 0
 218 456 238 441 261 420 c 1
 252 420 243 418 230 414 c 0
 216 408 201 399 186 381 c 0
 172 363 166 338 166 303 c 2
 166 192 l 1
 171 196 183 198 201 198 c 0
 234 198 258 188 276 168 c 0
 292 147 302 123 302 94 c 0
 302 66 292 42 276 22 c 0
 258 0 234 -10 201 -10 c 0
 171 -10 146 0 126 18 c 0
 105 38 94 63 94 94 c 2
440 -201 m 0
 454 -201 465 -196 472 -188 c 0
 482 -180 484 -168 484 -156 c 0
 484 -144 482 -134 472 -123 c 0
 465 -116 454 -110 440 -110 c 0
 423 -110 414 -116 405 -123 c 0
 396 -132 392 -144 392 -156 c 0
 392 -168 396 -180 405 -188 c 0
 414 -196 426 -201 440 -201 c 0
200 42 m 0
 218 42 231 48 238 57 c 0
 248 68 252 80 252 94 c 0
 252 108 248 120 238 130 c 0
 230 141 216 146 200 146 c 0
 184 146 171 141 162 130 c 0
 153 120 147 108 147 94 c 0
 147 80 153 68 160 57 c 0
 171 48 184 42 200 42 c 0
EndSplineSet
EndChar
StartChar: uni0E0E
Encoding: 174 3598 144
OldEncoding: 3598
Width: 684
Flags: W
HStem: -292 66<208 224> -120 63<232 240> -10 52<132 141> 146 52<132 141> 525 61<344 382>
VStem: 28 52<94 96> 166 71<192 301> 186 51<90 96> 526 71<-195 413>
Fore
166 192 m 1
 166 286 l 2
 166 309 170 328 177 346 c 0
 182 362 190 375 200 382 c 0
 210 392 222 399 234 404 c 1
 225 410 210 418 188 430 c 0
 166 442 138 452 105 453 c 1
 120 474 152 504 196 537 c 0
 243 570 298 586 368 586 c 0
 434 586 490 572 532 538 c 0
 574 507 597 460 597 400 c 2
 597 -290 l 1
 526 -290 l 1
 504 -258 477 -231 447 -208 c 0
 418 -186 394 -172 380 -165 c 1
 370 -196 351 -225 321 -252 c 0
 290 -279 255 -296 212 -292 c 0
 177 -292 148 -282 128 -260 c 0
 105 -237 94 -208 94 -172 c 0
 96 -135 110 -106 135 -87 c 0
 160 -68 194 -57 232 -57 c 0
 264 -57 300 -64 338 -76 c 1
 339 -70 342 -63 346 -48 c 0
 350 -36 351 -18 352 0 c 1
 417 -14 l 1
 416 -32 414 -51 408 -68 c 0
 405 -82 402 -94 400 -104 c 1
 428 -117 453 -132 478 -152 c 0
 504 -170 519 -183 526 -195 c 1
 526 400 l 2
 526 426 520 447 506 466 c 0
 492 484 472 500 448 510 c 0
 426 520 399 525 369 525 c 0
 309 525 256 507 212 470 c 1
 222 468 238 460 262 452 c 0
 286 441 309 426 328 406 c 1
 314 404 296 393 273 376 c 0
 249 360 237 330 237 290 c 2
 237 92 l 2
 237 63 230 39 210 21 c 0
 192 0 165 -10 132 -10 c 0
 100 -10 76 0 57 21 c 0
 39 40 28 66 28 94 c 0
 28 123 38 147 56 168 c 0
 75 188 100 198 132 198 c 0
 146 198 158 196 166 192 c 1
258 -219 m 0
 274 -210 288 -196 298 -178 c 0
 309 -159 315 -146 318 -135 c 1
 286 -126 258 -120 232 -120 c 0
 184 -120 160 -138 160 -172 c 0
 160 -182 162 -190 166 -198 c 0
 174 -218 194 -226 224 -226 c 0
 236 -226 246 -224 258 -219 c 0
132 42 m 0
 148 42 162 48 172 57 c 0
 182 68 186 80 186 94 c 0
 186 108 182 120 172 130 c 0
 162 141 148 146 132 146 c 0
 117 146 104 141 94 130 c 0
 84 118 80 106 80 94 c 0
 80 81 84 69 94 60 c 0
 104 48 117 42 132 42 c 0
EndSplineSet
EndChar
StartChar: uni0E0F
Encoding: 175 3599 145
OldEncoding: 3599
Width: 684
Flags: W
HStem: -292 55<184 201> -147 55<183 210> -10 52<132 141> 146 52<132 141> 525 61<347 381>
VStem: 28 52<94 96> 88 60<-195 -178> 166 71<192 301> 186 51<90 96> 526 71<-206 413>
DStem: 446 -123 448 -195 370 -201 364 -292
Fore
166 192 m 1
 166 286 l 2
 166 309 170 328 177 346 c 0
 182 362 190 375 200 382 c 0
 210 392 222 399 234 404 c 1
 225 410 210 418 188 430 c 0
 166 442 138 452 105 453 c 1
 120 474 152 504 196 537 c 0
 243 570 298 586 368 586 c 0
 434 586 490 572 532 538 c 0
 574 507 597 460 597 400 c 2
 597 -290 l 1
 526 -290 l 1
 448 -195 l 1
 364 -292 l 1
 356 -278 346 -262 334 -248 c 0
 322 -232 312 -220 303 -212 c 1
 297 -225 284 -243 264 -262 c 0
 244 -284 218 -292 184 -292 c 0
 156 -292 132 -284 116 -262 c 0
 96 -244 88 -216 88 -180 c 1
 92 -152 102 -129 120 -114 c 0
 140 -99 162 -92 192 -92 c 0
 224 -92 252 -102 282 -120 c 1
 285 -110 290 -93 297 -69 c 0
 303 -48 309 -24 310 0 c 1
 370 -14 l 1
 369 -32 363 -57 354 -90 c 0
 346 -122 338 -146 330 -159 c 1
 332 -159 346 -172 370 -201 c 1
 446 -123 l 1
 526 -206 l 1
 526 400 l 2
 526 426 520 447 506 466 c 0
 492 484 472 500 448 510 c 0
 426 520 399 525 369 525 c 0
 309 525 256 507 212 470 c 1
 222 468 238 460 262 452 c 0
 286 441 309 426 328 406 c 1
 314 404 296 393 273 376 c 0
 249 360 237 330 237 290 c 2
 237 92 l 2
 237 63 230 39 210 21 c 0
 192 0 165 -10 132 -10 c 0
 100 -10 76 0 57 21 c 0
 39 40 28 66 28 94 c 0
 28 123 38 147 56 168 c 0
 75 188 100 198 132 198 c 0
 147 198 158 196 166 192 c 1
216 -230 m 0
 226 -220 236 -208 244 -196 c 0
 252 -184 258 -174 260 -170 c 1
 238 -154 219 -147 196 -147 c 0
 171 -147 154 -158 148 -178 c 1
 148 -216 162 -236 192 -237 c 0
 200 -237 208 -234 216 -230 c 0
132 42 m 0
 148 42 162 48 172 57 c 0
 182 68 186 80 186 94 c 0
 186 108 182 120 172 130 c 0
 162 141 148 146 132 146 c 0
 117 146 104 141 94 130 c 0
 84 118 80 106 80 94 c 0
 80 81 84 69 94 60 c 0
 104 48 117 42 132 42 c 0
EndSplineSet
EndChar
StartChar: uni0E10
Encoding: 176 3600 146
OldEncoding: 3600
Width: 546
Flags: W
HStem: -218 41<378 378 378 390> -198 45<102 121> -94 42<378 388> 0 21G<375 459> 146 50<200.375 221> 302 52<200.292 221> 478 62<454 473> 530 56<262 281>
VStem: 24 45<-237 -229> 108 51<239.75 252> 296 42<-140 -133> 388 71<141 304> 396 63<-227 -138> 418 41<-140 -133>
Fore
212 354 m 0
 234 354 255 348 274 336 c 0
 292 324 309 308 318 286 c 2
 388 141 l 1
 388 279 l 2
 388 322 381 351 366 366 c 0
 352 381 327 394 290 406 c 0
 249 418 208 428 166 434 c 0
 123 442 93 447 70 448 c 1
 93 488 122 520 154 548 c 0
 186 573 224 586 264 586 c 0
 286 586 308 585 322 582 c 0
 339 576 357 572 380 562 c 0
 402 555 418 549 430 546 c 0
 442 543 456 540 468 540 c 0
 488 540 508 546 526 555 c 1
 540 495 l 1
 512 483 486 478 465 478 c 0
 448 478 435 480 423 483 c 0
 412 486 394 494 369 501 c 0
 346 510 327 518 312 522 c 0
 297 526 282 530 266 530 c 0
 249 530 232 524 213 516 c 0
 195 506 186 496 184 492 c 1
 192 490 204 488 219 483 c 0
 234 478 255 472 279 466 c 0
 304 460 324 456 336 453 c 0
 390 440 426 420 440 396 c 0
 454 370 459 334 459 284 c 2
 459 0 l 1
 375 0 l 1
 369 36 357 70 340 110 c 0
 324 148 310 178 300 196 c 1
 296 182 284 170 266 159 c 0
 250 152 232 146 212 146 c 0
 180 146 154 156 135 177 c 0
 117 198 108 222 108 249 c 0
 108 278 117 303 135 324 c 0
 154 344 180 354 212 354 c 0
390 -250 m 2
 392 -249 393 -243 394 -234 c 0
 396 -225 396 -220 396 -216 c 1
 394 -216 393 -216 390 -216 c 0
 388 -216 382 -216 378 -218 c 0
 352 -218 332 -208 316 -194 c 0
 302 -178 296 -159 296 -138 c 0
 296 -116 303 -96 318 -78 c 0
 334 -62 352 -52 378 -52 c 0
 404 -52 422 -60 438 -75 c 0
 453 -90 459 -110 459 -138 c 2
 459 -237 l 2
 459 -249 458 -260 454 -266 c 0
 448 -273 444 -278 435 -284 c 0
 428 -288 418 -296 410 -300 c 2
 362 -328 l 1
 297 -286 l 1
 230 -326 l 1
 195 -264 l 1
 178 -300 147 -321 104 -318 c 0
 51 -316 22 -286 24 -231 c 0
 24 -208 34 -190 51 -174 c 0
 68 -159 88 -153 112 -153 c 0
 134 -153 154 -159 177 -172 c 1
 178 -166 182 -154 186 -135 c 0
 190 -117 192 -92 192 -60 c 1
 244 -60 l 1
 244 -117 236 -168 218 -213 c 1
 244 -255 l 1
 244 -255 250 -250 264 -244 c 0
 276 -236 288 -231 297 -225 c 1
 364 -268 l 1
 390 -250 l 2
378 -177 m 0
 390 -177 400 -172 408 -165 c 0
 416 -156 418 -147 418 -135 c 0
 418 -123 416 -116 408 -106 c 0
 400 -99 390 -94 378 -94 c 0
 364 -94 354 -99 350 -106 c 1
 340 -116 338 -123 338 -135 c 0
 338 -146 340 -156 350 -165 c 1
 354 -172 364 -177 378 -177 c 0
212 196 m 0
 230 196 243 201 250 212 c 0
 260 224 264 236 264 249 c 0
 264 264 260 276 250 286 c 0
 243 297 230 302 212 302 c 0
 196 302 183 297 174 286 c 0
 165 276 159 264 159 249 c 0
 159 236 165 224 174 213 c 0
 183 201 196 196 212 196 c 0
110 -198 m 0
 96 -198 87 -201 80 -210 c 0
 74 -219 69 -226 69 -237 c 0
 69 -246 74 -255 80 -261 c 0
 87 -270 96 -273 110 -273 c 0
 120 -273 129 -270 138 -262 c 0
 146 -256 152 -249 156 -240 c 0
 159 -232 160 -226 162 -225 c 1
 159 -220 153 -216 144 -208 c 0
 135 -201 123 -198 110 -198 c 0
EndSplineSet
EndChar
StartChar: uni0E11
Encoding: 177 3601 147
OldEncoding: 3601
Width: 798
Flags: W
HStem: 0 21G<290 362 639 710> 258 52<130 139> 416 49<121 132> 512 64<595 604>
VStem: 10 68<363 400> 183 54<360 372> 290 72<0 30.4256 0 385> 352 62<476 487> 639 71<0 465>
Fore
290 0 m 1
 290 370 l 2
 290 392 291 406 297 418 c 0
 302 429 309 438 315 444 c 0
 321 448 330 456 342 465 c 0
 350 470 352 474 352 483 c 0
 352 492 348 504 336 516 c 0
 324 525 314 532 303 534 c 1
 234 486 l 1
 153 534 l 1
 129 530 110 516 99 496 c 0
 84 478 78 460 78 446 c 1
 80 448 87 453 94 458 c 0
 104 462 116 465 132 465 c 0
 160 462 186 454 207 440 c 0
 226 422 237 396 237 362 c 0
 237 328 225 303 204 285 c 0
 182 266 156 258 130 258 c 0
 96 258 66 272 44 297 c 0
 21 324 10 357 10 400 c 0
 10 426 14 452 22 472 c 1
 30 507 51 534 81 556 c 0
 110 576 138 586 159 586 c 1
 234 540 l 1
 300 586 l 1
 328 578 354 564 378 546 c 0
 402 526 414 504 414 478 c 0
 414 466 412 456 406 448 c 0
 402 442 396 435 388 428 c 0
 380 420 374 412 368 404 c 0
 363 394 362 382 362 368 c 2
 362 276 l 1
 369 298 382 332 404 378 c 0
 423 423 454 468 488 510 c 0
 524 555 560 576 602 576 c 0
 638 576 664 562 682 537 c 0
 702 512 710 482 710 446 c 2
 710 0 l 1
 639 0 l 1
 639 446 l 2
 639 490 626 512 597 512 c 0
 578 512 555 495 530 459 c 0
 504 423 477 380 452 326 c 0
 423 270 402 213 387 156 c 0
 369 99 362 46 362 0 c 1
 290 0 l 1
130 416 m 0
 116 416 102 410 93 400 c 0
 82 390 78 378 78 363 c 0
 78 350 82 338 93 327 c 0
 102 315 116 310 130 310 c 0
 147 310 160 315 170 326 c 0
 178 338 183 350 183 363 c 0
 183 378 178 390 170 400 c 0
 160 410 147 416 130 416 c 0
EndSplineSet
EndChar
StartChar: uni0E12
Encoding: 178 3602 148
OldEncoding: 3602
Width: 850
Flags: W
HStem: -10 64<452 466> 0 21G<138 208 693 762> 387 53<290 297>
VStem: 40 64<357 378> 184 53<325 343> 342 51<325 343> 375 48<97 107> 462 72<67 154 211 410> 693 69<104 576>
DStem: 400 586 396 526 303 520 303 466
Fore
462 212 m 1
 462 381 l 2
 462 420 459 448 452 470 c 0
 442 490 423 508 396 526 c 1
 303 466 l 1
 303 468 291 474 270 490 c 0
 248 506 226 518 212 526 c 1
 140 490 104 438 104 368 c 0
 104 322 120 268 156 208 c 0
 178 170 190 142 190 130 c 1
 201 156 216 178 230 196 c 0
 243 216 252 226 261 234 c 1
 237 240 219 255 206 273 c 0
 192 291 184 314 184 336 c 0
 184 364 194 388 212 408 c 0
 231 429 258 440 290 440 c 0
 322 440 348 429 366 406 c 0
 386 386 393 362 393 332 c 0
 393 315 390 302 386 290 c 0
 380 278 370 266 363 258 c 0
 354 249 344 238 334 226 c 0
 312 201 292 178 278 156 c 0
 262 134 248 110 236 84 c 0
 224 60 213 30 208 0 c 1
 138 0 l 1
 146 14 148 28 148 46 c 0
 148 63 142 88 130 123 c 0
 128 135 117 158 100 192 c 0
 81 225 66 256 56 285 c 0
 46 314 40 344 40 378 c 0
 42 426 60 466 90 501 c 0
 120 537 159 566 206 586 c 1
 303 520 l 1
 400 586 l 1
 440 568 468 549 486 531 c 0
 506 512 518 492 524 470 c 0
 531 447 534 417 534 381 c 2
 534 210 l 1
 560 206 588 194 621 174 c 0
 652 154 676 130 693 104 c 1
 693 576 l 1
 762 576 l 1
 762 0 l 1
 693 0 l 1
 654 81 602 132 534 154 c 1
 534 64 l 2
 534 15 512 -10 466 -10 c 0
 438 -10 416 2 400 24 c 0
 382 46 375 74 375 105 c 0
 375 134 382 159 399 180 c 0
 414 200 435 210 462 212 c 1
290 387 m 0
 274 387 261 381 250 370 c 0
 243 360 237 348 237 334 c 0
 237 321 243 309 250 298 c 0
 261 286 274 282 290 282 c 0
 308 282 321 286 328 297 c 0
 338 308 342 318 342 334 c 0
 342 350 338 362 328 370 c 0
 321 381 308 387 290 387 c 0
462 68 m 1
 462 162 l 1
 438 158 423 138 423 99 c 0
 423 87 428 76 432 68 c 0
 440 60 446 54 452 54 c 0
 456 54 460 60 462 68 c 1
EndSplineSet
EndChar
StartChar: uni0E13
Encoding: 179 3603 149
OldEncoding: 3603
Width: 829
Flags: W
HStem: -12 58<706 720> -10 52<190 213> 0 21G<417 488> 146 52<190 203> 534 52<274 304>
VStem: 94 53<84.0537 103> 94 72<94 309> 252 50<94 105> 417 71<0 437> 636 70<52 186 244 576> 765 53<117 132>
Fore
94 94 m 2
 94 300 l 2
 94 366 118 406 166 423 c 1
 158 430 141 441 118 453 c 0
 96 465 68 472 36 482 c 1
 50 500 76 522 116 548 c 0
 154 573 208 586 276 586 c 0
 417 586 488 532 488 423 c 2
 488 123 l 1
 526 184 576 225 636 244 c 1
 636 576 l 1
 706 576 l 1
 706 249 l 1
 741 244 768 232 788 210 c 0
 807 188 818 156 818 117 c 0
 818 75 806 44 783 22 c 0
 760 0 735 -12 706 -12 c 0
 687 -12 669 -8 656 4 c 0
 642 16 636 32 636 52 c 2
 636 186 l 1
 596 171 561 142 536 102 c 0
 508 62 494 27 488 0 c 1
 417 0 l 1
 417 423 l 2
 417 459 405 488 381 507 c 0
 357 525 326 534 286 534 c 0
 237 534 186 520 138 492 c 1
 148 488 166 480 192 468 c 0
 218 456 238 441 261 420 c 1
 252 420 243 418 230 414 c 0
 216 408 201 399 186 381 c 0
 172 363 166 338 166 303 c 2
 166 192 l 1
 171 196 183 198 201 198 c 0
 234 198 258 188 276 168 c 0
 292 147 302 123 302 94 c 0
 302 66 292 42 276 22 c 0
 258 0 234 -10 201 -10 c 0
 171 -10 146 0 126 18 c 0
 105 38 94 63 94 94 c 2
706 64 m 2
 706 52 712 46 720 46 c 0
 730 46 741 52 748 66 c 0
 759 78 765 94 765 117 c 0
 765 162 746 190 706 195 c 1
 706 64 l 2
200 42 m 0
 218 42 231 48 238 57 c 0
 248 68 252 80 252 94 c 0
 252 108 248 120 238 130 c 0
 230 141 216 146 200 146 c 0
 184 146 171 141 162 130 c 0
 153 120 147 108 147 94 c 0
 147 80 153 68 160 57 c 0
 171 48 184 42 200 42 c 0
EndSplineSet
EndChar
StartChar: uni0E14
Encoding: 180 3604 150
OldEncoding: 3604
Width: 621
Flags: W
HStem: 0 21G<138 208 462 534> 387 53<290 299> 537 53<303 330>
VStem: 184 53<330 338> 342 51<330 338> 462 72<0 408>
Fore
105 375 m 0
 104 324 122 270 156 212 c 0
 177 177 186 147 186 123 c 1
 200 152 213 174 230 194 c 0
 243 212 252 225 261 234 c 1
 237 240 219 255 206 273 c 0
 192 291 184 314 184 336 c 0
 184 364 194 388 212 408 c 0
 231 429 258 440 290 440 c 0
 322 440 348 429 366 406 c 0
 386 386 393 362 393 332 c 0
 393 315 390 302 386 290 c 0
 380 278 370 266 363 258 c 0
 354 249 344 238 334 226 c 0
 312 201 292 178 278 156 c 0
 262 134 248 110 236 84 c 0
 224 60 213 30 208 0 c 1
 138 0 l 1
 146 14 148 28 148 46 c 0
 148 63 142 88 130 123 c 0
 126 138 116 160 99 194 c 0
 80 226 66 258 57 286 c 0
 48 315 40 346 42 378 c 0
 44 435 69 486 114 530 c 0
 156 570 220 590 303 590 c 0
 458 590 534 520 534 381 c 2
 534 0 l 1
 462 0 l 1
 462 386 l 2
 462 430 453 466 432 495 c 0
 412 524 369 537 303 537 c 0
 248 537 200 522 162 492 c 0
 126 460 105 422 105 375 c 0
290 387 m 0
 274 387 261 381 250 370 c 0
 243 360 237 348 237 334 c 0
 237 321 243 309 250 298 c 0
 261 286 274 282 290 282 c 0
 308 282 321 286 328 297 c 0
 338 308 342 318 342 334 c 0
 342 350 338 362 328 370 c 0
 321 381 308 387 290 387 c 0
EndSplineSet
EndChar
StartChar: uni0E15
Encoding: 181 3605 151
OldEncoding: 3605
Width: 621
Flags: W
HStem: 0 21G<138 208 462 534> 387 53<290 297>
VStem: 40 64<366 378> 184 53<330 338> 342 51<330 338> 462 72<0 410>
DStem: 400 586 396 526 303 520 303 466
Fore
190 130 m 1
 201 156 216 178 230 196 c 0
 243 216 252 226 261 234 c 1
 237 240 219 255 206 273 c 0
 192 291 184 314 184 336 c 0
 184 364 194 388 212 408 c 0
 231 429 258 440 290 440 c 0
 322 440 348 429 366 406 c 0
 386 386 393 362 393 332 c 0
 393 315 390 302 386 290 c 0
 380 278 370 266 363 258 c 0
 354 249 344 238 334 226 c 0
 312 201 292 178 278 156 c 0
 262 134 248 110 236 84 c 0
 224 60 213 30 208 0 c 1
 138 0 l 1
 146 14 148 28 148 46 c 0
 148 63 142 88 130 123 c 0
 128 135 117 158 100 192 c 0
 81 225 66 256 56 285 c 0
 46 314 40 344 40 378 c 0
 42 426 60 466 90 501 c 0
 120 537 159 566 206 586 c 1
 303 520 l 1
 400 586 l 1
 440 568 468 549 486 531 c 0
 506 512 518 492 524 470 c 0
 531 447 534 417 534 381 c 2
 534 0 l 1
 462 0 l 1
 462 381 l 2
 462 420 459 448 452 470 c 0
 442 490 423 508 396 526 c 1
 303 466 l 1
 303 468 291 474 270 490 c 0
 248 506 226 518 212 526 c 1
 140 490 104 438 104 368 c 0
 104 322 120 268 156 208 c 0
 178 170 190 142 190 130 c 1
290 387 m 0
 274 387 261 381 250 370 c 0
 243 360 237 348 237 334 c 0
 237 321 243 309 250 298 c 0
 261 286 274 282 290 282 c 0
 308 282 321 286 328 297 c 0
 338 308 342 318 342 334 c 0
 342 350 338 362 328 370 c 0
 321 381 308 387 290 387 c 0
EndSplineSet
EndChar
StartChar: uni0E16
Encoding: 182 3606 152
OldEncoding: 3606
Width: 615
Flags: W
HStem: -10 52<190 213> 0 21G<456 526> 146 52<190 203> 525 61<274 309>
VStem: 94 53<94 103> 94 72<94 295> 252 50<94 103> 456 70<0 408>
Fore
94 94 m 2
 94 286 l 2
 94 321 102 346 114 364 c 0
 128 381 144 394 162 404 c 1
 154 410 141 418 118 430 c 0
 96 442 68 452 36 453 c 1
 51 474 81 504 126 537 c 0
 170 570 226 586 297 586 c 0
 339 586 378 579 414 566 c 0
 448 552 477 532 496 504 c 0
 518 474 526 440 526 400 c 2
 526 0 l 1
 456 0 l 1
 456 400 l 2
 456 426 448 447 434 466 c 0
 420 484 402 500 378 510 c 0
 354 520 327 525 298 525 c 0
 237 525 184 507 141 470 c 1
 152 468 168 460 192 452 c 0
 216 441 237 426 258 406 c 1
 243 404 224 393 201 376 c 0
 178 360 166 330 166 290 c 2
 166 192 l 1
 171 196 183 198 201 198 c 0
 234 198 258 188 276 168 c 0
 292 147 302 123 302 94 c 0
 302 66 292 42 276 22 c 0
 258 0 234 -10 201 -10 c 0
 171 -10 146 0 126 18 c 0
 105 38 94 63 94 94 c 2
200 42 m 0
 218 42 231 48 238 57 c 0
 248 68 252 80 252 94 c 0
 252 108 248 120 238 130 c 0
 230 141 216 146 200 146 c 0
 184 146 171 141 162 130 c 0
 153 120 147 108 147 94 c 0
 147 80 153 68 160 57 c 0
 171 48 184 42 200 42 c 0
EndSplineSet
EndChar
StartChar: uni0E17
Encoding: 183 3607 153
OldEncoding: 3607
Width: 682
Flags: W
HStem: 0 21G<172 244 522 594> 375 51<141 149> 512 64<480 486> 531 53<141 149>
VStem: 36 52<476 482> 172 72<0 28.7231 0 478> 194 50<468.678 483> 522 72<0 465>
Fore
172 0 m 1
 172 380 l 1
 165 376 154 375 141 375 c 0
 108 375 82 386 64 406 c 0
 46 428 36 452 36 480 c 0
 36 508 46 532 64 552 c 0
 82 573 108 584 141 584 c 0
 162 584 180 578 195 570 c 0
 210 561 224 548 232 532 c 0
 240 518 244 498 244 478 c 2
 244 276 l 1
 255 298 268 327 284 362 c 0
 298 396 315 430 338 465 c 0
 360 496 381 524 406 546 c 0
 430 566 456 576 484 576 c 0
 510 576 531 570 546 558 c 0
 561 544 573 526 582 508 c 0
 590 490 594 468 594 446 c 2
 594 0 l 1
 522 0 l 1
 522 446 l 2
 522 490 508 512 482 512 c 0
 462 512 441 495 414 459 c 0
 387 423 360 380 334 326 c 0
 308 270 285 213 270 156 c 0
 252 99 244 46 244 0 c 1
 172 0 l 1
141 531 m 0
 123 531 110 525 102 516 c 0
 93 506 88 494 88 478 c 0
 88 465 93 453 102 442 c 0
 110 430 123 426 141 426 c 0
 158 426 171 430 180 442 c 0
 188 453 194 465 194 478 c 0
 194 494 188 506 180 516 c 0
 171 525 158 531 141 531 c 0
EndSplineSet
EndChar
StartChar: uni0E18
Encoding: 184 3608 154
OldEncoding: 3608
Width: 550
Flags: W
HStem: 0 62<78 351> 438 21G<83 115> 482 56<429 453> 534 52<230 245>
VStem: 148 71<62 368> 381 72<110 305>
Fore
138 484 m 1
 166 483 208 477 266 465 c 0
 322 453 370 429 410 396 c 0
 429 382 441 368 446 351 c 0
 452 334 453 310 453 282 c 2
 453 110 l 2
 453 64 444 34 429 21 c 0
 412 8 378 0 328 0 c 2
 78 0 l 1
 78 62 l 1
 148 62 l 1
 148 368 l 1
 219 368 l 1
 219 62 l 1
 328 62 l 2
 351 62 366 64 374 70 c 0
 378 76 381 90 381 110 c 2
 381 284 l 2
 381 303 380 321 376 332 c 0
 370 346 362 357 346 369 c 0
 318 392 282 408 236 420 c 0
 188 432 140 438 90 438 c 0
 76 438 57 435 36 434 c 1
 44 459 64 492 94 531 c 0
 126 568 170 586 230 586 c 0
 266 586 308 578 351 562 c 0
 394 548 423 538 440 538 c 0
 459 538 480 544 498 555 c 1
 524 506 l 1
 496 490 470 482 444 482 c 0
 429 482 410 484 388 492 c 0
 366 498 348 507 330 512 c 0
 314 518 297 522 282 526 c 0
 264 532 248 534 230 534 c 0
 200 534 178 526 165 516 c 0
 148 504 141 494 138 484 c 1
EndSplineSet
EndChar
StartChar: uni0E19
Encoding: 185 3609 155
OldEncoding: 3609
Width: 667
Flags: W
HStem: -12 58<544 560> 0 21G<172 244> 375 53<141 149> 531 53<141 149>
VStem: 36 52<480 485> 172 72<0 478> 194 50<476 485> 472 72<52 195 249 576> 602 52<117 133>
Fore
172 0 m 1
 172 380 l 1
 165 376 154 375 141 375 c 0
 108 375 82 386 64 406 c 0
 46 428 36 452 36 480 c 0
 36 508 46 532 64 552 c 0
 82 573 108 584 141 584 c 0
 162 584 180 578 195 570 c 0
 210 561 224 548 232 532 c 0
 240 518 244 498 244 478 c 2
 244 110 l 1
 300 186 376 234 472 250 c 1
 472 576 l 1
 544 576 l 1
 544 249 l 1
 579 244 608 232 626 210 c 0
 644 188 654 158 654 117 c 0
 654 75 644 44 622 22 c 0
 600 0 573 -12 544 -12 c 0
 524 -12 507 -8 494 4 c 0
 480 16 472 32 472 52 c 2
 472 195 l 1
 432 188 394 171 363 146 c 0
 330 120 304 93 286 68 c 0
 268 42 252 18 244 0 c 1
 172 0 l 1
141 531 m 0
 126 531 112 525 104 516 c 0
 93 506 88 494 88 480 c 0
 88 465 93 453 102 442 c 0
 110 432 123 428 141 428 c 0
 158 428 171 432 180 442 c 0
 188 454 194 466 194 480 c 0
 194 494 188 506 178 516 c 0
 170 525 156 531 141 531 c 0
544 64 m 2
 544 52 549 46 560 46 c 0
 568 46 578 52 588 66 c 0
 597 80 602 96 602 117 c 0
 602 162 584 190 544 195 c 1
 544 64 l 2
EndSplineSet
EndChar
StartChar: uni0E1A
Encoding: 186 3610 156
OldEncoding: 3610
Width: 663
Flags: W
HStem: 0 62<104 469> 375 51<141 149> 531 53<141 149>
VStem: 36 52<476 482> 172 72<62 478> 194 50<468.678 483> 506 70<110 576>
Fore
172 62 m 1
 172 380 l 1
 165 376 154 375 141 375 c 0
 108 375 82 386 64 406 c 0
 46 428 36 452 36 480 c 0
 36 508 46 532 64 552 c 0
 82 573 108 584 141 584 c 0
 162 584 180 578 195 570 c 0
 210 561 224 548 232 532 c 0
 240 518 244 498 244 478 c 2
 244 62 l 1
 453 62 l 2
 474 62 490 64 495 70 c 1
 501 76 506 90 506 110 c 2
 506 576 l 1
 576 576 l 1
 576 110 l 2
 576 64 568 34 552 21 c 0
 537 8 504 0 453 0 c 2
 104 0 l 1
 104 62 l 1
 172 62 l 1
141 531 m 0
 123 531 110 525 102 516 c 0
 93 506 88 494 88 478 c 0
 88 465 93 453 102 442 c 0
 110 430 123 426 141 426 c 0
 158 426 171 430 180 442 c 0
 188 453 194 465 194 478 c 0
 194 494 188 506 180 516 c 0
 171 525 158 531 141 531 c 0
EndSplineSet
EndChar
StartChar: uni0E1B
Encoding: 187 3611 157
OldEncoding: 3611
Width: 663
Flags: W
HStem: 0 62<104 469> 375 53<141 149> 531 53<141 149>
VStem: 36 52<480 482> 172 72<62 478> 194 50<476 482> 506 70<110 784>
Fore
172 62 m 1
 172 380 l 1
 165 376 154 375 141 375 c 0
 108 375 82 386 64 406 c 0
 46 428 36 452 36 480 c 0
 36 508 46 532 64 552 c 0
 82 573 108 584 141 584 c 0
 162 584 180 578 195 570 c 0
 210 561 224 548 232 532 c 0
 240 518 244 498 244 478 c 2
 244 62 l 1
 453 62 l 2
 474 62 490 64 495 70 c 1
 501 76 506 90 506 110 c 2
 506 784 l 1
 576 784 l 1
 576 110 l 2
 576 64 568 34 552 21 c 0
 537 8 504 0 453 0 c 2
 104 0 l 1
 104 62 l 1
 172 62 l 1
141 531 m 0
 126 531 112 525 104 516 c 0
 93 506 88 494 88 480 c 0
 88 465 93 453 102 442 c 0
 110 432 123 428 141 428 c 0
 158 428 171 432 180 442 c 0
 188 454 194 466 194 480 c 0
 194 494 188 506 178 516 c 0
 170 525 156 531 141 531 c 0
EndSplineSet
EndChar
StartChar: uni0E1C
Encoding: 188 3612 158
OldEncoding: 3612
Width: 634
Flags: W
HStem: 0 21G<88 159 477 548> 375 51<192 201> 531 53<192 201>
VStem: 88 52<0 483> 88 71<0 21.302 0 381> 246 51<476 482> 477 71<0 22.0233 148 576>
DStem: 318 244 318 322 442 105 477 148 318 322 318 244 159 148 195 105 318 244 318 322 442 105 477 148 318 322 318 244 159 148 195 105 318 244 318 322 442 105 477 148 318 322 318 244 159 148 195 105 318 244 318 322 442 105 477 148 318 322 318 244 159 148 195 105 318 244 318 322 442 105 477 148 318 322 318 244 159 148 195 105 318 244 318 322 442 105 477 148 318 322 318 244 159 148 195 105 318 244 318 322 442 105 477 148 318 322 318 244 159 148 195 105 318 244 318 322 442 105 477 148 318 322 318 244 159 148 195 105 318 244 318 322 442 105 477 148 318 322 318 244 159 148 195 105
Fore
159 381 m 1
 159 148 l 1
 318 322 l 1
 477 148 l 1
 477 576 l 1
 548 576 l 1
 548 0 l 1
 477 0 l 1
 477 46 465 80 442 105 c 2
 318 244 l 1
 195 105 l 2
 171 80 159 44 159 0 c 1
 88 0 l 1
 88 478 l 2
 88 508 96 534 116 555 c 0
 134 573 159 584 192 584 c 0
 225 584 250 573 270 552 c 0
 288 532 297 508 297 480 c 0
 297 452 288 426 270 405 c 0
 250 386 224 375 192 375 c 0
 182 375 171 376 159 381 c 1
192 426 m 0
 208 426 222 430 232 442 c 0
 240 454 246 466 246 478 c 0
 246 494 240 506 232 516 c 0
 222 525 208 531 192 531 c 0
 177 531 162 525 153 516 c 0
 144 504 140 492 140 478 c 0
 140 466 144 454 153 442 c 0
 162 430 177 426 192 426 c 0
EndSplineSet
EndChar
StartChar: uni0E1D
Encoding: 189 3613 159
OldEncoding: 3613
Width: 634
Flags: W
HStem: 0 21G<88 159 477 548> 375 53<192 201> 531 53<192 201>
VStem: 88 52<0 482> 88 71<0 21.302 0 381> 246 51<480 482> 477 71<0 22.0233 148 784>
DStem: 318 244 318 322 442 105 477 148 318 322 318 244 159 148 195 105 318 244 318 322 442 105 477 148 318 322 318 244 159 148 195 105 318 244 318 322 442 105 477 148 318 322 318 244 159 148 195 105 318 244 318 322 442 105 477 148 318 322 318 244 159 148 195 105 318 244 318 322 442 105 477 148 318 322 318 244 159 148 195 105 318 244 318 322 442 105 477 148 318 322 318 244 159 148 195 105 318 244 318 322 442 105 477 148 318 322 318 244 159 148 195 105 318 244 318 322 442 105 477 148 318 322 318 244 159 148 195 105 318 244 318 322 442 105 477 148 318 322 318 244 159 148 195 105
Fore
159 381 m 1
 159 148 l 1
 318 322 l 1
 477 148 l 1
 477 784 l 1
 548 784 l 1
 548 0 l 1
 477 0 l 1
 477 46 465 80 442 105 c 2
 318 244 l 1
 195 105 l 2
 171 80 159 44 159 0 c 1
 88 0 l 1
 88 478 l 2
 88 508 96 534 116 555 c 0
 134 573 159 584 192 584 c 0
 225 584 250 573 270 552 c 0
 288 532 297 508 297 480 c 0
 297 452 288 426 270 405 c 0
 250 386 224 375 192 375 c 0
 182 375 171 376 159 381 c 1
192 428 m 0
 208 428 222 432 232 444 c 0
 240 454 246 466 246 480 c 0
 246 492 240 504 231 516 c 0
 220 525 207 531 192 531 c 0
 177 531 162 525 154 516 c 0
 144 504 140 492 140 480 c 0
 140 466 144 454 153 444 c 0
 162 432 177 428 192 428 c 0
EndSplineSet
EndChar
StartChar: uni0E1E
Encoding: 190 3614 160
OldEncoding: 3614
Width: 735
Flags: W
HStem: 0 21G<172 244 586 657> 375 53<141 149> 531 53<141 149>
VStem: 36 52<480 482> 172 72<0 478> 194 50<476 482> 586 71<0 31.9775 184 576>
DStem: 416 440 416 576 573 70 586 184 416 576 416 440 244 186 258 70 416 440 416 576 573 70 586 184 416 576 416 440 244 186 258 70 416 440 416 576 573 70 586 184 416 576 416 440 244 186 258 70 416 440 416 576 573 70 586 184 416 576 416 440 244 186 258 70 416 440 416 576 573 70 586 184 416 576 416 440 244 186 258 70 416 440 416 576 573 70 586 184 416 576 416 440 244 186 258 70 416 440 416 576 573 70 586 184 416 576 416 440 244 186 258 70 416 440 416 576 573 70 586 184 416 576 416 440 244 186 258 70 416 440 416 576 573 70 586 184 416 576 416 440 244 186 258 70 416 440 416 576 573 70 586 184 416 576 416 440 244 186 258 70 416 440 416 576 573 70 586 184 416 576 416 440 244 186 258 70 416 440 416 576 573 70 586 184 416 576 416 440 244 186 258 70 416 440 416 576 573 70 586 184 416 576 416 440 244 186 258 70 416 440 416 576 573 70 586 184 416 576 416 440 244 186 258 70 416 440 416 576 573 70 586 184 416 576 416 440 244 186 258 70 416 440 416 576 573 70 586 184 416 576 416 440 244 186 258 70 416 440 416 576 573 70 586 184 416 576 416 440 244 186 258 70 416 440 416 576 573 70 586 184 416 576 416 440 244 186 258 70 416 440 416 576 573 70 586 184 416 576 416 440 244 186 258 70 416 440 416 576 573 70 586 184 416 576 416 440 244 186 258 70 416 440 416 576 573 70 586 184 416 576 416 440 244 186 258 70 416 440 416 576 573 70 586 184 416 576 416 440 244 186 258 70 416 440 416 576 573 70 586 184 416 576 416 440 244 186 258 70 416 440 416 576 573 70 586 184 416 576 416 440 244 186 258 70 416 440 416 576 573 70 586 184 416 576 416 440 244 186 258 70 416 440 416 576 573 70 586 184 416 576 416 440 244 186 258 70 416 440 416 576 573 70 586 184 416 576 416 440 244 186 258 70 416 440 416 576 573 70 586 184 416 576 416 440 244 186 258 70 416 440 416 576 573 70 586 184 416 576 416 440 244 186 258 70 416 440 416 576 573 70 586 184 416 576 416 440 244 186 258 70 416 440 416 576 573 70 586 184 416 576 416 440 244 186 258 70 416 440 416 576 573 70 586 184 416 576 416 440 244 186 258 70 416 440 416 576 573 70 586 184 416 576 416 440 244 186 258 70 416 440 416 576 573 70 586 184 416 576 416 440 244 186 258 70 416 440 416 576 573 70 586 184
Fore
172 0 m 1
 172 380 l 1
 165 376 154 375 141 375 c 0
 108 375 82 386 64 406 c 0
 46 428 36 452 36 480 c 0
 36 508 46 532 64 552 c 0
 82 573 108 584 141 584 c 0
 162 584 180 578 195 570 c 0
 210 561 224 548 232 532 c 0
 240 518 244 498 244 478 c 2
 244 186 l 1
 416 576 l 1
 586 184 l 1
 586 576 l 1
 657 576 l 1
 657 0 l 1
 586 0 l 1
 586 8 586 16 585 32 c 0
 584 48 578 60 573 70 c 2
 416 440 l 1
 258 70 l 2
 252 60 249 46 248 32 c 0
 246 16 246 8 244 0 c 1
 172 0 l 1
141 531 m 0
 126 531 112 525 104 516 c 0
 93 506 88 494 88 480 c 0
 88 465 93 453 102 442 c 0
 110 432 123 428 141 428 c 0
 158 428 171 432 180 442 c 0
 188 454 194 466 194 480 c 0
 194 494 188 506 178 516 c 0
 170 525 156 531 141 531 c 0
EndSplineSet
EndChar
StartChar: uni0E1F
Encoding: 191 3615 161
OldEncoding: 3615
Width: 735
Flags: W
HStem: 0 21G<172 244 586 657> 375 51<141 149> 531 53<141 149>
VStem: 36 52<476 482> 172 72<0 478> 194 50<468.678 483> 586 71<0 31.9775 184 784>
DStem: 416 440 416 576 573 70 586 184 416 576 416 440 244 186 258 70 416 440 416 576 573 70 586 184 416 576 416 440 244 186 258 70 416 440 416 576 573 70 586 184 416 576 416 440 244 186 258 70 416 440 416 576 573 70 586 184 416 576 416 440 244 186 258 70 416 440 416 576 573 70 586 184 416 576 416 440 244 186 258 70 416 440 416 576 573 70 586 184 416 576 416 440 244 186 258 70 416 440 416 576 573 70 586 184 416 576 416 440 244 186 258 70 416 440 416 576 573 70 586 184 416 576 416 440 244 186 258 70 416 440 416 576 573 70 586 184 416 576 416 440 244 186 258 70 416 440 416 576 573 70 586 184 416 576 416 440 244 186 258 70 416 440 416 576 573 70 586 184 416 576 416 440 244 186 258 70 416 440 416 576 573 70 586 184 416 576 416 440 244 186 258 70 416 440 416 576 573 70 586 184 416 576 416 440 244 186 258 70 416 440 416 576 573 70 586 184 416 576 416 440 244 186 258 70 416 440 416 576 573 70 586 184 416 576 416 440 244 186 258 70 416 440 416 576 573 70 586 184 416 576 416 440 244 186 258 70 416 440 416 576 573 70 586 184 416 576 416 440 244 186 258 70 416 440 416 576 573 70 586 184 416 576 416 440 244 186 258 70 416 440 416 576 573 70 586 184 416 576 416 440 244 186 258 70 416 440 416 576 573 70 586 184 416 576 416 440 244 186 258 70 416 440 416 576 573 70 586 184 416 576 416 440 244 186 258 70 416 440 416 576 573 70 586 184 416 576 416 440 244 186 258 70 416 440 416 576 573 70 586 184 416 576 416 440 244 186 258 70 416 440 416 576 573 70 586 184 416 576 416 440 244 186 258 70 416 440 416 576 573 70 586 184 416 576 416 440 244 186 258 70 416 440 416 576 573 70 586 184 416 576 416 440 244 186 258 70 416 440 416 576 573 70 586 184 416 576 416 440 244 186 258 70 416 440 416 576 573 70 586 184 416 576 416 440 244 186 258 70 416 440 416 576 573 70 586 184 416 576 416 440 244 186 258 70 416 440 416 576 573 70 586 184 416 576 416 440 244 186 258 70 416 440 416 576 573 70 586 184 416 576 416 440 244 186 258 70 416 440 416 576 573 70 586 184 416 576 416 440 244 186 258 70 416 440 416 576 573 70 586 184 416 576 416 440 244 186 258 70 416 440 416 576 573 70 586 184 416 576 416 440 244 186 258 70 416 440 416 576 573 70 586 184
Fore
172 0 m 1
 172 380 l 1
 165 376 154 375 141 375 c 0
 108 375 82 386 64 406 c 0
 46 428 36 452 36 480 c 0
 36 508 46 532 64 552 c 0
 82 573 108 584 141 584 c 0
 162 584 180 578 195 570 c 0
 210 561 224 548 232 532 c 0
 240 518 244 498 244 478 c 2
 244 186 l 1
 416 576 l 1
 586 184 l 1
 586 784 l 1
 657 784 l 1
 657 0 l 1
 586 0 l 1
 586 8 586 16 585 32 c 0
 584 48 578 60 573 70 c 2
 416 440 l 1
 258 70 l 2
 252 60 249 46 248 32 c 0
 246 16 246 8 244 0 c 1
 172 0 l 1
141 531 m 0
 123 531 110 525 102 516 c 0
 93 506 88 494 88 478 c 0
 88 465 93 453 102 442 c 0
 110 430 123 426 141 426 c 0
 158 426 171 430 180 442 c 0
 188 453 194 465 194 478 c 0
 194 494 188 506 180 516 c 0
 171 525 158 531 141 531 c 0
EndSplineSet
EndChar
StartChar: uni0E20
Encoding: 192 3616 162
OldEncoding: 3616
Width: 684
Flags: W
HStem: -10 52<132 141> 0 21G<526 597> 146 52<132 141> 525 61<347 381>
VStem: 28 52<94 103> 166 71<192 295> 186 51<85 103> 526 71<0 408>
Fore
166 192 m 1
 166 286 l 2
 166 309 170 328 177 346 c 0
 182 362 190 375 200 382 c 0
 210 392 222 399 234 404 c 1
 225 410 210 418 188 430 c 0
 166 442 138 452 105 453 c 1
 120 474 152 504 196 537 c 0
 243 570 298 586 368 586 c 0
 434 586 490 572 532 538 c 0
 574 507 597 460 597 400 c 2
 597 0 l 1
 526 0 l 1
 526 400 l 2
 526 426 520 447 506 466 c 0
 492 484 472 500 448 510 c 0
 426 520 399 525 369 525 c 0
 309 525 256 507 212 470 c 1
 222 468 238 460 262 452 c 0
 286 441 309 426 328 406 c 1
 314 404 296 393 273 376 c 0
 249 360 237 330 237 290 c 2
 237 92 l 2
 237 63 230 39 210 21 c 0
 192 0 165 -10 132 -10 c 0
 100 -10 76 0 57 21 c 0
 39 40 28 66 28 94 c 0
 28 123 38 147 56 168 c 0
 75 188 100 198 132 198 c 0
 147 198 158 196 166 192 c 1
132 42 m 0
 148 42 162 48 172 57 c 0
 182 68 186 80 186 94 c 0
 186 108 182 120 172 130 c 0
 162 141 148 146 132 146 c 0
 117 146 104 141 94 130 c 0
 84 118 80 106 80 94 c 0
 80 81 84 69 94 60 c 0
 104 48 117 42 132 42 c 0
EndSplineSet
EndChar
StartChar: uni0E21
Encoding: 193 3617 163
OldEncoding: 3617
Width: 660
Flags: W
HStem: -10 60<152 164> 0 21G<501 573> 375 51<154 164> 531 53<154 164>
VStem: 51 51<469 487> 54 60<101 123> 186 72<74 195 249 478> 207 51<478 487> 501 72<0 11.8568 120 576>
Fore
186 250 m 1
 186 380 l 1
 178 376 168 375 154 375 c 0
 122 375 96 386 78 405 c 0
 60 426 51 452 51 480 c 0
 51 508 60 532 78 552 c 0
 96 573 122 584 154 584 c 0
 174 584 194 578 208 570 c 0
 224 561 237 548 246 532 c 0
 255 518 258 498 258 478 c 2
 258 250 l 1
 296 248 330 237 363 224 c 0
 396 208 426 194 448 174 c 0
 472 154 490 135 501 120 c 1
 501 576 l 1
 573 576 l 1
 573 0 l 1
 501 0 l 1
 501 22 490 48 468 76 c 0
 446 105 416 132 378 154 c 0
 340 177 300 190 258 195 c 1
 258 88 l 2
 258 57 249 34 234 16 c 0
 218 -2 194 -10 162 -10 c 0
 129 -10 102 2 82 27 c 0
 64 51 54 80 54 114 c 0
 54 148 66 182 88 208 c 0
 110 234 144 249 186 250 c 1
130 64 m 0
 140 54 148 50 160 50 c 0
 178 50 186 60 186 78 c 2
 186 198 l 1
 162 198 144 190 132 174 c 0
 120 158 114 140 114 117 c 0
 114 94 118 76 130 64 c 0
154 531 m 0
 140 531 126 525 116 516 c 0
 106 504 102 492 102 478 c 0
 102 466 106 454 116 442 c 0
 126 430 140 426 154 426 c 0
 171 426 184 430 194 442 c 0
 201 453 207 465 207 478 c 0
 207 494 201 506 194 516 c 0
 184 525 171 531 154 531 c 0
EndSplineSet
EndChar
StartChar: uni0E22
Encoding: 194 3618 164
OldEncoding: 3618
Width: 589
Flags: W
HStem: 0 62<146 400> 388 52<196.606 209> 537 49<197.344 211>
VStem: 63 71<401.637 419.969> 75 71<0 145> 258 51<479 497> 430 71<110 576>
Fore
170 273 m 1
 134 285 108 303 90 330 c 0
 70 357 63 388 63 420 c 0
 63 462 76 501 105 536 c 0
 132 570 166 586 208 586 c 0
 240 586 264 576 284 558 c 0
 300 537 309 513 309 486 c 0
 309 459 300 435 284 417 c 0
 264 399 238 388 208 388 c 0
 186 388 170 392 158 400 c 0
 146 408 138 416 134 420 c 1
 134 381 147 351 174 332 c 0
 200 314 230 303 261 303 c 1
 261 240 l 1
 224 240 195 232 177 213 c 0
 156 195 146 171 146 141 c 2
 146 62 l 1
 378 62 l 2
 400 62 416 64 422 70 c 0
 428 76 430 90 430 110 c 2
 430 576 l 1
 501 576 l 1
 501 110 l 2
 501 64 494 34 478 21 c 0
 460 8 428 0 378 0 c 2
 75 0 l 1
 75 141 l 2
 75 170 80 192 88 210 c 0
 96 226 108 240 120 249 c 0
 132 258 142 264 152 268 c 0
 159 270 166 272 170 273 c 1
208 440 m 0
 240 441 258 456 258 488 c 0
 258 501 255 513 246 524 c 0
 237 532 224 537 208 537 c 0
 194 537 182 532 172 524 c 0
 165 513 159 501 159 488 c 0
 159 477 165 465 172 454 c 0
 182 444 194 440 208 440 c 0
EndSplineSet
EndChar
StartChar: uni0E23
Encoding: 195 3619 165
OldEncoding: 3619
Width: 529
Flags: W
HStem: -10 52<321 325> 146 52<312 325> 478 62<419 437> 531 55<230 246>
VStem: 216 52<85 103> 352 71<194 311> 374 49<85 103>
Fore
423 284 m 2
 423 92 l 2
 423 60 412 36 393 16 c 0
 375 -2 350 -10 321 -10 c 0
 288 -10 262 0 244 22 c 0
 225 42 216 66 216 93 c 0
 216 122 225 146 244 168 c 0
 262 188 286 198 318 198 c 0
 326 198 338 196 352 194 c 1
 352 279 l 2
 352 309 350 332 344 350 c 0
 338 366 327 378 314 387 c 0
 300 393 279 400 255 406 c 0
 212 418 171 428 129 434 c 0
 88 441 57 446 36 448 c 1
 57 488 87 520 118 548 c 0
 152 573 188 586 230 586 c 0
 250 586 272 585 286 582 c 0
 303 576 322 572 344 562 c 0
 366 555 382 549 394 546 c 0
 406 543 420 540 432 540 c 0
 453 540 472 546 492 555 c 1
 506 495 l 1
 477 483 452 478 429 478 c 0
 412 478 399 480 388 483 c 0
 376 486 360 494 334 504 c 0
 309 512 288 519 274 524 c 0
 260 530 244 531 230 531 c 0
 210 531 192 525 172 518 c 0
 154 507 142 498 141 492 c 1
 141 492 l 1
 141 492 194 478 300 453 c 0
 354 441 388 422 404 396 c 0
 417 370 423 334 423 284 c 2
321 42 m 0
 338 42 351 48 360 57 c 0
 368 68 374 80 374 94 c 0
 374 108 368 120 360 130 c 0
 351 141 338 146 321 146 c 0
 304 146 291 141 284 130 c 0
 273 118 268 106 268 94 c 0
 268 81 273 69 284 60 c 0
 291 48 304 42 321 42 c 0
EndSplineSet
EndChar
StartChar: uni0E24
Encoding: 196 3620 166
OldEncoding: 3620
Width: 615
Flags: W
HStem: -10 52<190 213> 146 52<190 203> 525 61<274 309>
VStem: 94 53<84.0537 101> 94 72<94 292> 252 50<94 101> 456 70<-300 408>
Fore
94 94 m 2
 94 286 l 2
 94 321 102 346 114 364 c 0
 128 381 144 394 162 404 c 1
 154 410 141 418 118 430 c 0
 96 442 68 452 36 453 c 1
 51 474 81 504 126 537 c 0
 170 570 226 586 297 586 c 0
 339 586 378 579 414 566 c 0
 448 552 477 532 496 504 c 0
 518 474 526 440 526 400 c 2
 526 -300 l 1
 456 -300 l 1
 456 400 l 2
 456 426 448 447 434 466 c 0
 420 484 402 500 378 510 c 0
 354 520 327 525 298 525 c 0
 237 525 184 507 141 470 c 1
 152 468 168 460 192 452 c 0
 216 441 237 426 258 406 c 1
 243 404 224 393 201 376 c 0
 178 360 166 330 166 290 c 2
 166 192 l 1
 171 196 183 198 201 198 c 0
 234 198 258 188 276 168 c 0
 292 147 302 123 302 94 c 0
 302 66 292 42 276 22 c 0
 258 0 234 -10 201 -10 c 0
 171 -10 146 0 126 18 c 0
 105 38 94 63 94 94 c 2
200 42 m 0
 218 42 231 48 238 57 c 0
 248 68 252 80 252 94 c 0
 252 108 248 120 238 130 c 0
 230 141 216 146 200 146 c 0
 184 146 171 141 162 130 c 0
 153 120 147 108 147 94 c 0
 147 80 153 68 160 57 c 0
 171 48 184 42 200 42 c 0
EndSplineSet
EndChar
StartChar: uni0E25
Encoding: 197 3621 167
OldEncoding: 3621
Width: 592
Flags: W
HStem: -10 50<198 210> 0 21G<434 506> 146 52<198 210> 364 59<208 227> 531 55<257 299>
VStem: 81 65<213 263> 250 52<85 103> 434 72<0 16.3891 198 407>
Fore
219 364 m 1
 170 360 146 316 146 237 c 0
 146 222 147 206 148 184 c 1
 152 186 156 190 165 194 c 0
 172 196 183 198 198 198 c 0
 231 198 256 188 274 168 c 0
 292 147 302 123 302 94 c 0
 302 64 292 39 274 21 c 0
 256 0 231 -10 198 -10 c 0
 166 -10 141 0 122 22 c 0
 104 44 92 68 88 96 c 0
 82 135 80 184 81 240 c 0
 81 291 94 334 116 366 c 0
 138 400 166 418 208 423 c 1
 255 423 291 408 324 380 c 0
 356 350 381 314 400 274 c 0
 418 234 429 208 434 198 c 1
 434 396 l 2
 434 440 418 471 390 495 c 0
 362 519 322 531 276 531 c 0
 200 531 140 500 94 440 c 1
 50 474 l 1
 66 504 94 530 138 552 c 0
 178 574 225 586 279 586 c 0
 346 586 400 570 442 537 c 0
 484 506 506 458 506 396 c 2
 506 0 l 1
 434 0 l 1
 434 21 428 51 416 92 c 0
 404 130 387 172 366 216 c 0
 346 258 322 292 297 322 c 0
 272 351 244 364 219 364 c 1
198 146 m 0
 183 146 170 141 159 130 c 0
 152 120 146 108 146 93 c 0
 146 80 152 68 159 57 c 0
 170 46 183 40 198 40 c 0
 216 40 230 46 237 57 c 0
 246 68 250 80 250 93 c 0
 250 108 246 120 237 130 c 0
 230 141 216 146 198 146 c 0
EndSplineSet
EndChar
StartChar: uni0E26
Encoding: 198 3622 168
OldEncoding: 3622
Width: 684
Flags: W
HStem: -10 52<132 141> 146 52<132 141> 525 61<347 381>
VStem: 28 52<94 101> 166 71<192 292> 186 51<83 101> 526 71<-300 408>
Fore
166 192 m 1
 166 286 l 2
 166 309 170 328 177 346 c 0
 182 362 190 375 200 382 c 0
 210 392 222 399 234 404 c 1
 225 410 210 418 188 430 c 0
 166 442 138 452 105 453 c 1
 120 474 152 504 196 537 c 0
 243 570 298 586 368 586 c 0
 434 586 490 572 532 538 c 0
 574 507 597 460 597 400 c 2
 597 -300 l 1
 526 -300 l 1
 526 400 l 2
 526 426 520 447 506 466 c 0
 492 484 472 500 448 510 c 0
 426 520 399 525 369 525 c 0
 309 525 256 507 212 470 c 1
 222 468 238 460 262 452 c 0
 286 441 309 426 328 406 c 1
 314 404 296 393 273 376 c 0
 249 360 237 330 237 290 c 2
 237 92 l 2
 237 63 230 39 210 21 c 0
 192 0 165 -10 132 -10 c 0
 100 -10 76 0 57 21 c 0
 39 40 28 66 28 94 c 0
 28 123 38 147 56 168 c 0
 75 188 100 198 132 198 c 0
 147 198 158 196 166 192 c 1
132 42 m 0
 148 42 162 48 172 57 c 0
 182 68 186 80 186 94 c 0
 186 108 182 120 172 130 c 0
 162 141 148 146 132 146 c 0
 117 146 104 141 94 130 c 0
 84 118 80 106 80 94 c 0
 80 81 84 69 94 60 c 0
 104 48 117 42 132 42 c 0
EndSplineSet
EndChar
StartChar: uni0E27
Encoding: 199 3623 169
OldEncoding: 3623
Width: 562
Flags: W
HStem: -10 52<361 381> 146 52<369 381> 531 55<250 268>
VStem: 266 50<94 103> 404 68<194 407> 422 50<94 103>
Fore
472 396 m 2
 472 94 l 2
 472 66 465 42 448 22 c 0
 434 0 406 -10 370 -10 c 0
 339 -10 314 0 296 21 c 0
 276 40 266 66 266 94 c 0
 266 123 274 147 292 168 c 0
 310 188 336 198 369 198 c 0
 380 198 392 196 404 194 c 1
 404 396 l 2
 404 440 390 474 363 496 c 0
 334 520 297 531 250 531 c 0
 212 531 177 520 144 501 c 0
 114 483 90 459 74 434 c 1
 28 470 l 1
 40 490 57 508 80 526 c 0
 100 544 126 558 156 570 c 0
 186 582 219 586 250 586 c 0
 316 586 370 570 412 536 c 0
 453 504 472 456 472 396 c 2
369 146 m 0
 354 146 340 141 332 130 c 0
 322 118 316 106 316 94 c 0
 316 81 322 69 330 60 c 0
 340 48 354 42 369 42 c 0
 387 42 400 48 408 57 c 0
 417 68 422 80 422 94 c 0
 422 108 417 120 408 130 c 0
 400 141 387 146 369 146 c 0
EndSplineSet
EndChar
StartChar: uni0E28
Encoding: 200 3624 170
OldEncoding: 3624
Width: 621
Flags: W
HStem: 0 21G<146 216 462 534> 240 51<267.629 290> 396 52<279 292> 534 56<290 299>
VStem: 42 70<367 402> 146 70<0 261> 332 50<335 353> 462 72<0 402>
Fore
482 524 m 1
 486 531 494 543 501 560 c 0
 510 574 518 591 524 612 c 1
 586 579 l 1
 579 556 570 534 555 516 c 0
 538 495 525 480 518 471 c 1
 530 447 534 420 534 392 c 2
 534 0 l 1
 462 0 l 1
 462 386 l 2
 462 400 460 412 459 422 c 1
 452 417 438 408 420 399 c 0
 404 388 390 381 378 378 c 1
 380 374 380 368 381 363 c 0
 382 356 382 348 382 339 c 0
 382 310 374 288 352 270 c 0
 334 250 309 240 279 240 c 0
 250 240 230 248 216 261 c 1
 216 0 l 1
 146 0 l 1
 146 104 l 2
 146 129 142 152 134 171 c 0
 126 190 112 213 93 243 c 0
 75 272 63 296 54 315 c 0
 46 334 42 357 42 386 c 0
 42 429 54 466 76 496 c 0
 100 530 130 550 170 566 c 0
 207 582 248 590 290 590 c 0
 369 590 434 568 482 524 c 1
434 470 m 1
 426 482 410 495 387 510 c 0
 363 525 330 534 290 534 c 0
 264 534 237 530 212 520 c 0
 184 510 159 494 141 471 c 0
 120 447 112 417 112 381 c 0
 112 362 118 338 130 312 c 0
 142 286 148 266 153 250 c 1
 153 304 l 2
 153 348 162 381 184 408 c 0
 207 435 238 448 279 448 c 0
 296 448 309 447 318 444 c 0
 328 440 338 434 344 428 c 0
 351 422 354 418 354 418 c 1
 366 422 380 429 394 440 c 0
 410 448 423 459 434 470 c 1
279 396 m 0
 262 396 249 392 240 381 c 0
 232 370 226 360 226 344 c 0
 226 330 232 318 240 309 c 0
 249 297 262 291 279 291 c 0
 297 291 310 297 318 309 c 0
 327 318 332 330 332 344 c 0
 332 360 327 370 318 381 c 0
 310 392 297 396 279 396 c 0
EndSplineSet
EndChar
StartChar: uni0E29
Encoding: 201 3625 171
OldEncoding: 3625
Width: 681
Flags: W
HStem: 0 62<104 474> 208 53<459 484.65> 369 45<378 389> 375 51<141 149> 531 53<141 149>
VStem: 36 52<476 482> 172 72<62 478> 194 50<468.678 483> 286 46<321 332> 423 49<324 337> 506 70<110 212 262 576>
Fore
576 234 m 1
 576 110 l 2
 576 64 568 34 552 21 c 0
 537 8 504 0 453 0 c 2
 104 0 l 1
 104 62 l 1
 172 62 l 1
 172 380 l 1
 165 376 154 375 141 375 c 0
 108 375 82 386 64 406 c 0
 46 428 36 452 36 480 c 0
 36 508 46 532 64 552 c 0
 82 573 108 584 141 584 c 0
 162 584 180 578 195 570 c 0
 210 561 224 548 232 532 c 0
 240 518 244 498 244 478 c 2
 244 62 l 1
 453 62 l 2
 474 62 490 64 495 70 c 1
 501 76 506 90 506 110 c 2
 506 212 l 1
 496 210 482 208 459 208 c 0
 416 210 376 219 340 236 c 0
 304 252 288 282 286 322 c 0
 286 344 292 366 309 386 c 0
 324 404 346 414 378 414 c 0
 410 414 434 405 448 388 c 0
 465 369 472 348 472 324 c 0
 472 296 465 274 446 261 c 1
 466 261 486 261 506 262 c 1
 506 576 l 1
 576 576 l 1
 576 290 l 1
 588 298 598 312 610 330 c 0
 622 348 627 374 628 406 c 1
 686 406 l 1
 686 357 676 321 654 297 c 0
 634 274 608 252 576 234 c 1
378 278 m 0
 387 278 394 279 404 285 c 0
 410 290 416 296 418 302 c 0
 422 309 423 315 423 324 c 0
 423 338 420 348 412 356 c 0
 404 364 393 369 378 369 c 0
 363 369 352 364 344 356 c 0
 336 348 332 336 332 324 c 0
 332 312 336 302 344 291 c 0
 352 284 363 278 378 278 c 0
141 531 m 0
 123 531 110 525 102 516 c 0
 93 506 88 494 88 478 c 0
 88 465 93 453 102 442 c 0
 110 430 123 426 141 426 c 0
 158 426 171 430 180 442 c 0
 188 453 194 465 194 478 c 0
 194 494 188 506 180 516 c 0
 171 525 158 531 141 531 c 0
EndSplineSet
EndChar
StartChar: uni0E2A
Encoding: 202 3626 172
OldEncoding: 3626
Width: 592
Flags: W
HStem: -10 50<198 210> 0 21G<434 506> 146 52<198 210> 364 59<208 227> 531 55<257 299>
VStem: 81 65<213 263> 250 52<85 103> 434 72<0 16.3891 198 414>
Fore
198 146 m 0
 183 146 170 141 159 130 c 0
 152 120 146 108 146 93 c 0
 146 80 152 68 159 57 c 0
 170 46 183 40 198 40 c 0
 216 40 230 46 237 57 c 0
 246 68 250 80 250 93 c 0
 250 108 246 120 237 130 c 0
 230 141 216 146 198 146 c 0
416 466 m 1
 416 460 405 444 382 414 c 0
 362 386 350 366 350 362 c 1
 363 346 376 326 388 303 c 0
 400 282 408 261 417 243 c 0
 423 224 429 208 434 198 c 1
 434 396 l 2
 434 422 428 444 416 466 c 1
318 402 m 2
 321 402 332 418 354 452 c 0
 376 483 387 498 387 498 c 1
 362 520 324 531 276 531 c 0
 200 531 140 500 94 440 c 1
 50 474 l 1
 66 504 94 530 138 552 c 0
 178 574 225 586 279 586 c 0
 330 586 375 576 414 556 c 0
 417 556 428 570 444 596 c 0
 460 621 472 634 478 634 c 0
 480 632 486 628 495 624 c 0
 506 616 513 610 522 604 c 0
 530 600 532 596 532 590 c 1
 524 579 512 564 494 544 c 0
 474 525 466 516 466 513 c 0
 492 483 506 444 506 396 c 2
 506 0 l 1
 434 0 l 1
 434 21 428 51 416 92 c 0
 404 130 387 172 366 216 c 0
 346 258 322 292 297 322 c 0
 272 351 244 364 219 364 c 1
 170 360 146 316 146 237 c 0
 146 222 147 206 148 184 c 1
 152 186 156 190 165 194 c 0
 172 196 183 198 198 198 c 0
 231 198 256 188 274 168 c 0
 292 147 302 123 302 94 c 0
 302 64 292 39 274 21 c 0
 256 0 231 -10 198 -10 c 0
 166 -10 141 0 122 22 c 0
 104 44 92 68 88 96 c 0
 82 135 80 184 81 240 c 0
 81 291 94 334 116 366 c 0
 138 400 166 418 208 423 c 1
 244 423 270 418 285 410 c 1
 285 410 288 410 292 408 c 0
 298 406 304 406 310 405 c 0
 315 404 318 402 318 402 c 2
EndSplineSet
EndChar
StartChar: uni0E2B
Encoding: 203 3627 173
OldEncoding: 3627
Width: 681
Flags: W
HStem: 0 21G<172 244 524 594> 375 51<141 149> 531 53<141 149 490 501>
VStem: 36 52<476 482> 172 72<0 33 0 478> 194 50<468.678 483> 382 56<476 482> 524 70<0 289> 543 53<480 482>
Fore
172 0 m 1
 172 380 l 1
 165 376 154 375 141 375 c 0
 108 375 82 386 64 406 c 0
 46 428 36 452 36 480 c 0
 36 508 46 532 64 552 c 0
 82 573 108 584 141 584 c 0
 162 584 180 578 195 570 c 0
 210 561 224 548 232 532 c 0
 240 518 244 498 244 478 c 2
 244 216 l 1
 264 264 292 302 332 334 c 0
 369 364 399 387 420 396 c 1
 394 416 382 442 382 478 c 0
 382 507 393 531 412 552 c 0
 430 573 458 584 490 584 c 0
 524 584 549 573 568 552 c 0
 586 532 596 508 596 480 c 0
 596 460 590 444 582 428 c 0
 572 410 558 396 540 388 c 1
 549 386 561 375 573 356 c 0
 586 339 594 312 594 273 c 2
 594 0 l 1
 524 0 l 1
 524 273 l 2
 524 304 519 327 507 340 c 0
 495 352 486 362 478 364 c 1
 405 327 348 274 308 208 c 0
 264 142 244 80 244 22 c 2
 244 0 l 1
 172 0 l 1
490 532 m 0
 474 532 460 526 453 518 c 0
 442 507 438 495 438 480 c 0
 438 466 442 454 453 444 c 0
 460 432 474 428 490 428 c 0
 507 428 520 432 530 444 c 0
 537 454 543 466 543 480 c 0
 543 495 537 507 530 518 c 0
 520 526 507 532 490 532 c 0
141 531 m 0
 123 531 110 525 102 516 c 0
 93 506 88 494 88 478 c 0
 88 465 93 453 102 442 c 0
 110 430 123 426 141 426 c 0
 158 426 171 430 180 442 c 0
 188 453 194 465 194 478 c 0
 194 494 188 506 180 516 c 0
 171 525 158 531 141 531 c 0
EndSplineSet
EndChar
StartChar: uni0E2C
Encoding: 204 3628 174
OldEncoding: 3628
Width: 735
Flags: W
HStem: 0 21G<172 244 576 648> 375 51<141 149> 482 49<559 576> 531 53<141 149> 618 46<559 574>
VStem: 36 52<476 484> 172 72<0 478> 194 50<468.678 485> 470 49<564 586> 574 74<0 495> 604 50<566 584>
DStem: 414 406 414 550 566 70 576 184 414 550 414 406 244 184 258 70 414 406 414 550 566 70 576 184 414 550 414 406 244 184 258 70 414 406 414 550 566 70 576 184 414 550 414 406 244 184 258 70 414 406 414 550 566 70 576 184 414 550 414 406 244 184 258 70 414 406 414 550 566 70 576 184 414 550 414 406 244 184 258 70 414 406 414 550 566 70 576 184 414 550 414 406 244 184 258 70 414 406 414 550 566 70 576 184 414 550 414 406 244 184 258 70 414 406 414 550 566 70 576 184 414 550 414 406 244 184 258 70 414 406 414 550 566 70 576 184 414 550 414 406 244 184 258 70 414 406 414 550 566 70 576 184 414 550 414 406 244 184 258 70 414 406 414 550 566 70 576 184 414 550 414 406 244 184 258 70 414 406 414 550 566 70 576 184 414 550 414 406 244 184 258 70 414 406 414 550 566 70 576 184 414 550 414 406 244 184 258 70 414 406 414 550 566 70 576 184 414 550 414 406 244 184 258 70 414 406 414 550 566 70 576 184 414 550 414 406 244 184 258 70 414 406 414 550 566 70 576 184 414 550 414 406 244 184 258 70 414 406 414 550 566 70 576 184 414 550 414 406 244 184 258 70 414 406 414 550 566 70 576 184 414 550 414 406 244 184 258 70 414 406 414 550 566 70 576 184 414 550 414 406 244 184 258 70 414 406 414 550 566 70 576 184 414 550 414 406 244 184 258 70 414 406 414 550 566 70 576 184 414 550 414 406 244 184 258 70 414 406 414 550 566 70 576 184 414 550 414 406 244 184 258 70 414 406 414 550 566 70 576 184 414 550 414 406 244 184 258 70 414 406 414 550 566 70 576 184 414 550 414 406 244 184 258 70
Fore
172 0 m 1
 172 380 l 1
 165 376 154 375 141 375 c 0
 108 375 82 386 64 406 c 0
 46 428 36 452 36 480 c 0
 36 508 46 532 64 552 c 0
 82 573 108 584 141 584 c 0
 162 584 180 578 195 570 c 0
 210 561 224 548 232 532 c 0
 240 518 244 498 244 478 c 2
 244 184 l 1
 414 550 l 1
 576 184 l 1
 576 482 l 1
 540 482 513 490 495 508 c 0
 478 525 470 548 470 576 c 0
 470 602 478 622 496 639 c 0
 516 656 537 664 566 664 c 0
 591 664 612 656 628 638 c 0
 646 618 654 596 654 566 c 1
 663 570 674 578 687 591 c 0
 700 604 710 624 717 648 c 1
 766 618 l 1
 756 586 740 561 714 538 c 0
 688 518 666 501 648 495 c 1
 648 0 l 1
 576 0 l 2
 574 0 574 4 574 14 c 0
 574 22 573 32 572 44 c 0
 570 56 568 66 566 70 c 2
 414 406 l 1
 258 70 l 2
 252 60 249 48 248 34 c 0
 246 18 246 8 244 0 c 1
 172 0 l 1
141 531 m 0
 123 531 110 525 102 516 c 0
 93 506 88 494 88 478 c 0
 88 465 93 453 102 442 c 0
 110 430 123 426 141 426 c 0
 158 426 171 430 180 442 c 0
 188 453 194 465 194 478 c 0
 194 494 188 506 180 516 c 0
 171 525 158 531 141 531 c 0
561 531 m 0
 576 531 586 536 596 544 c 0
 602 552 604 562 604 574 c 0
 604 586 602 598 596 608 c 0
 586 615 576 618 561 618 c 0
 548 618 537 614 531 604 c 0
 522 597 519 586 519 574 c 0
 519 562 522 552 531 544 c 0
 537 536 548 531 561 531 c 0
EndSplineSet
EndChar
StartChar: uni0E2D
Encoding: 205 3629 175
OldEncoding: 3629
Width: 607
Flags: W
HStem: 0 62<219 417> 206 52<191 209> 362 52<191 209> 532 54<290 306>
VStem: 94 53<110 321> 94 72<110 212> 252 52<303 321> 448 72<110 416>
Fore
166 212 m 1
 166 110 l 2
 166 90 170 76 177 70 c 1
 182 64 196 62 219 62 c 2
 396 62 l 2
 418 62 434 64 441 70 c 0
 446 76 448 90 448 110 c 2
 448 396 l 2
 448 440 434 472 405 495 c 0
 375 519 336 532 290 532 c 0
 216 534 154 501 108 440 c 1
 64 474 l 1
 81 504 110 530 152 552 c 0
 192 574 238 586 292 586 c 0
 336 586 375 579 410 564 c 0
 444 549 471 530 492 500 c 0
 510 471 520 438 520 396 c 2
 520 110 l 2
 520 64 512 34 496 21 c 0
 480 8 446 0 396 0 c 2
 219 0 l 2
 183 0 158 3 141 9 c 0
 123 14 112 24 106 39 c 1
 99 54 94 78 94 110 c 2
 94 309 l 2
 94 322 99 338 105 352 c 0
 110 368 122 382 138 394 c 0
 153 406 174 414 201 414 c 0
 234 414 260 404 278 382 c 0
 297 363 304 339 304 310 c 0
 304 282 297 256 278 236 c 0
 260 216 234 206 201 206 c 0
 196 206 184 207 166 212 c 1
200 258 m 0
 216 258 230 262 238 274 c 0
 248 284 252 296 252 309 c 0
 252 324 248 336 238 346 c 0
 231 356 218 362 200 362 c 0
 183 362 170 356 160 348 c 0
 153 338 147 326 147 310 c 0
 147 296 153 284 160 273 c 0
 171 262 184 258 200 258 c 0
EndSplineSet
EndChar
StartChar: uni0E2E
Encoding: 206 3630 176
OldEncoding: 3630
Width: 607
Flags: W
HStem: 0 62<219 416> 148 52<198 203> 304 53<187 203> 386 56<276 300> 534 52<276 304>
VStem: 94 53<110 258> 94 72<110 156> 252 52<248 257> 448 72<110 428>
Fore
94 110 m 2
 94 250 l 2
 94 274 104 298 118 322 c 0
 134 346 162 357 201 357 c 0
 234 357 260 348 278 327 c 0
 297 308 304 284 304 255 c 0
 304 225 297 201 278 180 c 0
 260 159 234 148 201 148 c 0
 190 148 178 152 166 156 c 1
 166 110 l 2
 166 90 170 76 177 70 c 1
 182 64 196 62 219 62 c 2
 396 62 l 2
 418 62 434 64 441 70 c 0
 446 76 448 90 448 110 c 2
 448 428 l 1
 438 417 414 406 378 399 c 0
 340 390 308 386 276 386 c 0
 225 386 180 393 138 410 c 0
 94 428 75 452 75 482 c 0
 75 506 84 525 106 540 c 0
 129 556 154 568 186 576 c 0
 219 584 248 586 276 586 c 0
 321 586 357 582 387 573 c 0
 416 564 440 552 458 540 c 0
 472 531 482 525 482 524 c 1
 482 524 l 1
 504 546 524 568 540 590 c 1
 590 550 l 1
 574 530 561 510 546 496 c 0
 531 483 519 474 512 470 c 1
 516 466 519 459 520 448 c 1
 520 110 l 2
 520 64 512 34 496 21 c 0
 480 8 446 0 396 0 c 2
 219 0 l 2
 183 0 158 3 141 9 c 0
 123 14 112 24 106 39 c 1
 99 54 94 78 94 110 c 2
276 442 m 0
 304 442 332 446 356 453 c 0
 380 458 399 462 414 470 c 0
 428 477 434 480 434 482 c 0
 426 490 410 501 386 516 c 0
 360 526 322 534 276 534 c 0
 244 534 213 531 186 522 c 0
 159 513 146 501 146 484 c 0
 146 456 190 442 276 442 c 0
200 200 m 0
 218 200 231 206 238 216 c 0
 248 226 252 238 252 252 c 0
 252 268 248 279 238 290 c 0
 231 300 218 304 200 304 c 0
 184 304 171 300 160 290 c 0
 153 282 147 268 147 252 c 0
 147 237 153 225 160 216 c 0
 171 206 184 200 200 200 c 0
EndSplineSet
EndChar
StartChar: uni0E2F
Encoding: 207 3631 177
OldEncoding: 3631
Width: 565
Flags: W
HStem: 260 62<216 249> 381 49<164 185> 534 52<163 185>
VStem: 56 70<440 483> 230 46<473 491> 406 72<169 378 576 576>
Fore
172 586 m 0
 207 586 232 576 249 558 c 0
 268 537 276 513 276 484 c 0
 276 458 266 434 249 414 c 0
 231 392 208 381 180 381 c 0
 165 381 153 382 142 388 c 0
 134 392 128 394 123 396 c 1
 132 376 146 360 165 344 c 0
 183 328 207 322 234 322 c 0
 266 322 296 334 321 357 c 0
 346 381 368 412 386 452 c 0
 400 490 406 531 406 576 c 1
 478 576 l 1
 478 180 l 2
 478 122 465 78 435 48 c 0
 406 16 362 -8 297 -22 c 1
 279 42 l 1
 330 54 364 70 382 90 c 1
 399 108 406 141 406 186 c 2
 406 378 l 1
 392 339 369 309 339 290 c 0
 308 270 273 260 237 260 c 0
 200 260 165 270 132 291 c 0
 99 314 76 342 64 378 c 0
 60 396 56 417 56 440 c 0
 56 480 64 516 82 544 c 0
 102 573 130 586 172 586 c 0
177 430 m 0
 194 430 207 435 216 446 c 0
 224 456 230 468 230 483 c 0
 230 496 224 508 213 519 c 0
 206 530 192 534 177 534 c 0
 160 534 147 530 140 519 c 0
 130 508 126 496 126 483 c 0
 126 468 130 456 140 446 c 0
 147 435 160 430 177 430 c 0
EndSplineSet
EndChar
StartChar: uni0E30
Encoding: 208 3632 178
OldEncoding: 3632
Width: 469
Flags: W
HStem: 0 56<192 219> 162 46<135 149> 378 56<192 219> 540 46<135 149>
VStem: 36 52<106 118 484 496> 184 54<106 129 479 496>
Fore
192 378 m 0
 140 378 100 388 75 410 c 0
 50 430 36 456 36 486 c 0
 36 513 46 537 64 558 c 0
 82 576 106 586 135 586 c 0
 171 586 196 578 213 560 c 0
 231 540 238 519 238 494 c 0
 238 472 232 453 219 434 c 1
 237 434 262 442 291 459 c 0
 321 478 336 518 336 576 c 1
 406 576 l 1
 406 534 399 496 381 468 c 0
 363 440 339 416 308 400 c 0
 274 386 237 378 192 378 c 0
192 0 m 0
 141 0 102 10 75 32 c 0
 50 54 36 80 36 108 c 0
 36 134 46 158 64 178 c 0
 82 198 106 210 135 208 c 0
 160 208 180 201 195 194 c 0
 210 184 220 172 230 159 c 0
 236 146 238 130 238 116 c 0
 238 93 232 75 219 56 c 1
 237 56 262 64 291 82 c 0
 321 100 336 140 336 198 c 1
 406 198 l 1
 406 156 399 118 381 90 c 0
 363 60 339 38 308 22 c 0
 274 8 237 0 192 0 c 0
135 162 m 0
 120 162 108 158 100 148 c 0
 92 140 88 128 88 114 c 0
 88 102 93 90 102 80 c 0
 110 69 120 64 135 64 c 0
 152 64 165 69 172 78 c 0
 182 88 184 100 184 114 c 0
 184 129 182 141 172 148 c 0
 165 158 152 162 135 162 c 0
135 540 m 0
 120 540 108 536 100 526 c 0
 92 518 88 506 88 492 c 0
 88 480 93 468 102 458 c 0
 110 447 120 442 135 442 c 0
 152 442 165 447 172 458 c 0
 182 466 184 478 184 492 c 0
 184 524 168 540 135 540 c 0
EndSplineSet
EndChar
StartChar: uni0E31
Encoding: 209 3633 179
OldEncoding: 3633
Width: 0
Flags: W
HStem: 681 60<-134 -129> 870 48<-269.857 -257>
VStem: -357 48<807 826> -212 54<808 826>
Fore
-357 807 m 1
 -357 838 -350 866 -332 886 c 0
 -315 909 -291 918 -260 918 c 0
 -226 918 -204 909 -184 890 c 0
 -166 870 -158 848 -158 822 c 0
 -158 794 -168 770 -190 748 c 1
 -184 747 -174 746 -159 744 c 0
 -146 742 -135 741 -129 741 c 0
 -96 742 -64 752 -36 762 c 0
 -4 777 22 794 44 819 c 0
 66 843 81 870 90 902 c 1
 148 873 l 1
 140 838 120 808 93 780 c 0
 64 752 32 729 -8 710 c 0
 -46 692 -88 681 -132 681 c 0
 -192 680 -243 692 -285 710 c 0
 -328 730 -352 762 -357 807 c 1
-260 771 m 0
 -244 771 -232 777 -224 784 c 0
 -216 795 -212 807 -212 820 c 0
 -212 836 -216 848 -224 856 c 0
 -232 864 -244 870 -260 870 c 0
 -274 870 -286 864 -296 856 c 0
 -303 848 -309 836 -309 820 c 0
 -309 808 -303 796 -296 786 c 0
 -286 777 -274 771 -260 771 c 0
EndSplineSet
EndChar
StartChar: uni0E32
Encoding: 210 3634 180
OldEncoding: 3634
Width: 501
Flags: W
HStem: 0 21G<342 414> 534 52<198.656 231>
VStem: 342 72<0 435>
Fore
22 459 m 1
 44 500 69 532 99 555 c 0
 128 576 166 586 218 586 c 0
 276 586 324 572 360 543 c 0
 394 513 414 471 414 417 c 2
 414 0 l 1
 342 0 l 1
 342 420 l 2
 342 456 330 486 309 506 c 0
 285 525 255 534 218 534 c 0
 184 534 156 525 130 507 c 0
 105 488 87 462 75 434 c 1
 66 440 57 442 50 447 c 0
 40 452 30 454 22 459 c 1
EndSplineSet
EndChar
StartChar: uni0E33
Encoding: 211 3635 181
OldEncoding: 3635
Width: 501
Flags: W
HStem: 0 21G<342 414> 534 52<218 235> 682 47<-123 -117> 844 46<-123 -117>
VStem: -230 48<786 788> -66 45<786 788> 342 72<0 435>
Fore
-123 682 m 0
 -156 682 -182 693 -200 714 c 0
 -219 734 -230 758 -230 786 c 0
 -230 816 -220 838 -201 860 c 0
 -183 879 -158 890 -123 890 c 0
 -92 890 -66 879 -48 860 c 0
 -28 838 -21 816 -21 786 c 0
 -21 758 -28 734 -48 714 c 0
 -66 693 -92 682 -123 682 c 0
22 459 m 1
 44 500 69 532 99 555 c 0
 128 576 166 586 218 586 c 0
 276 586 324 572 360 543 c 0
 394 513 414 471 414 417 c 2
 414 0 l 1
 342 0 l 1
 342 420 l 2
 342 456 330 486 309 506 c 0
 285 525 255 534 218 534 c 0
 184 534 156 525 130 507 c 0
 105 488 87 462 75 434 c 1
 66 440 57 442 50 447 c 0
 40 452 30 454 22 459 c 1
-123 844 m 0
 -142 844 -156 838 -166 826 c 0
 -177 816 -182 801 -182 786 c 0
 -182 771 -177 758 -166 746 c 0
 -156 734 -142 729 -123 729 c 0
 -112 729 -102 732 -93 738 c 0
 -84 742 -78 752 -74 759 c 0
 -68 768 -66 778 -66 786 c 0
 -66 801 -70 816 -81 826 c 0
 -92 838 -105 844 -123 844 c 0
EndSplineSet
EndChar
StartChar: uni0E34
Encoding: 212 3636 182
OldEncoding: 3636
Width: 0
Flags: W
HStem: 732 51<-422 -352> 862 53<-321 -297>
Fore
-297 915 m 1
 -220 904 -168 876 -135 830 c 0
 -105 782 -82 730 -70 675 c 1
 -90 681 -120 692 -159 704 c 0
 -198 716 -240 722 -286 728 c 0
 -316 730 -348 732 -380 732 c 0
 -417 732 -452 730 -480 729 c 0
 -510 726 -532 722 -544 720 c 1
 -538 754 -524 786 -500 818 c 0
 -478 848 -448 872 -414 888 c 0
 -378 908 -339 915 -297 915 c 1
-310 862 m 1
 -346 862 -376 855 -405 836 c 0
 -434 819 -452 800 -456 778 c 1
 -447 780 -438 780 -422 782 c 0
 -406 783 -382 783 -354 783 c 0
 -328 783 -310 783 -297 782 c 0
 -252 778 -219 771 -194 760 c 0
 -168 753 -153 744 -144 740 c 1
 -177 810 -231 850 -310 862 c 1
EndSplineSet
EndChar
StartChar: uni0E35
Encoding: 213 3637 183
OldEncoding: 3637
Width: 0
Flags: W
HStem: 732 51<-388 -317> 862 53<-287 -262>
VStem: -122 65<849 982>
Fore
-122 849 m 1
 -122 982 l 1
 -57 982 l 1
 -57 747 l 1
 -57 747 l 1
 -57 747 -56 741 -51 729 c 0
 -46 716 -42 696 -38 675 c 1
 -56 681 -87 692 -126 704 c 0
 -165 716 -207 722 -252 728 c 0
 -284 730 -314 732 -346 732 c 0
 -382 732 -417 730 -446 729 c 0
 -477 726 -498 722 -510 720 c 1
 -506 754 -490 786 -466 818 c 0
 -444 848 -416 872 -380 890 c 0
 -344 908 -304 915 -262 915 c 1
 -236 912 -212 904 -190 896 c 0
 -170 886 -154 876 -142 868 c 0
 -132 860 -126 852 -122 849 c 1
-276 862 m 1
 -302 862 -324 858 -344 849 c 0
 -364 840 -381 831 -394 818 c 0
 -408 806 -417 792 -422 778 c 1
 -414 780 -404 780 -388 782 c 0
 -374 783 -350 783 -321 783 c 0
 -296 783 -276 783 -262 782 c 0
 -219 778 -184 771 -159 760 c 0
 -134 753 -118 744 -110 740 c 1
 -122 768 -141 795 -166 819 c 0
 -192 843 -226 858 -276 862 c 1
EndSplineSet
EndChar
StartChar: uni0E36
Encoding: 214 3638 184
OldEncoding: 3638
Width: 0
Flags: W
HStem: 732 51<-422 -352> 862 56<-328 -310> 948 45<-161 -144>
VStem: -246 48<903 915> -112 49<898 904>
Fore
-63 902 m 0
 -63 879 -68 861 -80 844 c 0
 -92 826 -106 818 -126 813 c 1
 -117 801 -108 784 -96 759 c 0
 -84 734 -76 705 -70 675 c 1
 -90 681 -120 692 -159 704 c 0
 -198 716 -240 722 -286 728 c 0
 -316 730 -348 732 -380 732 c 0
 -417 732 -452 730 -480 729 c 0
 -510 726 -532 722 -544 720 c 1
 -537 756 -524 790 -500 822 c 0
 -478 852 -448 876 -418 894 c 0
 -387 910 -356 918 -326 918 c 0
 -314 918 -300 916 -288 915 c 0
 -276 914 -266 910 -258 909 c 0
 -249 904 -246 903 -246 903 c 1
 -246 926 -237 946 -220 964 c 0
 -206 982 -183 993 -156 993 c 0
 -128 993 -104 986 -88 968 c 0
 -74 950 -64 927 -63 902 c 0
-154 948 m 0
 -170 948 -180 944 -186 936 c 0
 -195 927 -198 916 -198 904 c 0
 -198 896 -195 885 -186 876 c 0
 -178 868 -168 862 -154 862 c 0
 -142 862 -132 868 -123 876 c 0
 -116 885 -112 896 -112 904 c 0
 -112 916 -116 927 -122 936 c 0
 -130 944 -141 948 -154 948 c 0
-310 862 m 1
 -336 862 -357 858 -378 849 c 0
 -399 840 -416 831 -429 818 c 0
 -442 806 -452 792 -456 778 c 1
 -447 780 -438 780 -422 782 c 0
 -406 783 -382 783 -354 783 c 0
 -328 783 -310 783 -297 782 c 0
 -252 778 -219 771 -194 760 c 0
 -168 753 -153 744 -144 740 c 1
 -156 768 -174 794 -200 818 c 0
 -225 840 -261 856 -310 862 c 1
EndSplineSet
EndChar
StartChar: uni0E37
Encoding: 215 3639 185
OldEncoding: 3639
Width: 0
Flags: W
HStem: 732 51<-388 -317> 862 56<-288 -276>
VStem: -249 65<914 982> -122 65<848 982>
Fore
-57 746 m 1
 -56 746 -50 722 -38 675 c 1
 -56 681 -87 692 -126 704 c 0
 -165 716 -207 722 -252 728 c 0
 -284 730 -314 732 -346 732 c 0
 -382 732 -417 730 -446 729 c 0
 -477 726 -498 722 -510 720 c 1
 -506 758 -488 792 -466 820 c 0
 -442 850 -417 874 -386 891 c 0
 -352 910 -318 918 -286 918 c 0
 -273 918 -261 916 -249 914 c 1
 -249 982 l 1
 -184 982 l 1
 -184 894 l 1
 -158 884 -138 868 -122 848 c 1
 -122 982 l 1
 -57 982 l 1
 -57 746 l 1
-276 862 m 1
 -312 862 -342 855 -370 836 c 0
 -400 819 -417 800 -422 778 c 1
 -414 780 -404 780 -388 782 c 0
 -374 783 -350 783 -321 783 c 0
 -296 783 -276 783 -262 782 c 0
 -219 778 -184 771 -159 760 c 0
 -134 753 -118 744 -110 740 c 1
 -142 810 -196 850 -276 862 c 1
EndSplineSet
EndChar
StartChar: uni0E38
Encoding: 216 3640 186
OldEncoding: 3640
Width: 0
Flags: W
HStem: -279 53<-202 -184> -123 53<-192 -184>
VStem: -297 51<-177 -166> -159 71<-423 -172> -140 52<-184 -166>
Fore
-88 -423 m 1
 -159 -423 l 1
 -159 -274 l 1
 -170 -278 -182 -279 -195 -279 c 0
 -226 -279 -252 -270 -270 -249 c 0
 -288 -230 -297 -206 -297 -177 c 0
 -297 -147 -288 -123 -270 -102 c 0
 -250 -81 -225 -70 -192 -70 c 4
 -162 -70 -138 -80 -118 -99 c 0
 -100 -116 -88 -141 -88 -172 c 2
 -88 -423 l 1
-192 -226 m 0
 -177 -226 -162 -222 -153 -212 c 0
 -144 -204 -140 -192 -140 -177 c 0
 -140 -160 -144 -148 -153 -140 c 0
 -160 -129 -174 -123 -192 -123 c 0
 -208 -123 -222 -129 -232 -141 c 0
 -240 -152 -246 -162 -246 -177 c 0
 -246 -190 -240 -201 -231 -212 c 0
 -220 -222 -207 -226 -192 -226 c 0
EndSplineSet
EndChar
StartChar: uni0E39
Encoding: 217 3641 187
OldEncoding: 3641
Width: 0
Flags: W
HStem: -440 59<-214.633 -199> -279 53<-361 -343> -123 53<-351 -343>
VStem: -456 52<-185 -167> -318 70<-339 -274> -298 50<-185 -167> -159 71<-339 -78>
Fore
-318 -339 m 2
 -318 -274 l 1
 -328 -278 -340 -279 -352 -279 c 0
 -386 -279 -408 -270 -428 -248 c 0
 -446 -225 -456 -201 -456 -174 c 0
 -456 -147 -446 -123 -428 -102 c 0
 -408 -81 -382 -70 -351 -70 c 0
 -322 -70 -297 -80 -278 -99 c 0
 -260 -116 -248 -141 -248 -172 c 2
 -248 -339 l 2
 -248 -351 -243 -362 -234 -369 c 0
 -225 -378 -216 -381 -204 -381 c 0
 -192 -381 -182 -378 -172 -369 c 0
 -165 -362 -159 -351 -159 -339 c 2
 -159 -78 l 1
 -88 -78 l 1
 -88 -339 l 2
 -88 -369 -100 -393 -122 -412 c 0
 -144 -430 -171 -440 -204 -440 c 0
 -234 -440 -261 -429 -284 -410 c 0
 -308 -392 -318 -368 -318 -339 c 2
-351 -226 m 0
 -334 -226 -321 -222 -312 -212 c 0
 -303 -201 -298 -190 -298 -177 c 0
 -298 -162 -303 -152 -312 -141 c 0
 -321 -129 -334 -123 -351 -123 c 0
 -368 -123 -381 -129 -390 -140 c 0
 -399 -148 -404 -160 -404 -177 c 0
 -404 -190 -399 -201 -388 -212 c 0
 -380 -222 -366 -226 -351 -226 c 0
EndSplineSet
EndChar
StartChar: uni0E3A
Encoding: 218 3642 188
OldEncoding: 3642
Width: 0
Flags: W
Fore
-123 -105 m 0
 -106 -105 -93 -110 -84 -120 c 0
 -76 -132 -70 -144 -70 -159 c 0
 -70 -172 -76 -184 -84 -196 c 0
 -93 -207 -106 -212 -123 -212 c 0
 -141 -212 -154 -207 -162 -196 c 0
 -172 -184 -178 -172 -178 -159 c 0
 -178 -146 -172 -134 -165 -122 c 0
 -154 -112 -141 -106 -123 -105 c 0
EndSplineSet
EndChar
StartChar: dottedcircle
Encoding: 221 9676 190
OldEncoding: 63260
Width: 1048
Flags: W
HStem: 4 42<546 548> 46 42<381 387> 57 43<688 690> 147 41<272 279> 160 41<780 787> 304 42<819 821> 312 40<231 233> 454 41<780 787> 459 42<279 281> 552 44<675 677> 561 41<392 394> 600 40<544 548>
VStem: 210 40<332 334> 250 41<168 170> 260 40<482 484> 360 42<68 70> 370 44<582 584> 525 41<26 28 621 623> 654 42<573 575> 668 40<78 85> 759 41<182 188 474 476> 798 42<326 332>
Fore
268 498 m 2
380 600 m 2
368 84 m 2
260 186 m 2
676 96 m 2
768 200 m 2
768 494 m 2
663 591 m 2
807 344 m 2
219 351 m 2
532 638 m 2
279 501 m 0
 291 501 300 494 300 482 c 0
 300 470 291 459 279 459 c 0
 268 459 260 470 260 482 c 0
 260 494 268 501 279 501 c 0
392 602 m 0
 404 602 414 594 414 582 c 0
 414 570 404 561 392 561 c 0
 381 561 370 570 370 582 c 0
 370 594 381 602 392 602 c 0
381 88 m 0
 392 88 402 78 402 68 c 0
 402 56 392 46 381 46 c 0
 369 46 360 56 360 68 c 0
 360 78 369 88 381 88 c 0
272 188 m 0
 284 188 291 180 291 168 c 0
 291 156 284 147 272 147 c 0
 260 147 250 156 250 168 c 0
 250 180 260 188 272 188 c 0
688 100 m 0
 700 100 708 90 708 78 c 0
 708 68 700 57 688 57 c 0
 676 57 668 68 668 78 c 0
 668 90 676 100 688 100 c 0
780 201 m 0
 792 201 800 194 800 182 c 0
 800 170 792 160 780 160 c 0
 768 160 759 170 759 182 c 0
 759 194 768 201 780 201 c 0
780 495 m 0
 792 495 800 486 800 474 c 0
 800 462 792 454 780 454 c 0
 768 454 759 462 759 474 c 0
 759 486 768 495 780 495 c 0
675 596 m 0
 687 596 696 585 696 573 c 0
 696 562 687 552 675 552 c 0
 664 552 654 562 654 573 c 0
 654 585 664 596 675 596 c 0
819 346 m 0
 831 346 840 338 840 326 c 0
 840 314 831 304 819 304 c 0
 808 304 798 314 798 326 c 0
 798 338 808 346 819 346 c 0
231 352 m 0
 243 352 250 344 250 332 c 0
 250 321 243 312 231 312 c 0
 219 312 210 321 210 332 c 0
 210 344 219 352 231 352 c 0
546 46 m 0
 558 46 566 38 566 26 c 0
 566 14 558 4 546 4 c 0
 534 4 525 14 525 26 c 0
 525 38 534 46 546 46 c 0
544 640 m 0
 556 640 564 632 564 621 c 0
 564 609 556 600 544 600 c 0
 532 600 524 609 524 621 c 0
 524 632 532 640 544 640 c 0
EndSplineSet
EndChar
StartChar: uni0E3F
Encoding: 223 3647 191
OldEncoding: 3647
Width: 696
VWidth: 2048
Flags: W
HStem: 0 78<171 285 363 458> 356 79<171 285 363 398> 690 78<93 285 363 390.223>
VStem: 93 78<0 356 0 690> 285 78<-104 0 78 356 435 690 768 861> 530 79<554 576> 564 76<199 233>
Fore
285 435 m 5
 285 690 l 5
 171 690 l 5
 171 435 l 5
 285 435 l 5
285 78 m 5
 285 356 l 5
 171 356 l 5
 171 78 l 5
 285 78 l 5
363 356 m 5
 363 78 l 5
 426 78 l 6
 519 78 564 126 564 220 c 4
 564 276 544 314 506 334 c 4
 477 350 432 356 374 356 c 6
 363 356 l 5
363 690 m 5
 363 435 l 5
 381 435 l 6
 422 435 456 446 483 465 c 4
 513 488 530 518 530 556 c 4
 530 646 472 690 363 690 c 5
285 861 m 5
 363 861 l 5
 363 768 l 5
 416 768 l 6
 459 768 498 754 536 728 c 4
 585 692 609 640 609 574 c 4
 609 500 572 444 498 406 c 5
 546 382 l 6
 609 352 640 296 640 216 c 4
 640 147 616 92 570 50 c 4
 534 16 496 0 458 0 c 6
 363 0 l 5
 363 -104 l 5
 285 -104 l 5
 285 0 l 5
 93 0 l 5
 93 768 l 5
 285 768 l 5
 285 861 l 5
EndSplineSet
EndChar
StartChar: uni0E40
Encoding: 224 3648 192
OldEncoding: 3648
Width: 339
Flags: W
HStem: -10 52<200 207> 146 52<189 207>
VStem: 94 53<85 103> 94 72<92 576> 252 51<85 103>
Fore
94 576 m 1
 166 576 l 1
 166 194 l 1
 174 196 186 198 201 198 c 0
 234 198 260 188 278 168 c 0
 296 147 303 122 303 93 c 0
 303 64 296 40 276 21 c 0
 258 0 232 -10 200 -10 c 0
 170 -10 146 -2 128 16 c 0
 108 34 94 60 94 92 c 2
 94 576 l 1
200 146 m 0
 184 146 171 141 162 130 c 0
 153 120 147 108 147 94 c 0
 147 80 153 68 160 57 c 0
 171 48 184 42 200 42 c 0
 218 42 231 48 238 57 c 0
 248 68 252 80 252 94 c 0
 252 108 248 120 238 130 c 0
 230 141 216 146 200 146 c 0
EndSplineSet
EndChar
StartChar: uni0E41
Encoding: 225 3649 193
OldEncoding: 3649
Width: 610
Flags: W
HStem: -10 52<200 207 471 479> 146 52<189 207 461 479>
VStem: 94 53<85 103> 94 72<92 576> 252 51<85 103> 368 50<85 103> 368 72<92 576> 525 51<85 103>
Fore
94 576 m 1
 166 576 l 1
 166 194 l 1
 174 196 186 198 201 198 c 0
 234 198 260 188 278 168 c 0
 296 147 303 122 303 93 c 0
 303 64 296 40 276 21 c 0
 258 0 232 -10 200 -10 c 0
 170 -10 146 -2 128 16 c 0
 108 34 94 60 94 92 c 2
 94 576 l 1
368 576 m 1
 440 576 l 1
 440 194 l 1
 448 196 460 198 472 198 c 0
 506 198 531 188 549 168 c 0
 568 146 576 122 576 93 c 0
 576 66 566 42 548 22 c 0
 530 0 504 -10 471 -10 c 0
 442 -10 418 -2 400 16 c 0
 381 34 368 60 368 92 c 2
 368 576 l 1
471 146 m 0
 456 146 442 141 434 130 c 0
 423 118 418 106 418 94 c 0
 418 81 423 69 432 60 c 0
 442 48 456 42 471 42 c 0
 488 42 501 48 512 60 c 0
 520 69 525 81 525 94 c 0
 525 106 520 118 510 130 c 0
 500 141 486 146 471 146 c 0
200 146 m 0
 184 146 171 141 162 130 c 0
 153 120 147 108 147 94 c 0
 147 80 153 68 160 57 c 0
 171 48 184 42 200 42 c 0
 218 42 231 48 238 57 c 0
 248 68 252 80 252 94 c 0
 252 108 248 120 238 130 c 0
 230 141 216 146 200 146 c 0
EndSplineSet
EndChar
StartChar: uni0E42
Encoding: 226 3650 194
OldEncoding: 3650
Width: 363
Flags: W
HStem: -10 52<246 255> 146 52<237 255> 948 58<282 288> 990 58<130 143>
VStem: 141 53<85 103> 141 71<92 807> 298 52<85 103>
Fore
141 92 m 2
 141 782 l 2
 141 812 138 834 132 849 c 0
 126 862 110 876 87 891 c 0
 62 908 16 928 -50 957 c 1
 -36 974 -14 993 18 1016 c 0
 51 1038 88 1048 130 1048 c 0
 154 1048 183 1042 216 1029 c 0
 248 1014 272 1006 285 1006 c 0
 302 1006 321 1014 342 1029 c 1
 370 980 l 1
 342 957 315 948 286 948 c 0
 268 948 243 956 208 969 c 0
 172 986 147 990 130 990 c 0
 114 990 99 987 87 981 c 0
 75 976 68 970 63 968 c 1
 112 942 142 926 158 916 c 0
 172 908 186 891 196 872 c 0
 207 850 212 822 212 784 c 2
 212 194 l 1
 220 196 232 198 248 198 c 0
 279 198 304 188 322 168 c 0
 340 147 350 122 350 93 c 0
 350 64 340 40 322 21 c 0
 303 0 278 -10 246 -10 c 0
 218 -10 194 -2 174 16 c 0
 154 34 141 60 141 92 c 2
246 146 m 0
 231 146 218 141 208 130 c 0
 198 120 194 108 194 94 c 0
 194 80 198 68 207 57 c 0
 216 48 230 42 246 42 c 0
 262 42 276 48 285 57 c 0
 292 68 298 80 298 94 c 0
 298 108 292 120 284 130 c 0
 274 141 261 146 246 146 c 0
EndSplineSet
EndChar
StartChar: uni0E43
Encoding: 227 3651 195
OldEncoding: 3651
Width: 363
Flags: W
HStem: -10 52<234.81 251> 146 52<234.861 251> 798 40<23 34> 921 41<16 32> 1004 49<67 89>
VStem: -56 44<879 910> 69 41<879 887> 141 53<85 103> 141 71<92 938> 298 52<85 103>
Fore
141 92 m 2
 141 921 l 2
 141 976 120 1004 78 1004 c 0
 56 1004 40 999 32 988 c 0
 24 976 18 968 16 962 c 1
 46 962 69 952 87 938 c 0
 102 922 110 903 110 879 c 0
 110 855 102 836 87 820 c 0
 70 806 52 798 30 798 c 0
 12 798 -3 804 -18 813 c 0
 -34 822 -44 837 -50 856 c 0
 -54 873 -56 891 -56 910 c 0
 -56 951 -44 986 -22 1012 c 0
 0 1040 34 1053 76 1053 c 0
 117 1053 148 1041 174 1018 c 0
 200 994 212 962 212 918 c 2
 212 194 l 1
 220 196 232 198 248 198 c 0
 279 198 304 188 322 168 c 0
 340 147 350 122 350 93 c 0
 350 64 340 40 322 21 c 0
 303 0 278 -10 246 -10 c 0
 218 -10 194 -2 174 16 c 0
 154 34 141 60 141 92 c 2
28 921 m 0
 15 921 4 916 0 909 c 1
 -9 900 -12 891 -12 879 c 0
 -12 868 -9 860 0 850 c 1
 4 843 15 838 28 838 c 0
 42 838 52 843 60 850 c 0
 66 860 69 868 69 879 c 0
 69 890 66 900 60 909 c 0
 52 916 42 921 28 921 c 0
246 146 m 0
 231 146 218 141 208 130 c 0
 198 120 194 108 194 94 c 0
 194 80 198 68 207 57 c 0
 216 48 230 42 246 42 c 0
 262 42 276 48 285 57 c 0
 292 68 298 80 298 94 c 0
 298 108 292 120 284 130 c 0
 274 141 261 146 246 146 c 0
EndSplineSet
EndChar
StartChar: uni0E44
Encoding: 228 3652 196
OldEncoding: 3652
Width: 423
Flags: W
HStem: -10 52<304 311> 146 52<301 311> 986 62<193 206>
VStem: 201 51<85 103> 201 72<92 978> 357 53<94 103>
DStem: -16 970 32 990 39 762 82 795 134 993 186 976 82 795 123 759
Fore
201 92 m 2
 201 970 l 2
 201 980 200 986 195 986 c 0
 190 986 188 981 186 976 c 2
 123 759 l 2
 116 730 102 717 81 717 c 0
 62 717 48 732 39 762 c 2
 -16 970 l 2
 -24 994 -34 1008 -50 1014 c 1
 -14 1053 l 1
 9 1044 24 1024 32 990 c 2
 82 795 l 1
 134 993 l 1
 144 1030 166 1048 206 1048 c 0
 225 1048 243 1042 255 1030 c 0
 266 1018 273 1000 273 976 c 2
 273 194 l 1
 282 196 292 198 309 198 c 0
 340 198 366 188 386 168 c 0
 402 147 410 123 410 94 c 0
 410 66 402 40 382 21 c 0
 364 0 338 -10 304 -10 c 0
 276 -10 252 -2 234 16 c 0
 216 34 201 60 201 92 c 2
304 146 m 0
 290 146 278 141 268 130 c 0
 258 118 252 106 252 94 c 0
 252 81 258 69 268 60 c 0
 276 48 290 42 304 42 c 0
 322 42 336 48 344 57 c 0
 352 68 357 80 357 94 c 0
 357 108 352 120 344 130 c 0
 334 141 321 146 304 146 c 0
EndSplineSet
EndChar
StartChar: uni0E45
Encoding: 229 3653 197
OldEncoding: 3653
Width: 501
Flags: W
HStem: 534 52<198.656 231>
VStem: 342 72<-300 436>
Fore
22 459 m 1
 44 500 69 532 99 555 c 0
 128 576 166 586 218 586 c 0
 276 586 324 572 360 543 c 0
 394 513 414 471 414 417 c 2
 414 -300 l 1
 342 -300 l 1
 342 420 l 2
 342 456 330 486 309 506 c 0
 285 525 255 534 218 534 c 0
 184 534 156 525 130 507 c 0
 105 488 87 462 75 434 c 1
 66 440 57 442 50 447 c 0
 40 452 30 454 22 459 c 1
EndSplineSet
EndChar
StartChar: uni0E46
Encoding: 230 3654 198
OldEncoding: 3654
Width: 673
Flags: W
HStem: 244 48<310 312> 386 44<310 322>
VStem: 177 60<400 420> 357 47<339 343> 516 70<-43 432>
Fore
456 586 m 1
 486 582 512 570 532 555 c 0
 552 538 566 519 574 496 c 0
 584 474 586 447 586 417 c 2
 586 -32 l 2
 586 -70 579 -105 568 -130 c 0
 556 -156 536 -178 510 -194 c 0
 484 -210 448 -224 406 -234 c 1
 388 -170 l 1
 440 -158 472 -141 490 -122 c 0
 507 -104 516 -70 516 -26 c 2
 516 406 l 2
 516 440 512 465 506 483 c 0
 498 500 482 516 456 526 c 1
 388 484 l 1
 388 484 l 1
 388 486 378 490 360 500 c 0
 339 510 322 520 309 526 c 1
 284 518 266 501 255 480 c 0
 243 458 237 432 237 400 c 1
 243 405 250 410 262 418 c 0
 274 428 290 430 310 430 c 0
 339 430 363 422 380 404 c 0
 394 386 404 364 404 339 c 0
 404 314 394 291 380 273 c 0
 363 255 339 244 310 244 c 0
 282 244 258 252 237 268 c 0
 218 284 201 303 192 328 c 0
 182 354 177 381 177 414 c 0
 177 456 190 494 216 525 c 0
 240 558 272 578 310 586 c 1
 324 579 340 572 360 561 c 0
 378 550 388 546 388 544 c 1
 456 586 l 1
310 386 m 0
 297 386 286 380 278 370 c 0
 270 363 264 351 264 339 c 0
 264 327 268 316 276 309 c 0
 285 298 296 292 310 292 c 0
 326 292 338 298 346 308 c 0
 354 315 357 327 357 339 c 0
 357 352 354 364 346 374 c 0
 338 381 326 386 310 386 c 0
EndSplineSet
EndChar
StartChar: uni0E47
Encoding: 231 3655 199
OldEncoding: 3655
Width: 0
Flags: W
HStem: 675 41<-177.777 -165> 760 56<-336 -322.806> 796 38<-179.829 -165> 873 51<-249 -205> 878 52<-345 -314>
VStem: -488 56<810 822> -129 41<756 767>
Fore
-168 675 m 0
 -186 675 -201 678 -213 687 c 0
 -230 694 -244 705 -260 718 c 0
 -276 734 -290 744 -302 752 c 0
 -314 758 -324 760 -336 760 c 0
 -362 759 -378 747 -388 726 c 0
 -399 704 -404 687 -405 670 c 1
 -428 681 -446 702 -462 730 c 0
 -480 759 -488 788 -488 818 c 0
 -488 831 -484 844 -480 860 c 0
 -460 908 -416 930 -340 930 c 0
 -322 930 -308 930 -296 928 c 0
 -268 926 -243 924 -220 924 c 0
 -188 924 -162 928 -147 940 c 0
 -132 951 -123 970 -123 1002 c 1
 -68 1002 l 1
 -68 956 -81 922 -106 903 c 0
 -134 884 -177 873 -234 873 c 0
 -258 873 -285 874 -314 878 c 1
 -352 878 -382 874 -402 866 c 0
 -422 858 -432 843 -432 820 c 0
 -432 806 -428 786 -417 765 c 1
 -414 772 -405 783 -392 796 c 0
 -380 808 -362 816 -336 816 c 0
 -315 816 -297 810 -282 801 c 0
 -264 792 -252 783 -246 777 c 1
 -240 795 -232 808 -219 819 c 0
 -206 830 -188 834 -168 834 c 0
 -142 834 -123 826 -108 812 c 0
 -94 796 -88 778 -88 756 c 0
 -88 734 -94 714 -108 699 c 0
 -123 682 -142 675 -168 675 c 0
-168 716 m 0
 -156 716 -146 718 -140 728 c 0
 -132 735 -129 746 -129 756 c 0
 -129 768 -132 777 -140 784 c 0
 -146 794 -156 796 -168 796 c 0
 -180 796 -190 794 -196 784 c 0
 -204 777 -207 768 -207 756 c 0
 -207 746 -204 738 -196 729 c 0
 -190 720 -180 716 -168 716 c 0
EndSplineSet
EndChar
StartChar: uni0E48
Encoding: 232 3656 200
OldEncoding: 3656
Width: 0
Flags: W
VStem: -156 64<1048 1248>
Fore
-156 1048 m 1
 -156 1248 l 1
 -92 1248 l 1
 -92 1048 l 1
 -156 1048 l 1
EndSplineSet
EndChar
StartChar: uni0E49
Encoding: 233 3657 201
OldEncoding: 3657
Width: 0
Flags: W
HStem: 999 48<-196 -165.254> 1074 44<-254 -241> 1078 40<-243 -230> 1200 44<-243 -234>
VStem: -330 46<1160 1162> -200 52<1149 1162>
Fore
-148 1155 m 0
 -148 1125 -154 1101 -162 1083 c 0
 -172 1065 -182 1053 -188 1047 c 1
 -141 1047 -102 1059 -74 1084 c 0
 -52 1104 -39 1124 -34 1149 c 0
 -27 1174 -24 1203 -24 1238 c 1
 39 1238 l 1
 39 1131 3 1060 -69 1026 c 0
 -105 1006 -147 999 -196 999 c 0
 -218 999 -236 1000 -250 1002 c 0
 -266 1005 -278 1006 -284 1008 c 1
 -276 1012 -266 1018 -255 1029 c 0
 -243 1041 -234 1056 -230 1078 c 1
 -231 1078 -232 1078 -236 1077 c 0
 -240 1074 -246 1074 -250 1074 c 0
 -256 1074 -262 1077 -273 1078 c 0
 -312 1090 -330 1118 -330 1160 c 0
 -330 1174 -327 1190 -318 1202 c 0
 -312 1215 -302 1226 -288 1234 c 0
 -276 1240 -261 1244 -243 1244 c 0
 -213 1244 -190 1236 -174 1216 c 0
 -158 1200 -148 1179 -148 1155 c 0
-243 1200 m 0
 -256 1200 -266 1197 -273 1188 c 0
 -279 1179 -284 1172 -284 1160 c 0
 -284 1148 -279 1138 -273 1131 c 0
 -266 1122 -256 1118 -243 1118 c 0
 -231 1118 -220 1122 -212 1131 c 0
 -204 1137 -200 1148 -200 1160 c 0
 -200 1172 -204 1179 -212 1188 c 0
 -219 1197 -230 1200 -243 1200 c 0
EndSplineSet
EndChar
StartChar: uni0E4A
Encoding: 234 3658 202
OldEncoding: 3658
Width: 0
Flags: W
HStem: 1014 30<-315 -305> 1119 30<-325.947 -305> 1191 47<-317 -306 -203 -190>
VStem: -406 54<1082 1134> -278 30<1076 1084> -159 45<1124 1143> -54 50<1176 1198>
Fore
-315 1014 m 0
 -334 1016 -350 1020 -364 1032 c 0
 -380 1044 -390 1059 -396 1078 c 0
 -404 1096 -406 1116 -406 1134 c 0
 -405 1164 -394 1190 -380 1209 c 0
 -364 1227 -342 1238 -315 1238 c 0
 -303 1238 -292 1236 -284 1233 c 0
 -274 1227 -266 1224 -261 1218 c 0
 -256 1214 -252 1210 -250 1209 c 1
 -248 1214 -240 1218 -231 1227 c 0
 -220 1234 -207 1238 -192 1238 c 0
 -165 1238 -144 1227 -132 1209 c 0
 -120 1190 -114 1166 -114 1134 c 0
 -114 1110 -120 1086 -134 1060 c 1
 -128 1065 -117 1070 -105 1078 c 0
 -92 1086 -81 1098 -75 1110 c 0
 -62 1132 -54 1155 -54 1179 c 0
 -54 1194 -56 1209 -60 1224 c 1
 -10 1240 l 1
 -8 1230 -4 1216 -4 1198 c 0
 -4 1152 -16 1113 -39 1082 c 0
 -68 1040 -126 1018 -208 1018 c 1
 -200 1030 -190 1046 -178 1060 c 0
 -168 1078 -160 1098 -159 1124 c 0
 -159 1144 -162 1161 -168 1173 c 0
 -172 1185 -184 1191 -201 1191 c 0
 -213 1191 -222 1188 -231 1179 c 0
 -238 1172 -246 1164 -248 1160 c 1
 -249 1164 -256 1172 -266 1179 c 0
 -276 1188 -290 1191 -308 1191 c 0
 -321 1191 -332 1186 -340 1178 c 0
 -350 1168 -352 1155 -352 1138 c 1
 -351 1140 -346 1143 -339 1146 c 0
 -334 1148 -326 1149 -315 1149 c 0
 -292 1149 -278 1143 -266 1131 c 0
 -255 1118 -248 1100 -248 1078 c 0
 -248 1064 -255 1047 -268 1034 c 0
 -282 1020 -297 1014 -315 1014 c 0
-315 1119 m 0
 -327 1119 -338 1116 -342 1107 c 0
 -350 1098 -352 1090 -352 1082 c 0
 -352 1071 -350 1064 -342 1056 c 0
 -338 1047 -327 1044 -315 1044 c 0
 -303 1044 -292 1047 -286 1056 c 0
 -282 1060 -278 1070 -278 1082 c 0
 -278 1092 -282 1100 -286 1108 c 0
 -292 1116 -303 1119 -315 1119 c 0
EndSplineSet
EndChar
StartChar: uni0E4B
Encoding: 235 3659 203
OldEncoding: 3659
Width: 0
Flags: W
HStem: 1101 59<-261 -156 -92 14>
VStem: -156 64<1018 1101 1160 1244>
Fore
-156 1101 m 1
 -261 1101 l 1
 -261 1160 l 1
 -156 1160 l 1
 -156 1244 l 1
 -92 1244 l 1
 -92 1160 l 1
 14 1160 l 1
 14 1101 l 1
 -92 1101 l 1
 -92 1018 l 1
 -156 1018 l 1
 -156 1101 l 1
EndSplineSet
EndChar
StartChar: uni0E4C
Encoding: 236 3660 204
OldEncoding: 3660
Width: 0
Flags: W
HStem: 948 45<-147 -138.256>
VStem: -256 73<1029 1052> -110 41<1026 1031>
Fore
-208 1070 m 0
 -207 1074 -200 1083 -192 1092 c 0
 -182 1100 -166 1104 -147 1106 c 1
 -123 1104 -105 1096 -90 1082 c 0
 -76 1066 -69 1048 -69 1028 c 0
 -69 1006 -76 988 -90 974 c 0
 -104 957 -122 948 -147 948 c 0
 -182 946 -208 957 -226 976 c 0
 -246 994 -256 1018 -256 1052 c 0
 -256 1077 -250 1098 -238 1119 c 0
 -226 1137 -212 1152 -190 1162 c 0
 -168 1172 -140 1178 -100 1179 c 0
 -62 1182 -34 1186 -16 1194 c 0
 0 1198 9 1215 9 1240 c 1
 60 1240 l 1
 60 1215 52 1197 39 1182 c 0
 27 1166 12 1156 -4 1150 c 0
 -26 1143 -54 1137 -92 1136 c 0
 -128 1134 -154 1130 -172 1122 c 0
 -192 1113 -204 1096 -208 1070 c 0
-147 1065 m 0
 -171 1065 -183 1053 -183 1029 c 0
 -183 1020 -180 1012 -172 1005 c 0
 -168 996 -159 993 -147 993 c 0
 -138 993 -129 996 -120 1004 c 1
 -114 1012 -110 1020 -110 1029 c 0
 -110 1040 -114 1047 -120 1054 c 0
 -128 1060 -135 1065 -147 1065 c 0
EndSplineSet
EndChar
StartChar: uni0E4D
Encoding: 237 3661 205
OldEncoding: 3661
Width: 0
Flags: W
HStem: 648 46<-183 -175> 808 48<-183 -175>
VStem: -288 48<753 761> -126 46<753 761>
Fore
-183 648 m 0
 -216 648 -240 657 -260 680 c 0
 -278 700 -288 724 -288 753 c 0
 -288 780 -278 804 -260 824 c 0
 -240 846 -216 856 -183 856 c 0
 -152 856 -126 846 -106 825 c 0
 -88 806 -80 782 -80 753 c 0
 -80 724 -88 699 -106 678 c 0
 -126 657 -152 648 -183 648 c 0
-183 808 m 0
 -201 808 -216 804 -225 792 c 0
 -236 780 -240 768 -240 753 c 0
 -240 738 -236 724 -225 712 c 0
 -216 700 -201 694 -183 694 c 0
 -165 694 -152 700 -141 712 c 0
 -130 724 -126 738 -126 753 c 0
 -126 760 -128 770 -132 778 c 0
 -138 786 -144 795 -153 800 c 0
 -160 806 -171 808 -183 808 c 0
EndSplineSet
EndChar
StartChar: uni0E4E
Encoding: 238 3662 206
OldEncoding: 3662
Width: 0
VWidth: 2048
Flags: W
HStem: 702 40<-318 -292> 890 66<-291 -274> 1005 59<-123 -104>
VStem: -426 75<808 818>
Fore
-12 960 m 2
 -14 962 l 2
 -21 970 -30 980 -42 990 c 0
 -54 1000 -70 1005 -93 1005 c 2
 -104 1005 l 2
 -118 1005 -132 999 -144 987 c 0
 -158 976 -168 962 -174 942 c 1
 -178 921 l 1
 -178 912 -177 902 -172 896 c 2
 -162 870 l 1
 -159 861 l 1
 -158 850 l 1
 -158 848 -159 844 -162 840 c 1
 -174 837 l 1
 -182 837 -186 840 -188 848 c 1
 -204 868 -216 882 -226 884 c 0
 -237 888 -252 890 -274 890 c 0
 -288 890 -304 885 -321 874 c 0
 -336 862 -344 848 -350 832 c 1
 -351 810 l 1
 -351 792 -346 777 -338 765 c 0
 -328 752 -316 744 -300 742 c 2
 -292 742 l 2
 -279 742 -268 744 -255 752 c 0
 -243 758 -232 765 -226 772 c 1
 -236 738 l 1
 -255 714 -284 702 -318 702 c 1
 -350 705 l 1
 -375 712 -393 728 -406 747 c 0
 -420 770 -426 792 -426 818 c 0
 -426 840 -422 861 -414 878 c 0
 -400 903 -382 922 -362 936 c 0
 -339 950 -315 956 -291 956 c 0
 -266 956 -244 950 -222 936 c 1
 -224 957 l 1
 -224 968 -222 980 -220 988 c 0
 -219 1000 -216 1010 -208 1020 c 0
 -201 1032 -190 1042 -171 1053 c 0
 -154 1059 -140 1064 -123 1064 c 0
 -100 1064 -76 1059 -56 1048 c 0
 -34 1040 -16 1024 -4 1005 c 1
 4 986 l 2
 10 976 12 968 12 962 c 0
 12 954 9 952 3 952 c 0
 -2 952 -8 954 -12 960 c 2
EndSplineSet
EndChar
StartChar: uni0E4F
Encoding: 239 3663 207
OldEncoding: 3663
Width: 610
VWidth: 2048
Flags: W
HStem: 0 64<288 301> 142 65<288 301> 446 62<288 301> 586 65<288 301>
VStem: -36 64<326 337> 106 66<326 337> 404 66<326 337> 550 64<326 337>
Fore
288 446 m 1
 224 446 172 392 172 326 c 0
 172 261 224 207 288 207 c 0
 352 207 404 261 404 326 c 1
 404 392 352 447 288 446 c 1
288 0 m 0
 188 0 108 34 51 99 c 0
 -8 165 -36 240 -36 326 c 0
 -36 416 -8 492 50 556 c 0
 105 621 184 651 288 651 c 0
 356 651 417 636 466 604 c 1
 518 573 552 532 576 484 c 0
 600 435 614 382 614 326 c 0
 614 268 600 216 576 168 c 0
 552 118 518 78 466 46 c 1
 417 15 356 0 288 0 c 0
288 586 m 0
 207 586 142 561 96 510 c 0
 51 459 28 396 28 326 c 0
 28 284 38 240 56 200 c 0
 75 159 105 128 146 104 c 1
 184 76 232 64 288 64 c 0
 344 64 392 76 432 104 c 0
 470 126 500 158 522 198 c 1
 540 240 550 284 550 326 c 0
 550 368 540 410 522 453 c 1
 498 495 470 526 432 550 c 0
 392 574 344 586 288 586 c 0
288 142 m 0
 250 142 218 152 188 170 c 0
 159 188 141 212 128 238 c 0
 114 266 106 297 106 326 c 0
 106 354 114 386 128 414 c 0
 140 441 159 462 188 482 c 0
 219 498 250 508 288 508 c 0
 326 508 357 498 388 482 c 0
 417 465 435 442 448 414 c 0
 462 387 470 356 470 326 c 0
 470 278 454 236 423 198 c 0
 390 160 344 142 288 142 c 0
EndSplineSet
EndChar
StartChar: uni0E50
Encoding: 240 3664 208
OldEncoding: 3664
Width: 600
Flags: W
HStem: -8 68<300 313> 351 66<300 313>
VStem: 56 76<206 217> 468 76<206 217>
Fore
300 -8 m 0
 224 -8 162 15 120 57 c 0
 78 100 56 148 56 206 c 0
 56 240 66 276 84 309 c 0
 104 340 130 368 168 388 c 0
 206 406 249 417 300 417 c 0
 351 417 394 406 432 388 c 0
 470 368 498 340 518 309 c 0
 536 276 544 240 544 206 c 0
 544 170 534 134 516 102 c 0
 496 69 470 44 432 24 c 0
 396 4 352 -8 300 -8 c 0
300 351 m 0
 248 351 206 338 177 309 c 0
 147 279 132 244 132 206 c 0
 132 166 147 132 177 104 c 0
 206 75 248 60 300 60 c 0
 352 60 394 75 423 104 c 0
 453 132 468 166 468 206 c 0
 468 244 453 279 423 309 c 0
 394 338 352 351 300 351 c 0
EndSplineSet
EndChar
StartChar: uni0E51
Encoding: 241 3665 209
OldEncoding: 3665
Width: 600
Flags: W
HStem: 26 62<228 255> 105 48<289.128 299.984> 244 46<289.689 305> 368 62<300 321>
VStem: 198 57<186 200> 346 64<180 198> 492 66<186 200>
Fore
130 212 m 0
 130 180 141 152 162 126 c 0
 184 100 210 88 240 88 c 0
 260 88 279 93 300 105 c 1
 285 105 264 110 238 120 c 0
 213 132 200 154 198 186 c 0
 198 218 208 243 230 261 c 0
 248 279 272 290 300 290 c 0
 336 290 364 279 382 260 c 0
 402 238 410 212 410 180 c 0
 410 152 404 123 388 100 c 0
 375 78 356 60 330 46 c 0
 304 32 276 26 248 26 c 0
 195 26 152 42 118 75 c 0
 87 106 66 153 64 212 c 0
 63 252 76 290 99 322 c 0
 120 356 147 382 183 402 c 0
 219 420 258 430 300 430 c 0
 380 429 442 405 488 363 c 0
 534 318 558 260 558 186 c 0
 558 138 548 94 526 62 c 0
 506 26 474 -9 434 -42 c 1
 392 -8 l 1
 458 50 492 114 492 186 c 0
 492 238 474 284 442 316 c 0
 408 351 362 368 300 368 c 0
 250 368 212 352 180 324 c 0
 148 296 132 258 130 212 c 0
300 244 m 0
 285 244 274 238 266 231 c 0
 258 222 255 210 255 198 c 0
 255 186 258 177 266 168 c 0
 274 158 285 153 300 153 c 0
 315 153 326 158 334 168 c 0
 342 177 346 186 346 198 c 0
 346 210 342 222 334 231 c 0
 326 238 315 244 300 244 c 0
EndSplineSet
EndChar
StartChar: uni0E52
Encoding: 242 3666 210
OldEncoding: 3666
Width: 735
Flags: W
HStem: 0 64<269 527> 120 50<322 335> 268 50<322 324> 357 60<349 370> 357 63<538 552>
VStem: 88 71<159 481> 206 67<219 240> 370 50<208.1 225> 594 70<134 303>
Fore
206 240 m 0
 206 276 212 308 225 334 c 0
 238 362 258 381 279 394 c 0
 303 410 328 417 354 417 c 0
 382 417 406 410 423 399 c 0
 440 387 452 376 456 368 c 1
 458 376 466 388 482 400 c 0
 495 414 519 420 550 420 c 0
 588 420 616 408 636 382 c 0
 654 357 664 330 664 303 c 2
 664 134 l 2
 664 88 654 54 632 32 c 0
 610 10 572 0 516 0 c 2
 279 0 l 2
 208 0 159 14 130 42 c 0
 102 70 88 117 88 180 c 2
 88 466 l 2
 88 492 84 513 80 531 c 0
 75 548 63 560 46 566 c 1
 105 615 l 1
 141 594 159 555 159 501 c 2
 159 177 l 2
 159 141 168 112 186 93 c 0
 204 75 234 64 276 64 c 2
 516 64 l 2
 546 64 566 69 578 81 c 0
 588 92 594 108 594 134 c 2
 594 284 l 2
 594 332 576 357 540 357 c 0
 518 357 498 350 484 330 c 0
 470 312 460 296 456 284 c 1
 454 288 448 297 441 309 c 0
 432 318 420 328 405 340 c 0
 390 352 375 357 357 357 c 0
 339 357 322 352 309 342 c 0
 296 330 285 318 279 303 c 0
 282 308 286 310 292 314 c 0
 300 316 310 318 322 318 c 0
 342 318 362 314 376 304 c 0
 392 297 402 285 410 270 c 0
 417 255 420 238 420 220 c 0
 420 192 412 168 394 148 c 0
 378 130 354 120 322 120 c 0
 288 120 261 132 238 154 c 0
 218 177 206 206 206 240 c 0
322 268 m 0
 308 268 296 262 286 255 c 0
 278 246 273 234 273 219 c 0
 273 207 278 195 286 184 c 0
 296 174 308 170 322 170 c 0
 338 170 350 174 357 184 c 0
 366 194 370 206 370 219 c 0
 370 232 368 244 360 255 c 0
 351 262 338 268 322 268 c 0
EndSplineSet
EndChar
StartChar: uni0E53
Encoding: 243 3667 211
OldEncoding: 3667
Width: 706
Flags: W
HStem: -8 64<185 201> 0 21G<339 414 524 602> 156 52<184 209> 368 62<223 246 484 497>
VStem: 64 74<192 226> 244 56<103 108> 339 75<0 265> 572 70<176 206>
Fore
237 368 m 0
 198 368 171 351 158 318 c 0
 144 285 138 243 138 192 c 1
 141 194 147 196 158 201 c 0
 168 207 182 208 198 208 c 0
 231 208 256 198 274 178 c 0
 291 158 300 134 300 105 c 0
 300 76 290 50 270 27 c 0
 250 4 222 -8 186 -8 c 0
 144 -9 114 12 94 51 c 0
 75 90 64 147 64 226 c 0
 64 262 70 297 84 327 c 0
 99 357 118 382 144 402 c 0
 170 420 198 430 234 430 c 0
 276 430 309 420 330 399 c 0
 352 376 366 357 370 342 c 1
 370 351 381 368 402 393 c 0
 420 418 448 430 484 430 c 0
 540 430 579 408 604 366 c 0
 630 322 644 264 642 195 c 0
 640 110 626 46 602 0 c 1
 524 0 l 1
 537 15 549 42 558 81 c 0
 566 120 572 160 572 206 c 0
 572 255 564 292 550 322 c 0
 537 352 516 368 484 368 c 0
 438 368 414 330 414 255 c 2
 414 0 l 1
 339 0 l 1
 339 255 l 2
 339 285 330 312 314 334 c 0
 296 356 270 368 237 368 c 0
195 156 m 0
 180 156 168 152 159 141 c 0
 152 132 146 120 146 106 c 0
 146 93 152 81 159 70 c 0
 170 62 182 56 195 56 c 0
 210 56 224 62 232 70 c 0
 240 80 244 92 244 106 c 0
 244 118 240 130 232 141 c 0
 224 152 212 156 195 156 c 0
EndSplineSet
EndChar
StartChar: uni0E54
Encoding: 244 3668 212
OldEncoding: 3668
Width: 706
Flags: W
HStem: 0 68<280 321> 75 87<357 388> 255 53<357 369> 346 60<460 490> 354 63<322 347>
VStem: 64 74<199 218> 248 62<208 218> 404 55<208 218>
Fore
388 75 m 0
 382 75 357 87 315 110 c 0
 270 134 248 166 248 208 c 0
 248 234 258 258 279 278 c 0
 300 297 326 308 357 308 c 0
 390 308 416 297 432 278 c 0
 452 258 459 234 459 208 c 0
 459 183 453 165 441 153 c 0
 429 141 418 134 410 130 c 1
 435 112 460 100 484 96 c 0
 507 93 532 92 561 87 c 0
 586 82 615 70 648 52 c 1
 618 -8 l 1
 597 12 556 22 495 22 c 0
 472 22 441 18 400 10 c 0
 362 3 322 0 284 0 c 0
 244 0 208 9 177 24 c 0
 142 39 116 63 94 94 c 0
 75 128 64 166 64 216 c 0
 64 255 76 288 99 318 c 0
 120 350 148 374 188 390 c 0
 226 408 273 417 322 417 c 0
 332 417 350 416 375 414 c 0
 417 408 446 406 460 406 c 0
 504 406 538 414 564 429 c 0
 590 444 609 470 621 506 c 0
 632 540 640 591 646 657 c 1
 720 648 l 1
 720 615 714 570 699 513 c 0
 682 458 656 414 618 386 c 0
 584 360 540 346 490 346 c 0
 474 346 454 348 426 351 c 0
 396 352 370 354 346 354 c 0
 286 356 237 340 198 318 c 0
 158 296 138 258 138 206 c 0
 138 114 194 68 308 68 c 0
 336 68 363 69 388 75 c 0
357 255 m 0
 342 255 330 249 322 240 c 0
 314 232 310 220 310 208 c 0
 310 196 314 186 322 177 c 0
 330 168 342 162 357 162 c 0
 374 162 382 168 392 177 c 0
 400 184 404 196 404 208 c 0
 404 222 400 234 392 243 c 0
 382 250 374 255 357 255 c 0
EndSplineSet
EndChar
StartChar: uni0E55
Encoding: 245 3669 213
OldEncoding: 3669
Width: 706
Flags: W
HStem: 0 68<280 321> 75 87<357 388> 255 53<357 369> 344 64<446 488> 352 70<346 369> 513 59<351 362>
VStem: 64 74<199 218> 248 62<208 218> 258 56<466 474> 404 55<208 218> 405 57<456.232 475>
Fore
462 472 m 0
 462 454 460 441 458 430 c 0
 453 420 448 414 446 408 c 1
 490 408 525 416 552 428 c 0
 579 440 602 465 616 500 c 0
 632 537 642 590 646 657 c 1
 720 648 l 1
 720 615 714 570 699 513 c 0
 682 458 656 414 618 386 c 0
 584 357 538 344 488 344 c 0
 483 344 462 346 429 350 c 0
 396 351 368 352 346 352 c 0
 309 352 274 348 243 339 c 0
 210 328 184 314 166 291 c 0
 147 270 138 240 138 206 c 0
 138 114 194 68 308 68 c 0
 336 68 363 69 388 75 c 0
 382 75 357 87 315 110 c 0
 270 134 248 166 248 208 c 0
 248 234 258 258 279 278 c 0
 300 297 326 308 357 308 c 0
 390 308 416 297 432 278 c 0
 452 258 459 234 459 208 c 0
 459 183 453 165 441 153 c 0
 429 141 418 134 410 130 c 1
 435 112 460 100 484 96 c 0
 507 93 532 92 561 87 c 0
 586 82 615 70 648 52 c 1
 618 -8 l 1
 597 12 556 22 495 22 c 0
 472 22 441 18 400 10 c 0
 362 3 322 0 284 0 c 0
 244 0 208 9 177 24 c 0
 142 39 116 63 94 94 c 0
 75 128 64 166 64 216 c 0
 64 258 76 291 99 321 c 0
 120 350 146 370 178 387 c 0
 210 402 240 410 273 414 c 1
 272 418 268 426 262 438 c 0
 260 448 258 460 258 472 c 0
 258 501 268 525 286 544 c 0
 308 562 332 572 362 572 c 0
 392 570 417 561 435 543 c 0
 454 524 462 501 462 472 c 0
360 513 m 0
 344 513 334 508 326 500 c 0
 316 492 314 480 314 468 c 0
 314 456 316 446 326 435 c 0
 334 428 344 422 360 422 c 0
 368 422 376 423 386 429 c 0
 390 434 394 440 400 446 c 0
 404 453 405 459 405 468 c 0
 405 482 402 494 393 501 c 0
 386 510 375 513 360 513 c 0
357 255 m 0
 342 255 330 249 322 240 c 0
 314 232 310 220 310 208 c 0
 310 196 314 186 322 177 c 0
 330 168 342 162 357 162 c 0
 374 162 382 168 392 177 c 0
 400 184 404 196 404 208 c 0
 404 222 400 234 392 243 c 0
 382 250 374 255 357 255 c 0
EndSplineSet
EndChar
StartChar: uni0E56
Encoding: 246 3670 214
OldEncoding: 3670
Width: 540
Flags: W
HStem: -8 72<261 279> 184 56<195 199> 368 72<255 297>
VStem: 92 56<135 145> 240 60<135 144> 423 75<222 242>
Fore
268 64 m 1
 300 64 328 70 352 87 c 0
 376 100 394 118 406 142 c 0
 418 166 423 194 423 222 c 0
 423 250 417 276 404 298 c 0
 392 321 370 338 346 350 c 0
 321 362 290 368 255 368 c 1
 225 363 198 354 172 342 c 0
 147 328 129 318 117 310 c 1
 116 334 112 360 106 387 c 0
 102 412 93 441 84 471 c 0
 76 500 66 530 54 556 c 0
 42 582 32 603 22 618 c 1
 78 648 l 1
 90 632 106 597 126 540 c 0
 144 486 158 442 166 410 c 1
 218 429 261 440 297 440 c 0
 339 440 375 429 405 410 c 0
 435 392 459 364 474 332 c 0
 490 300 498 262 498 222 c 0
 498 168 486 123 462 90 c 0
 440 54 408 30 374 15 c 0
 338 0 300 -8 261 -8 c 0
 236 -8 208 0 183 12 c 0
 158 24 135 42 118 64 c 0
 100 87 92 112 92 141 c 0
 92 170 102 194 122 212 c 0
 142 231 166 240 195 240 c 0
 226 240 255 231 273 212 c 0
 292 190 300 166 300 138 c 0
 300 116 297 100 288 88 c 0
 279 76 273 69 268 64 c 1
195 184 m 0
 182 184 171 180 162 171 c 0
 154 160 148 152 148 140 c 0
 148 128 153 116 160 106 c 0
 170 96 182 92 195 92 c 0
 210 92 220 96 230 106 c 0
 237 116 240 128 240 140 c 0
 240 152 237 160 230 171 c 0
 220 180 210 184 195 184 c 0
EndSplineSet
EndChar
